%TF.GenerationSoftware,KiCad,Pcbnew,7.0.5+dfsg-2*%
%TF.CreationDate,2024-02-04T12:59:40+01:00*%
%TF.ProjectId,microscope-lamp-pcb,6d696372-6f73-4636-9f70-652d6c616d70,1*%
%TF.SameCoordinates,Original*%
%TF.FileFunction,Copper,L2,Bot*%
%TF.FilePolarity,Positive*%
%FSLAX46Y46*%
G04 Gerber Fmt 4.6, Leading zero omitted, Abs format (unit mm)*
G04 Created by KiCad (PCBNEW 7.0.5+dfsg-2) date 2024-02-04 12:59:40*
%MOMM*%
%LPD*%
G01*
G04 APERTURE LIST*
G04 Aperture macros list*
%AMRotRect*
0 Rectangle, with rotation*
0 The origin of the aperture is its center*
0 $1 length*
0 $2 width*
0 $3 Rotation angle, in degrees counterclockwise*
0 Add horizontal line*
21,1,$1,$2,0,0,$3*%
G04 Aperture macros list end*
%TA.AperFunction,ComponentPad*%
%ADD10C,1.800000*%
%TD*%
%TA.AperFunction,ComponentPad*%
%ADD11RotRect,1.800000X1.800000X246.000000*%
%TD*%
%TA.AperFunction,ComponentPad*%
%ADD12RotRect,1.800000X1.800000X222.000000*%
%TD*%
%TA.AperFunction,ComponentPad*%
%ADD13RotRect,1.800000X1.800000X198.000000*%
%TD*%
%TA.AperFunction,ComponentPad*%
%ADD14RotRect,1.800000X1.800000X174.000000*%
%TD*%
%TA.AperFunction,ComponentPad*%
%ADD15RotRect,1.800000X1.800000X150.000000*%
%TD*%
%TA.AperFunction,ComponentPad*%
%ADD16RotRect,1.800000X1.800000X126.000000*%
%TD*%
%TA.AperFunction,ComponentPad*%
%ADD17RotRect,1.800000X1.800000X102.000000*%
%TD*%
%TA.AperFunction,ComponentPad*%
%ADD18RotRect,1.800000X1.800000X78.000000*%
%TD*%
%TA.AperFunction,ComponentPad*%
%ADD19RotRect,1.800000X1.800000X54.000000*%
%TD*%
%TA.AperFunction,ComponentPad*%
%ADD20RotRect,1.800000X1.800000X30.000000*%
%TD*%
%TA.AperFunction,ComponentPad*%
%ADD21RotRect,1.800000X1.800000X6.000000*%
%TD*%
%TA.AperFunction,ComponentPad*%
%ADD22RotRect,1.800000X1.800000X342.000000*%
%TD*%
%TA.AperFunction,ComponentPad*%
%ADD23RotRect,1.800000X1.800000X318.000000*%
%TD*%
%TA.AperFunction,ComponentPad*%
%ADD24RotRect,1.800000X1.800000X294.000000*%
%TD*%
%TA.AperFunction,ComponentPad*%
%ADD25R,1.800000X1.800000*%
%TD*%
%TA.AperFunction,ViaPad*%
%ADD26C,0.800000*%
%TD*%
G04 APERTURE END LIST*
D10*
%TO.P,D16,2,A*%
%TO.N,Net-(D15-K)*%
X162731887Y-107053316D03*
D11*
%TO.P,D16,1,K*%
%TO.N,Net-(D16-K)*%
X163764998Y-104732911D03*
%TD*%
D10*
%TO.P,D15,2,A*%
%TO.N,Net-(D14-K)*%
X158762315Y-111622050D03*
D12*
%TO.P,D15,1,K*%
%TO.N,Net-(D15-K)*%
X160649903Y-109922458D03*
%TD*%
D10*
%TO.P,D14,2,A*%
%TO.N,Net-(D13-K)*%
X153277659Y-114181226D03*
D13*
%TO.P,D14,1,K*%
%TO.N,Net-(D14-K)*%
X155693343Y-113396323D03*
%TD*%
D10*
%TO.P,D13,2,A*%
%TO.N,Net-(D12-K)*%
X147226267Y-114288339D03*
D14*
%TO.P,D13,1,K*%
%TO.N,Net-(D13-K)*%
X149752353Y-114553841D03*
%TD*%
D10*
%TO.P,D12,2,A*%
%TO.N,Net-(D1-K)*%
X141654477Y-111924868D03*
D15*
%TO.P,D12,1,K*%
%TO.N,Net-(D12-K)*%
X143854182Y-113194868D03*
%TD*%
D10*
%TO.P,D11,2,A*%
%TO.N,Net-(D10-K)*%
X137525705Y-107499480D03*
D16*
%TO.P,D11,1,K*%
%TO.N,Net-(D11-K)*%
X139018680Y-109554383D03*
%TD*%
D10*
%TO.P,D10,2,A*%
%TO.N,Net-(D10-A)*%
X135553851Y-101777363D03*
D17*
%TO.P,D10,1,K*%
%TO.N,Net-(D10-K)*%
X136081947Y-104261858D03*
%TD*%
D10*
%TO.P,D9,2,A*%
%TO.N,Net-(D8-K)*%
X136079868Y-95747924D03*
D18*
%TO.P,D9,1,K*%
%TO.N,Net-(D10-A)*%
X135551772Y-98232419D03*
%TD*%
D10*
%TO.P,D8,2,A*%
%TO.N,Net-(D7-K)*%
X139012802Y-90453708D03*
D19*
%TO.P,D8,1,K*%
%TO.N,Net-(D8-K)*%
X137519827Y-92508611D03*
%TD*%
D10*
%TO.P,D7,2,A*%
%TO.N,Net-(D1-K)*%
X143845523Y-86810132D03*
D20*
%TO.P,D7,1,K*%
%TO.N,Net-(D7-K)*%
X141645818Y-88080132D03*
%TD*%
D10*
%TO.P,D6,2,A*%
%TO.N,Net-(D5-K)*%
X149742408Y-85447204D03*
D21*
%TO.P,D6,1,K*%
%TO.N,Net-(D6-K)*%
X147216322Y-85712706D03*
%TD*%
D10*
%TO.P,D5,2,A*%
%TO.N,Net-(D4-K)*%
X155683833Y-86600587D03*
D22*
%TO.P,D5,1,K*%
%TO.N,Net-(D5-K)*%
X153268149Y-85815684D03*
%TD*%
D10*
%TO.P,D4,2,A*%
%TO.N,Net-(D3-K)*%
X160642472Y-90070851D03*
D23*
%TO.P,D4,1,K*%
%TO.N,Net-(D4-K)*%
X158754884Y-88371259D03*
%TD*%
D10*
%TO.P,D3,2,A*%
%TO.N,Net-(D2-K)*%
X163760931Y-95257953D03*
D24*
%TO.P,D3,1,K*%
%TO.N,Net-(D3-K)*%
X162727820Y-92937548D03*
%TD*%
D10*
%TO.P,D2,2,A*%
%TO.N,Net-(D1-K)*%
X164500000Y-101265000D03*
D25*
%TO.P,D2,1,K*%
%TO.N,Net-(D2-K)*%
X164500000Y-98725000D03*
%TD*%
D26*
%TO.N,GND*%
X155000000Y-84500000D03*
X165750000Y-96500000D03*
X164750000Y-119500000D03*
X159250000Y-116000000D03*
X136500000Y-114250000D03*
X140750000Y-117750000D03*
X148250000Y-127000000D03*
X148250000Y-121000000D03*
X146500000Y-119500000D03*
X143250000Y-119750000D03*
X156500000Y-111250000D03*
X143500000Y-111250000D03*
X163250000Y-90500000D03*
X144750000Y-84500000D03*
X165750000Y-127250000D03*
X134000000Y-127000000D03*
X133750000Y-119250000D03*
X135500000Y-106250000D03*
X163250000Y-102500000D03*
X163250000Y-109000000D03*
X162250000Y-122750000D03*
X155250000Y-118250000D03*
X140750000Y-126000000D03*
X139000000Y-121250000D03*
%TD*%
%TA.AperFunction,Conductor*%
%TO.N,GND*%
G36*
X150188112Y-83004978D02*
G01*
X150198610Y-83005227D01*
X150626630Y-83015416D01*
X150627672Y-83015454D01*
X151001170Y-83033520D01*
X151002221Y-83033584D01*
X151439772Y-83064878D01*
X151441018Y-83064983D01*
X151633117Y-83083610D01*
X151813012Y-83101053D01*
X151813988Y-83101158D01*
X152249734Y-83153258D01*
X152250895Y-83153412D01*
X152620770Y-83207421D01*
X152621656Y-83207561D01*
X153054574Y-83280360D01*
X153055724Y-83280569D01*
X153249645Y-83318534D01*
X153422285Y-83352333D01*
X153423296Y-83352542D01*
X153745272Y-83422583D01*
X153852339Y-83445874D01*
X153853578Y-83446161D01*
X154216052Y-83535503D01*
X154216847Y-83535707D01*
X154604710Y-83639634D01*
X154641307Y-83649441D01*
X154642606Y-83649808D01*
X155000386Y-83756572D01*
X155419697Y-83890611D01*
X155421007Y-83891051D01*
X155772753Y-84014814D01*
X156185635Y-84168811D01*
X156186894Y-84169303D01*
X156531859Y-84309756D01*
X156937303Y-84483378D01*
X156938633Y-84483972D01*
X157275893Y-84640687D01*
X157673096Y-84833637D01*
X157674430Y-84834311D01*
X157824413Y-84913028D01*
X158003115Y-85006818D01*
X158391254Y-85218758D01*
X158392625Y-85219535D01*
X158711926Y-85407329D01*
X159090198Y-85637898D01*
X159091435Y-85638679D01*
X159400636Y-85841251D01*
X159678073Y-86029026D01*
X159768183Y-86090014D01*
X159769533Y-86090962D01*
X160067704Y-86307594D01*
X160423799Y-86574163D01*
X160425100Y-86575173D01*
X160711631Y-86805297D01*
X160963448Y-87013215D01*
X161055397Y-87089134D01*
X161056706Y-87090254D01*
X161330826Y-87333103D01*
X161661660Y-87633851D01*
X161662915Y-87635033D01*
X161923919Y-87889805D01*
X162241083Y-88206969D01*
X162242329Y-88208260D01*
X162489651Y-88474197D01*
X162792407Y-88807239D01*
X162793610Y-88808613D01*
X163026482Y-89084630D01*
X163314342Y-89433268D01*
X163315435Y-89434643D01*
X163466762Y-89632681D01*
X163533361Y-89719838D01*
X163681771Y-89918090D01*
X163805674Y-90083605D01*
X163806741Y-90085089D01*
X163921002Y-90250625D01*
X164009028Y-90378153D01*
X164265240Y-90756707D01*
X164266296Y-90758334D01*
X164452525Y-91058151D01*
X164692027Y-91451078D01*
X164693022Y-91452785D01*
X164862729Y-91757979D01*
X165085064Y-92165155D01*
X165085992Y-92166940D01*
X165238677Y-92475771D01*
X165366886Y-92739699D01*
X165443434Y-92897279D01*
X165444280Y-92899118D01*
X165579533Y-93209608D01*
X165766270Y-93645681D01*
X165767050Y-93647614D01*
X165884575Y-93957500D01*
X166052889Y-94408770D01*
X166053587Y-94410772D01*
X166153030Y-94716826D01*
X166302591Y-95184692D01*
X166303202Y-95186760D01*
X166384233Y-95484369D01*
X166514821Y-95971733D01*
X166515342Y-95973864D01*
X166577684Y-96255963D01*
X166577669Y-96255966D01*
X166577755Y-96256282D01*
X166689082Y-96768049D01*
X166689506Y-96770238D01*
X166733127Y-97025633D01*
X166824969Y-97571802D01*
X166825294Y-97574044D01*
X166849900Y-97776681D01*
X166850263Y-97779718D01*
X166850264Y-97779734D01*
X166922174Y-98381172D01*
X166922395Y-98383463D01*
X166927936Y-98459756D01*
X166928058Y-98461464D01*
X166928059Y-98461489D01*
X166980161Y-99189960D01*
X166980273Y-99192313D01*
X166999486Y-99999412D01*
X166999500Y-100000590D01*
X166999500Y-127900500D01*
X166980593Y-127958691D01*
X166931093Y-127994655D01*
X166900500Y-127999500D01*
X133099500Y-127999500D01*
X133041309Y-127980593D01*
X133005345Y-127931093D01*
X133000500Y-127900500D01*
X133000500Y-125250003D01*
X134444532Y-125250003D01*
X134464363Y-125476684D01*
X134523262Y-125696500D01*
X134619426Y-125902723D01*
X134619434Y-125902737D01*
X134749946Y-126089130D01*
X134749947Y-126089132D01*
X134749950Y-126089135D01*
X134749953Y-126089139D01*
X134910861Y-126250047D01*
X134910864Y-126250049D01*
X134910867Y-126250052D01*
X134910869Y-126250053D01*
X135035131Y-126337060D01*
X135097266Y-126380568D01*
X135097272Y-126380571D01*
X135097276Y-126380573D01*
X135303500Y-126476737D01*
X135303504Y-126476739D01*
X135523308Y-126535635D01*
X135523312Y-126535635D01*
X135523315Y-126535636D01*
X135693208Y-126550500D01*
X135693216Y-126550500D01*
X135806792Y-126550500D01*
X135976684Y-126535636D01*
X135976685Y-126535635D01*
X135976692Y-126535635D01*
X136196496Y-126476739D01*
X136402734Y-126380568D01*
X136589139Y-126250047D01*
X136750047Y-126089139D01*
X136880568Y-125902734D01*
X136976739Y-125696496D01*
X137035635Y-125476692D01*
X137055468Y-125250003D01*
X162944532Y-125250003D01*
X162964363Y-125476684D01*
X163023262Y-125696500D01*
X163119426Y-125902723D01*
X163119434Y-125902737D01*
X163249946Y-126089130D01*
X163249947Y-126089132D01*
X163249950Y-126089135D01*
X163249953Y-126089139D01*
X163410861Y-126250047D01*
X163410864Y-126250049D01*
X163410867Y-126250052D01*
X163410869Y-126250053D01*
X163535131Y-126337060D01*
X163597266Y-126380568D01*
X163597272Y-126380571D01*
X163597276Y-126380573D01*
X163803500Y-126476737D01*
X163803504Y-126476739D01*
X164023308Y-126535635D01*
X164023312Y-126535635D01*
X164023315Y-126535636D01*
X164193208Y-126550500D01*
X164193216Y-126550500D01*
X164306792Y-126550500D01*
X164476684Y-126535636D01*
X164476685Y-126535635D01*
X164476692Y-126535635D01*
X164696496Y-126476739D01*
X164902734Y-126380568D01*
X165089139Y-126250047D01*
X165250047Y-126089139D01*
X165380568Y-125902734D01*
X165476739Y-125696496D01*
X165535635Y-125476692D01*
X165555468Y-125250000D01*
X165535635Y-125023308D01*
X165476739Y-124803504D01*
X165380568Y-124597266D01*
X165250053Y-124410869D01*
X165250052Y-124410867D01*
X165250049Y-124410864D01*
X165250047Y-124410861D01*
X165089139Y-124249953D01*
X165089135Y-124249950D01*
X165089132Y-124249947D01*
X165089130Y-124249946D01*
X164902737Y-124119434D01*
X164902736Y-124119433D01*
X164902734Y-124119432D01*
X164902731Y-124119430D01*
X164902723Y-124119426D01*
X164696499Y-124023262D01*
X164696500Y-124023262D01*
X164623228Y-124003628D01*
X164476692Y-123964365D01*
X164476691Y-123964364D01*
X164476684Y-123964363D01*
X164306792Y-123949500D01*
X164306784Y-123949500D01*
X164193216Y-123949500D01*
X164193208Y-123949500D01*
X164023315Y-123964363D01*
X163803499Y-124023262D01*
X163597276Y-124119426D01*
X163597262Y-124119434D01*
X163410869Y-124249946D01*
X163410867Y-124249947D01*
X163249947Y-124410867D01*
X163249946Y-124410869D01*
X163119434Y-124597262D01*
X163119426Y-124597276D01*
X163023262Y-124803499D01*
X162964363Y-125023315D01*
X162944532Y-125249996D01*
X162944532Y-125250003D01*
X137055468Y-125250003D01*
X137055468Y-125250000D01*
X137035635Y-125023308D01*
X136976739Y-124803504D01*
X136880568Y-124597266D01*
X136750053Y-124410869D01*
X136750052Y-124410867D01*
X136750049Y-124410864D01*
X136750047Y-124410861D01*
X136589139Y-124249953D01*
X136589135Y-124249950D01*
X136589132Y-124249947D01*
X136589130Y-124249946D01*
X136402737Y-124119434D01*
X136402736Y-124119433D01*
X136402734Y-124119432D01*
X136402731Y-124119430D01*
X136402723Y-124119426D01*
X136196499Y-124023262D01*
X136196500Y-124023262D01*
X136123228Y-124003628D01*
X135976692Y-123964365D01*
X135976691Y-123964364D01*
X135976684Y-123964363D01*
X135806792Y-123949500D01*
X135806784Y-123949500D01*
X135693216Y-123949500D01*
X135693208Y-123949500D01*
X135523315Y-123964363D01*
X135303499Y-124023262D01*
X135097276Y-124119426D01*
X135097262Y-124119434D01*
X134910869Y-124249946D01*
X134910867Y-124249947D01*
X134749947Y-124410867D01*
X134749946Y-124410869D01*
X134619434Y-124597262D01*
X134619426Y-124597276D01*
X134523262Y-124803499D01*
X134464363Y-125023315D01*
X134444532Y-125249996D01*
X134444532Y-125250003D01*
X133000500Y-125250003D01*
X133000500Y-113497609D01*
X142422080Y-113497609D01*
X142427297Y-113577202D01*
X142462574Y-113648736D01*
X142462576Y-113648739D01*
X142507407Y-113688055D01*
X144100457Y-114607803D01*
X144100460Y-114607804D01*
X144100462Y-114607805D01*
X144127859Y-114617104D01*
X144156921Y-114626970D01*
X144236515Y-114621753D01*
X144308053Y-114586474D01*
X144347369Y-114541643D01*
X144493614Y-114288339D01*
X146121052Y-114288339D01*
X146139870Y-114491422D01*
X146195685Y-114687589D01*
X146286594Y-114870160D01*
X146409503Y-115032918D01*
X146560226Y-115170320D01*
X146733630Y-115277687D01*
X146923811Y-115351363D01*
X147124291Y-115388839D01*
X147328243Y-115388839D01*
X147517195Y-115353518D01*
X148561742Y-115353518D01*
X148567198Y-115412897D01*
X148604337Y-115483485D01*
X148604339Y-115483486D01*
X148665661Y-115534489D01*
X148665662Y-115534489D01*
X148665663Y-115534490D01*
X148722610Y-115552173D01*
X150552029Y-115744452D01*
X150611408Y-115738996D01*
X150681997Y-115701856D01*
X150733002Y-115640531D01*
X150750685Y-115583584D01*
X150898078Y-114181226D01*
X152172444Y-114181226D01*
X152191262Y-114384309D01*
X152221738Y-114491421D01*
X152247078Y-114580478D01*
X152288245Y-114663154D01*
X152337986Y-114763047D01*
X152460895Y-114925805D01*
X152611618Y-115063207D01*
X152785022Y-115170574D01*
X152975203Y-115244250D01*
X153175683Y-115281726D01*
X153379635Y-115281726D01*
X153580115Y-115244250D01*
X153770296Y-115170574D01*
X153943700Y-115063207D01*
X154094423Y-114925805D01*
X154217332Y-114763047D01*
X154308241Y-114580476D01*
X154364056Y-114384309D01*
X154382874Y-114181226D01*
X154364056Y-113978143D01*
X154308241Y-113781976D01*
X154217332Y-113599405D01*
X154094423Y-113436647D01*
X153943700Y-113299245D01*
X153770296Y-113191878D01*
X153580115Y-113118202D01*
X153580114Y-113118201D01*
X153580112Y-113118201D01*
X153379635Y-113080726D01*
X153175683Y-113080726D01*
X152975205Y-113118201D01*
X152905291Y-113145285D01*
X152785022Y-113191878D01*
X152611618Y-113299245D01*
X152460895Y-113436647D01*
X152421046Y-113489414D01*
X152337987Y-113599403D01*
X152337982Y-113599412D01*
X152260926Y-113754163D01*
X152247077Y-113781976D01*
X152191262Y-113978143D01*
X152172444Y-114181226D01*
X150898078Y-114181226D01*
X150942964Y-113754165D01*
X150937508Y-113694786D01*
X150913279Y-113648736D01*
X150900368Y-113624196D01*
X150900366Y-113624195D01*
X150839044Y-113573192D01*
X150782100Y-113555510D01*
X150782098Y-113555509D01*
X150782096Y-113555509D01*
X148952677Y-113363230D01*
X148952675Y-113363230D01*
X148893296Y-113368686D01*
X148822708Y-113405825D01*
X148822707Y-113405827D01*
X148771704Y-113467149D01*
X148754022Y-113524093D01*
X148754021Y-113524096D01*
X148754021Y-113524098D01*
X148640120Y-114607803D01*
X148561742Y-115353518D01*
X147517195Y-115353518D01*
X147528723Y-115351363D01*
X147718904Y-115277687D01*
X147892308Y-115170320D01*
X148043031Y-115032918D01*
X148165940Y-114870160D01*
X148256849Y-114687589D01*
X148312664Y-114491422D01*
X148331482Y-114288339D01*
X148312664Y-114085256D01*
X148256849Y-113889089D01*
X148165940Y-113706518D01*
X148043031Y-113543760D01*
X147892308Y-113406358D01*
X147718904Y-113298991D01*
X147528723Y-113225315D01*
X147528722Y-113225314D01*
X147528720Y-113225314D01*
X147328243Y-113187839D01*
X147124291Y-113187839D01*
X146923813Y-113225314D01*
X146853899Y-113252398D01*
X146733630Y-113298991D01*
X146561087Y-113405825D01*
X146560226Y-113406358D01*
X146409504Y-113543759D01*
X146286595Y-113706516D01*
X146286590Y-113706525D01*
X146195686Y-113889086D01*
X146195685Y-113889089D01*
X146139870Y-114085256D01*
X146121052Y-114288339D01*
X144493614Y-114288339D01*
X145267117Y-112948593D01*
X145286284Y-112892129D01*
X145281067Y-112812535D01*
X145276093Y-112802448D01*
X154355479Y-112802448D01*
X154362488Y-112861664D01*
X154857225Y-114384309D01*
X154930923Y-114611129D01*
X154960059Y-114663154D01*
X155022695Y-114712533D01*
X155022697Y-114712533D01*
X155022699Y-114712535D01*
X155099468Y-114734187D01*
X155158684Y-114727178D01*
X156908149Y-114158743D01*
X156960174Y-114129607D01*
X157009555Y-114066967D01*
X157031207Y-113990198D01*
X157024198Y-113930982D01*
X156455763Y-112181517D01*
X156426627Y-112129492D01*
X156426626Y-112129491D01*
X156363990Y-112080112D01*
X156363987Y-112080111D01*
X156287218Y-112058459D01*
X156228002Y-112065468D01*
X154952707Y-112479836D01*
X154478536Y-112633903D01*
X154426511Y-112663039D01*
X154377132Y-112725675D01*
X154377131Y-112725678D01*
X154372811Y-112740997D01*
X154355479Y-112802448D01*
X145276093Y-112802448D01*
X145245788Y-112740997D01*
X145200957Y-112701681D01*
X143607907Y-111781933D01*
X143607905Y-111781932D01*
X143607901Y-111781930D01*
X143551444Y-111762766D01*
X143551440Y-111762766D01*
X143471847Y-111767983D01*
X143400313Y-111803260D01*
X143360995Y-111848092D01*
X142441244Y-113441148D01*
X142422080Y-113497605D01*
X142422080Y-113497609D01*
X133000500Y-113497609D01*
X133000500Y-111924868D01*
X140549262Y-111924868D01*
X140568080Y-112127951D01*
X140623895Y-112324118D01*
X140714804Y-112506689D01*
X140837713Y-112669447D01*
X140988436Y-112806849D01*
X141161840Y-112914216D01*
X141352021Y-112987892D01*
X141552501Y-113025368D01*
X141756453Y-113025368D01*
X141956933Y-112987892D01*
X142147114Y-112914216D01*
X142320518Y-112806849D01*
X142471241Y-112669447D01*
X142594150Y-112506689D01*
X142685059Y-112324118D01*
X142740874Y-112127951D01*
X142759692Y-111924868D01*
X142740874Y-111721785D01*
X142685059Y-111525618D01*
X142594150Y-111343047D01*
X142471241Y-111180289D01*
X142320518Y-111042887D01*
X142147114Y-110935520D01*
X141956933Y-110861844D01*
X141956932Y-110861843D01*
X141956930Y-110861843D01*
X141756453Y-110824368D01*
X141552501Y-110824368D01*
X141352023Y-110861843D01*
X141311685Y-110877470D01*
X141161840Y-110935520D01*
X140988436Y-111042887D01*
X140837713Y-111180289D01*
X140805610Y-111222800D01*
X140714805Y-111343045D01*
X140714800Y-111343054D01*
X140623896Y-111525615D01*
X140623895Y-111525618D01*
X140568080Y-111721785D01*
X140549262Y-111924868D01*
X133000500Y-111924868D01*
X133000500Y-109323293D01*
X137559647Y-109323293D01*
X137562778Y-109402999D01*
X137587739Y-109457144D01*
X137587740Y-109457146D01*
X137587742Y-109457149D01*
X138668971Y-110945332D01*
X138712758Y-110985808D01*
X138787592Y-111013416D01*
X138867294Y-111010285D01*
X138921446Y-110985321D01*
X140409629Y-109904092D01*
X140450105Y-109860305D01*
X140477713Y-109785471D01*
X140474582Y-109705769D01*
X140449618Y-109651617D01*
X139368389Y-108163434D01*
X139324602Y-108122958D01*
X139249769Y-108095350D01*
X139249768Y-108095350D01*
X139229842Y-108096132D01*
X139170063Y-108098481D01*
X139115918Y-108123442D01*
X137627728Y-109204676D01*
X137587255Y-109248460D01*
X137559647Y-109323292D01*
X137559647Y-109323293D01*
X133000500Y-109323293D01*
X133000500Y-107499480D01*
X136420490Y-107499480D01*
X136439308Y-107702563D01*
X136495123Y-107898730D01*
X136586032Y-108081301D01*
X136708941Y-108244059D01*
X136859664Y-108381461D01*
X137033068Y-108488828D01*
X137223249Y-108562504D01*
X137423729Y-108599980D01*
X137627681Y-108599980D01*
X137828161Y-108562504D01*
X138018342Y-108488828D01*
X138191746Y-108381461D01*
X138342469Y-108244059D01*
X138465378Y-108081301D01*
X138556287Y-107898730D01*
X138612102Y-107702563D01*
X138630920Y-107499480D01*
X138612102Y-107296397D01*
X138556287Y-107100230D01*
X138465378Y-106917659D01*
X138342469Y-106754901D01*
X138191746Y-106617499D01*
X138018342Y-106510132D01*
X137828161Y-106436456D01*
X137828160Y-106436455D01*
X137828158Y-106436455D01*
X137627681Y-106398980D01*
X137423729Y-106398980D01*
X137223251Y-106436455D01*
X137153337Y-106463539D01*
X137033068Y-106510132D01*
X136859664Y-106617498D01*
X136859664Y-106617499D01*
X136708942Y-106754900D01*
X136586033Y-106917657D01*
X136586028Y-106917666D01*
X136518483Y-107053316D01*
X136495123Y-107100230D01*
X136439308Y-107296397D01*
X136420490Y-107499480D01*
X133000500Y-107499480D01*
X133000500Y-103531392D01*
X134813489Y-103531392D01*
X134814269Y-103591016D01*
X135196722Y-105390314D01*
X135196723Y-105390316D01*
X135212010Y-105425899D01*
X135220260Y-105445100D01*
X135277396Y-105500759D01*
X135277397Y-105500759D01*
X135277398Y-105500760D01*
X135314438Y-105515537D01*
X135351481Y-105530316D01*
X135411105Y-105529536D01*
X137210403Y-105147083D01*
X137265189Y-105123545D01*
X137320848Y-105066409D01*
X137350405Y-104992324D01*
X137349625Y-104932700D01*
X136967172Y-103133402D01*
X136943634Y-103078616D01*
X136886498Y-103022957D01*
X136886496Y-103022956D01*
X136886495Y-103022955D01*
X136812414Y-102993400D01*
X136812413Y-102993400D01*
X136792538Y-102993660D01*
X136752787Y-102994180D01*
X135781407Y-103200653D01*
X134953491Y-103376633D01*
X134953489Y-103376633D01*
X134953488Y-103376634D01*
X134898708Y-103400169D01*
X134898706Y-103400170D01*
X134898705Y-103400171D01*
X134854971Y-103445066D01*
X134843045Y-103457308D01*
X134843044Y-103457309D01*
X134813489Y-103531390D01*
X134813489Y-103531391D01*
X134813489Y-103531392D01*
X133000500Y-103531392D01*
X133000500Y-101777363D01*
X134448636Y-101777363D01*
X134467454Y-101980446D01*
X134523269Y-102176613D01*
X134614178Y-102359184D01*
X134737087Y-102521942D01*
X134887810Y-102659344D01*
X135061214Y-102766711D01*
X135251395Y-102840387D01*
X135451875Y-102877863D01*
X135655827Y-102877863D01*
X135856307Y-102840387D01*
X136046488Y-102766711D01*
X136219892Y-102659344D01*
X136370615Y-102521942D01*
X136493524Y-102359184D01*
X136584433Y-102176613D01*
X136640248Y-101980446D01*
X136659066Y-101777363D01*
X136640248Y-101574280D01*
X136584433Y-101378113D01*
X136493524Y-101195542D01*
X136370615Y-101032784D01*
X136219892Y-100895382D01*
X136046488Y-100788015D01*
X135856307Y-100714339D01*
X135856306Y-100714338D01*
X135856304Y-100714338D01*
X135655827Y-100676863D01*
X135451875Y-100676863D01*
X135251397Y-100714338D01*
X135181483Y-100741422D01*
X135061214Y-100788015D01*
X134887810Y-100895382D01*
X134737088Y-101032783D01*
X134614179Y-101195540D01*
X134614174Y-101195549D01*
X134579592Y-101265000D01*
X134523269Y-101378113D01*
X134467454Y-101574280D01*
X134448636Y-101777363D01*
X133000500Y-101777363D01*
X133000500Y-100000589D01*
X133000507Y-100000002D01*
X137494581Y-100000002D01*
X137514253Y-100701162D01*
X137514254Y-100701181D01*
X137573212Y-101400165D01*
X137671269Y-102094735D01*
X137808118Y-102782719D01*
X137808118Y-102782720D01*
X137978973Y-103445068D01*
X137983326Y-103461944D01*
X138196343Y-104130278D01*
X138446499Y-104785617D01*
X138446505Y-104785631D01*
X138446511Y-104785646D01*
X138733007Y-105425899D01*
X139054956Y-106049093D01*
X139054962Y-106049103D01*
X139054964Y-106049107D01*
X139411359Y-106653284D01*
X139411364Y-106653292D01*
X139411365Y-106653293D01*
X139801072Y-107236530D01*
X140222858Y-107796985D01*
X140222876Y-107797009D01*
X140598144Y-108241415D01*
X140675432Y-108332943D01*
X141157333Y-108842667D01*
X141665711Y-109323295D01*
X141667055Y-109324566D01*
X142202990Y-109777123D01*
X142202996Y-109777127D01*
X142202999Y-109777130D01*
X142763473Y-110198930D01*
X143346716Y-110588641D01*
X143950893Y-110945036D01*
X143950902Y-110945040D01*
X143950906Y-110945043D01*
X144574100Y-111266992D01*
X145214353Y-111553488D01*
X145214359Y-111553490D01*
X145214383Y-111553501D01*
X145869722Y-111803657D01*
X146538056Y-112016674D01*
X147217282Y-112191882D01*
X147905264Y-112328730D01*
X148599837Y-112426788D01*
X149298816Y-112485746D01*
X149939027Y-112503708D01*
X149999998Y-112505419D01*
X150000000Y-112505419D01*
X150000002Y-112505419D01*
X150058432Y-112503779D01*
X150701184Y-112485746D01*
X151400163Y-112426788D01*
X152094736Y-112328730D01*
X152782718Y-112191882D01*
X153461944Y-112016674D01*
X154130278Y-111803657D01*
X154606038Y-111622050D01*
X157657100Y-111622050D01*
X157675918Y-111825133D01*
X157731733Y-112021300D01*
X157822642Y-112203871D01*
X157945551Y-112366629D01*
X158096274Y-112504031D01*
X158269678Y-112611398D01*
X158459859Y-112685074D01*
X158660339Y-112722550D01*
X158864291Y-112722550D01*
X159064771Y-112685074D01*
X159254952Y-112611398D01*
X159428356Y-112504031D01*
X159579079Y-112366629D01*
X159701988Y-112203871D01*
X159792897Y-112021300D01*
X159848712Y-111825133D01*
X159867530Y-111622050D01*
X159848712Y-111418967D01*
X159792897Y-111222800D01*
X159701988Y-111040229D01*
X159579079Y-110877471D01*
X159428356Y-110740069D01*
X159254952Y-110632702D01*
X159064771Y-110559026D01*
X159064770Y-110559025D01*
X159064768Y-110559025D01*
X158864291Y-110521550D01*
X158660339Y-110521550D01*
X158459861Y-110559025D01*
X158396351Y-110583629D01*
X158269678Y-110632702D01*
X158096273Y-110740068D01*
X158096274Y-110740069D01*
X157945552Y-110877470D01*
X157822643Y-111040227D01*
X157822638Y-111040236D01*
X157731734Y-111222797D01*
X157675918Y-111418967D01*
X157666036Y-111525618D01*
X157657100Y-111622050D01*
X154606038Y-111622050D01*
X154785617Y-111553501D01*
X155425898Y-111266993D01*
X156049107Y-110945036D01*
X156653284Y-110588641D01*
X157236527Y-110198930D01*
X157706621Y-109845148D01*
X159174707Y-109845148D01*
X159186153Y-109924086D01*
X159216642Y-109975332D01*
X159216644Y-109975334D01*
X159808541Y-110632702D01*
X160447504Y-111342342D01*
X160495281Y-111378020D01*
X160572591Y-111397653D01*
X160572591Y-111397652D01*
X160572592Y-111397653D01*
X160572593Y-111397653D01*
X160592584Y-111394754D01*
X160651530Y-111386208D01*
X160702775Y-111355720D01*
X162069787Y-110124857D01*
X162105465Y-110077080D01*
X162125098Y-109999770D01*
X162113653Y-109920831D01*
X162083165Y-109869586D01*
X162083164Y-109869585D01*
X162083163Y-109869583D01*
X162083161Y-109869581D01*
X161399964Y-109110814D01*
X160852302Y-108502574D01*
X160804525Y-108466896D01*
X160804524Y-108466895D01*
X160727213Y-108447262D01*
X160727212Y-108447262D01*
X160648274Y-108458708D01*
X160597028Y-108489197D01*
X160597026Y-108489199D01*
X159230025Y-109720053D01*
X159230017Y-109720061D01*
X159194340Y-109767836D01*
X159174707Y-109845147D01*
X159174707Y-109845148D01*
X157706621Y-109845148D01*
X157797001Y-109777130D01*
X158332943Y-109324568D01*
X158842667Y-108842667D01*
X159324568Y-108332943D01*
X159777130Y-107797001D01*
X160198930Y-107236527D01*
X160321348Y-107053316D01*
X161626672Y-107053316D01*
X161645490Y-107256399D01*
X161701305Y-107452566D01*
X161792214Y-107635137D01*
X161915123Y-107797895D01*
X162065846Y-107935297D01*
X162239250Y-108042664D01*
X162429431Y-108116340D01*
X162629911Y-108153816D01*
X162833863Y-108153816D01*
X163034343Y-108116340D01*
X163224524Y-108042664D01*
X163397928Y-107935297D01*
X163548651Y-107797895D01*
X163671560Y-107635137D01*
X163762469Y-107452566D01*
X163818284Y-107256399D01*
X163837102Y-107053316D01*
X163818284Y-106850233D01*
X163762469Y-106654066D01*
X163671560Y-106471495D01*
X163548651Y-106308737D01*
X163397928Y-106171335D01*
X163224524Y-106063968D01*
X163034343Y-105990292D01*
X163034342Y-105990291D01*
X163034340Y-105990291D01*
X162833863Y-105952816D01*
X162629911Y-105952816D01*
X162429433Y-105990291D01*
X162359519Y-106017375D01*
X162239250Y-106063968D01*
X162139837Y-106125522D01*
X162065846Y-106171335D01*
X161915124Y-106308736D01*
X161792215Y-106471493D01*
X161792210Y-106471502D01*
X161701306Y-106654063D01*
X161701305Y-106654066D01*
X161645490Y-106850233D01*
X161626672Y-107053316D01*
X160321348Y-107053316D01*
X160588641Y-106653284D01*
X160945036Y-106049107D01*
X161266993Y-105425898D01*
X161375376Y-105183687D01*
X162372386Y-105183687D01*
X162385894Y-105262298D01*
X162428456Y-105329758D01*
X162452805Y-105346965D01*
X162477153Y-105364173D01*
X162477154Y-105364173D01*
X162477155Y-105364174D01*
X162535871Y-105390316D01*
X164157616Y-106112363D01*
X164215774Y-106125523D01*
X164294386Y-106112014D01*
X164361845Y-106069452D01*
X164396260Y-106020756D01*
X165144450Y-104340293D01*
X165157610Y-104282135D01*
X165144101Y-104203523D01*
X165144100Y-104203522D01*
X165101539Y-104136063D01*
X165067086Y-104111715D01*
X165052843Y-104101649D01*
X165052841Y-104101648D01*
X165052840Y-104101647D01*
X163424432Y-103376634D01*
X163372380Y-103353459D01*
X163314222Y-103340299D01*
X163314221Y-103340299D01*
X163235610Y-103353807D01*
X163168150Y-103396369D01*
X163133735Y-103445067D01*
X163133734Y-103445068D01*
X162385547Y-105125526D01*
X162372386Y-105183687D01*
X161375376Y-105183687D01*
X161553501Y-104785617D01*
X161803657Y-104130278D01*
X162016674Y-103461944D01*
X162191882Y-102782718D01*
X162328730Y-102094736D01*
X162426788Y-101400163D01*
X162438189Y-101265000D01*
X163394785Y-101265000D01*
X163413603Y-101468083D01*
X163469418Y-101664250D01*
X163560327Y-101846821D01*
X163683236Y-102009579D01*
X163833959Y-102146981D01*
X164007363Y-102254348D01*
X164197544Y-102328024D01*
X164398024Y-102365500D01*
X164601976Y-102365500D01*
X164802456Y-102328024D01*
X164992637Y-102254348D01*
X165166041Y-102146981D01*
X165316764Y-102009579D01*
X165439673Y-101846821D01*
X165530582Y-101664250D01*
X165586397Y-101468083D01*
X165605215Y-101265000D01*
X165586397Y-101061917D01*
X165530582Y-100865750D01*
X165439673Y-100683179D01*
X165316764Y-100520421D01*
X165166041Y-100383019D01*
X164992637Y-100275652D01*
X164802456Y-100201976D01*
X164802455Y-100201975D01*
X164802453Y-100201975D01*
X164601976Y-100164500D01*
X164398024Y-100164500D01*
X164197546Y-100201975D01*
X164127632Y-100229059D01*
X164007363Y-100275652D01*
X163833959Y-100383018D01*
X163833959Y-100383019D01*
X163683237Y-100520420D01*
X163560328Y-100683177D01*
X163560323Y-100683186D01*
X163544811Y-100714339D01*
X163469418Y-100865750D01*
X163413603Y-101061917D01*
X163394785Y-101265000D01*
X162438189Y-101265000D01*
X162485746Y-100701184D01*
X162503779Y-100058431D01*
X162505419Y-100000002D01*
X162505419Y-99999997D01*
X162498953Y-99769548D01*
X162495452Y-99644746D01*
X163399500Y-99644746D01*
X163399501Y-99644758D01*
X163411132Y-99703227D01*
X163411133Y-99703231D01*
X163455448Y-99769552D01*
X163521769Y-99813867D01*
X163566231Y-99822711D01*
X163580241Y-99825498D01*
X163580246Y-99825498D01*
X163580252Y-99825500D01*
X163580253Y-99825500D01*
X165419747Y-99825500D01*
X165419748Y-99825500D01*
X165478231Y-99813867D01*
X165544552Y-99769552D01*
X165588867Y-99703231D01*
X165600500Y-99644748D01*
X165600500Y-97805252D01*
X165588867Y-97746769D01*
X165544552Y-97680448D01*
X165544548Y-97680445D01*
X165478233Y-97636134D01*
X165478231Y-97636133D01*
X165478228Y-97636132D01*
X165478227Y-97636132D01*
X165419758Y-97624501D01*
X165419748Y-97624500D01*
X163580252Y-97624500D01*
X163580251Y-97624500D01*
X163580241Y-97624501D01*
X163521772Y-97636132D01*
X163521766Y-97636134D01*
X163455451Y-97680445D01*
X163455445Y-97680451D01*
X163411134Y-97746766D01*
X163411132Y-97746772D01*
X163399501Y-97805241D01*
X163399500Y-97805253D01*
X163399500Y-99644746D01*
X162495452Y-99644746D01*
X162485746Y-99298816D01*
X162426788Y-98599837D01*
X162328730Y-97905264D01*
X162191882Y-97217282D01*
X162016674Y-96538056D01*
X161803657Y-95869722D01*
X161570133Y-95257953D01*
X162655716Y-95257953D01*
X162674534Y-95461036D01*
X162730349Y-95657203D01*
X162821258Y-95839774D01*
X162944167Y-96002532D01*
X163094890Y-96139934D01*
X163268294Y-96247301D01*
X163458475Y-96320977D01*
X163658955Y-96358453D01*
X163862907Y-96358453D01*
X164063387Y-96320977D01*
X164253568Y-96247301D01*
X164426972Y-96139934D01*
X164577695Y-96002532D01*
X164700604Y-95839774D01*
X164791513Y-95657203D01*
X164847328Y-95461036D01*
X164866146Y-95257953D01*
X164847328Y-95054870D01*
X164791513Y-94858703D01*
X164700604Y-94676132D01*
X164577695Y-94513374D01*
X164426972Y-94375972D01*
X164253568Y-94268605D01*
X164063387Y-94194929D01*
X164063386Y-94194928D01*
X164063384Y-94194928D01*
X163862907Y-94157453D01*
X163658955Y-94157453D01*
X163458477Y-94194928D01*
X163388563Y-94222012D01*
X163268294Y-94268605D01*
X163168881Y-94330159D01*
X163094890Y-94375972D01*
X162944168Y-94513373D01*
X162821259Y-94676130D01*
X162821254Y-94676139D01*
X162730350Y-94858700D01*
X162730349Y-94858703D01*
X162674534Y-95054870D01*
X162655716Y-95257953D01*
X161570133Y-95257953D01*
X161553501Y-95214383D01*
X161551847Y-95210687D01*
X161266992Y-94574100D01*
X160945043Y-93950906D01*
X160945040Y-93950902D01*
X160945036Y-93950893D01*
X160588641Y-93346716D01*
X160198930Y-92763473D01*
X159990691Y-92486772D01*
X161335208Y-92486772D01*
X161348368Y-92544930D01*
X161348369Y-92544932D01*
X162096556Y-94225390D01*
X162096557Y-94225391D01*
X162130972Y-94274089D01*
X162198432Y-94316651D01*
X162277044Y-94330160D01*
X162335202Y-94317000D01*
X164015665Y-93568810D01*
X164064361Y-93534395D01*
X164106923Y-93466936D01*
X164120432Y-93388324D01*
X164107272Y-93330166D01*
X163407290Y-91757979D01*
X163359083Y-91649705D01*
X163359082Y-91649704D01*
X163359082Y-91649703D01*
X163341874Y-91625354D01*
X163324667Y-91601006D01*
X163257207Y-91558444D01*
X163178596Y-91544936D01*
X163120438Y-91558096D01*
X163120436Y-91558096D01*
X163120435Y-91558097D01*
X161439977Y-92306284D01*
X161439976Y-92306285D01*
X161391278Y-92340700D01*
X161348716Y-92408160D01*
X161335208Y-92486771D01*
X161335208Y-92486772D01*
X159990691Y-92486772D01*
X159777130Y-92202999D01*
X159777127Y-92202996D01*
X159777123Y-92202990D01*
X159324566Y-91667055D01*
X159262122Y-91601006D01*
X158842667Y-91157333D01*
X158332943Y-90675432D01*
X158241415Y-90598144D01*
X157797009Y-90222876D01*
X157796985Y-90222858D01*
X157595003Y-90070851D01*
X159537257Y-90070851D01*
X159556075Y-90273934D01*
X159611890Y-90470101D01*
X159702799Y-90652672D01*
X159825708Y-90815430D01*
X159976431Y-90952832D01*
X160149835Y-91060199D01*
X160340016Y-91133875D01*
X160540496Y-91171351D01*
X160744448Y-91171351D01*
X160944928Y-91133875D01*
X161135109Y-91060199D01*
X161308513Y-90952832D01*
X161459236Y-90815430D01*
X161582145Y-90652672D01*
X161673054Y-90470101D01*
X161728869Y-90273934D01*
X161747687Y-90070851D01*
X161728869Y-89867768D01*
X161673054Y-89671601D01*
X161582145Y-89489030D01*
X161459236Y-89326272D01*
X161308513Y-89188870D01*
X161135109Y-89081503D01*
X160944928Y-89007827D01*
X160944927Y-89007826D01*
X160944925Y-89007826D01*
X160744448Y-88970351D01*
X160540496Y-88970351D01*
X160340018Y-89007826D01*
X160270104Y-89034910D01*
X160149835Y-89081503D01*
X160002253Y-89172882D01*
X159976431Y-89188870D01*
X159825709Y-89326271D01*
X159702800Y-89489028D01*
X159702795Y-89489037D01*
X159611891Y-89671598D01*
X159611890Y-89671601D01*
X159556075Y-89867768D01*
X159537257Y-90070851D01*
X157595003Y-90070851D01*
X157236530Y-89801072D01*
X156653293Y-89411365D01*
X156653292Y-89411364D01*
X156653284Y-89411359D01*
X156049107Y-89054964D01*
X156049103Y-89054962D01*
X156049093Y-89054956D01*
X155425899Y-88733007D01*
X154790245Y-88448569D01*
X157279688Y-88448569D01*
X157299321Y-88525880D01*
X157299322Y-88525881D01*
X157335000Y-88573658D01*
X157817194Y-89007827D01*
X158702007Y-89804517D01*
X158702009Y-89804519D01*
X158702011Y-89804520D01*
X158702012Y-89804521D01*
X158753257Y-89835009D01*
X158802206Y-89842105D01*
X158832193Y-89846454D01*
X158832194Y-89846454D01*
X158832194Y-89846453D01*
X158832196Y-89846454D01*
X158909506Y-89826821D01*
X158957283Y-89791143D01*
X160188146Y-88424131D01*
X160218634Y-88372886D01*
X160230079Y-88293947D01*
X160210446Y-88216637D01*
X160174768Y-88168860D01*
X159651602Y-87697799D01*
X158807760Y-86938000D01*
X158807758Y-86937998D01*
X158756512Y-86907509D01*
X158677574Y-86896063D01*
X158677573Y-86896063D01*
X158600262Y-86915696D01*
X158552487Y-86951373D01*
X158552479Y-86951381D01*
X157321625Y-88318382D01*
X157321623Y-88318384D01*
X157291134Y-88369630D01*
X157279688Y-88448568D01*
X157279688Y-88448569D01*
X154790245Y-88448569D01*
X154785646Y-88446511D01*
X154785631Y-88446505D01*
X154785617Y-88446499D01*
X154130278Y-88196343D01*
X153461944Y-87983326D01*
X153461940Y-87983325D01*
X153461937Y-87983324D01*
X152782720Y-87808118D01*
X152094735Y-87671269D01*
X151400165Y-87573212D01*
X151120571Y-87549628D01*
X150701184Y-87514254D01*
X150701177Y-87514253D01*
X150701162Y-87514253D01*
X150000002Y-87494581D01*
X149999998Y-87494581D01*
X149298837Y-87514253D01*
X149298820Y-87514253D01*
X149298816Y-87514254D01*
X149019224Y-87537837D01*
X148599834Y-87573212D01*
X147905264Y-87671269D01*
X147217280Y-87808118D01*
X147217279Y-87808118D01*
X146538062Y-87983324D01*
X145869724Y-88196342D01*
X145816557Y-88216637D01*
X145214383Y-88446499D01*
X145214374Y-88446502D01*
X145214353Y-88446511D01*
X144574100Y-88733007D01*
X143950906Y-89054956D01*
X143346706Y-89411365D01*
X142763469Y-89801072D01*
X142203014Y-90222858D01*
X142202990Y-90222876D01*
X141667055Y-90675433D01*
X141157349Y-91157317D01*
X141157317Y-91157349D01*
X140675433Y-91667055D01*
X140222876Y-92202990D01*
X140222858Y-92203014D01*
X139801072Y-92763469D01*
X139411365Y-93346706D01*
X139411359Y-93346714D01*
X139411359Y-93346716D01*
X139386815Y-93388324D01*
X139054956Y-93950906D01*
X138733007Y-94574100D01*
X138446511Y-95214353D01*
X138446502Y-95214374D01*
X138446499Y-95214383D01*
X138352347Y-95461035D01*
X138196342Y-95869724D01*
X137983324Y-96538062D01*
X137808118Y-97217279D01*
X137808118Y-97217280D01*
X137671269Y-97905264D01*
X137573212Y-98599834D01*
X137542589Y-98962885D01*
X137523238Y-99192312D01*
X137514254Y-99298818D01*
X137514253Y-99298837D01*
X137494581Y-99999997D01*
X137494581Y-100000002D01*
X133000507Y-100000002D01*
X133000514Y-99999411D01*
X133004931Y-99813865D01*
X133019727Y-99192274D01*
X133019836Y-99189993D01*
X133036079Y-98962886D01*
X134283314Y-98962886D01*
X134312869Y-99036967D01*
X134312870Y-99036968D01*
X134312871Y-99036970D01*
X134368530Y-99094106D01*
X134423316Y-99117644D01*
X136222614Y-99500097D01*
X136282238Y-99500877D01*
X136356323Y-99471320D01*
X136413459Y-99415661D01*
X136436997Y-99360875D01*
X136819450Y-97561577D01*
X136820230Y-97501953D01*
X136790673Y-97427868D01*
X136735014Y-97370732D01*
X136735010Y-97370730D01*
X136680230Y-97347195D01*
X136680228Y-97347194D01*
X135167404Y-97025633D01*
X134880931Y-96964741D01*
X134861055Y-96964481D01*
X134821306Y-96963961D01*
X134821305Y-96963961D01*
X134821304Y-96963961D01*
X134747223Y-96993516D01*
X134747222Y-96993517D01*
X134747220Y-96993518D01*
X134747221Y-96993518D01*
X134690085Y-97049177D01*
X134690084Y-97049178D01*
X134690084Y-97049179D01*
X134690083Y-97049180D01*
X134666548Y-97103960D01*
X134666547Y-97103963D01*
X134522907Y-97779734D01*
X134284094Y-98903259D01*
X134283314Y-98962886D01*
X133036079Y-98962886D01*
X133072064Y-98459756D01*
X133072074Y-98459756D01*
X133072070Y-98459661D01*
X133077608Y-98383401D01*
X133077824Y-98381172D01*
X133150079Y-97776851D01*
X133150103Y-97776853D01*
X133150100Y-97776681D01*
X133174709Y-97574007D01*
X133175029Y-97571802D01*
X133176749Y-97561578D01*
X133266900Y-97025468D01*
X133272357Y-96993517D01*
X133310495Y-96770220D01*
X133310917Y-96768049D01*
X133360947Y-96538062D01*
X133422314Y-96255966D01*
X133484662Y-95973839D01*
X133485177Y-95971733D01*
X133545146Y-95747924D01*
X134974653Y-95747924D01*
X134993471Y-95951007D01*
X135049286Y-96147174D01*
X135140195Y-96329745D01*
X135263104Y-96492503D01*
X135413827Y-96629905D01*
X135587231Y-96737272D01*
X135777412Y-96810948D01*
X135977892Y-96848424D01*
X136181844Y-96848424D01*
X136382324Y-96810948D01*
X136572505Y-96737272D01*
X136745909Y-96629905D01*
X136896632Y-96492503D01*
X137019541Y-96329745D01*
X137110450Y-96147174D01*
X137166265Y-95951007D01*
X137185083Y-95747924D01*
X137166265Y-95544841D01*
X137110450Y-95348674D01*
X137019541Y-95166103D01*
X136896632Y-95003345D01*
X136745909Y-94865943D01*
X136572505Y-94758576D01*
X136382324Y-94684900D01*
X136382323Y-94684899D01*
X136382321Y-94684899D01*
X136181844Y-94647424D01*
X135977892Y-94647424D01*
X135777414Y-94684899D01*
X135707500Y-94711983D01*
X135587231Y-94758576D01*
X135425525Y-94858700D01*
X135413827Y-94865943D01*
X135263105Y-95003344D01*
X135140196Y-95166101D01*
X135140191Y-95166110D01*
X135094459Y-95257953D01*
X135049286Y-95348674D01*
X134993471Y-95544841D01*
X134974653Y-95747924D01*
X133545146Y-95747924D01*
X133615822Y-95484158D01*
X133696800Y-95186743D01*
X133697398Y-95184723D01*
X133847009Y-94716701D01*
X133946411Y-94410772D01*
X133947092Y-94408816D01*
X134115482Y-93957343D01*
X134232960Y-93647583D01*
X134233708Y-93645728D01*
X134420467Y-93209608D01*
X134555755Y-92899037D01*
X134556527Y-92897357D01*
X134633112Y-92739701D01*
X136060794Y-92739701D01*
X136070828Y-92766898D01*
X136088402Y-92814533D01*
X136128878Y-92858320D01*
X137617061Y-93939549D01*
X137617064Y-93939550D01*
X137617065Y-93939551D01*
X137671210Y-93964512D01*
X137671213Y-93964513D01*
X137750915Y-93967644D01*
X137825749Y-93940036D01*
X137869536Y-93899560D01*
X138950765Y-92411377D01*
X138975729Y-92357225D01*
X138978860Y-92277523D01*
X138951252Y-92202689D01*
X138910776Y-92158902D01*
X137422593Y-91077673D01*
X137422590Y-91077671D01*
X137422588Y-91077670D01*
X137368443Y-91052709D01*
X137328590Y-91051143D01*
X137288739Y-91049578D01*
X137288738Y-91049578D01*
X137288737Y-91049578D01*
X137288736Y-91049578D01*
X137213904Y-91077186D01*
X137170120Y-91117659D01*
X136088886Y-92605849D01*
X136063925Y-92659994D01*
X136060794Y-92739700D01*
X136060794Y-92739701D01*
X134633112Y-92739701D01*
X134761331Y-92475751D01*
X134914039Y-92166876D01*
X134914901Y-92165217D01*
X135137324Y-91757879D01*
X135307021Y-91452706D01*
X135307927Y-91451151D01*
X135547530Y-91058059D01*
X135733741Y-90758272D01*
X135734758Y-90756707D01*
X135786779Y-90679846D01*
X135939833Y-90453708D01*
X137907587Y-90453708D01*
X137926405Y-90656791D01*
X137982220Y-90852958D01*
X138073129Y-91035529D01*
X138196038Y-91198287D01*
X138346761Y-91335689D01*
X138520165Y-91443056D01*
X138710346Y-91516732D01*
X138910826Y-91554208D01*
X139114778Y-91554208D01*
X139315258Y-91516732D01*
X139505439Y-91443056D01*
X139678843Y-91335689D01*
X139829566Y-91198287D01*
X139952475Y-91035529D01*
X140043384Y-90852958D01*
X140099199Y-90656791D01*
X140118017Y-90453708D01*
X140099199Y-90250625D01*
X140043384Y-90054458D01*
X139952475Y-89871887D01*
X139829566Y-89709129D01*
X139678843Y-89571727D01*
X139505439Y-89464360D01*
X139315258Y-89390684D01*
X139315257Y-89390683D01*
X139315255Y-89390683D01*
X139114778Y-89353208D01*
X138910826Y-89353208D01*
X138710348Y-89390683D01*
X138656977Y-89411359D01*
X138520165Y-89464360D01*
X138442846Y-89512234D01*
X138346761Y-89571727D01*
X138196039Y-89709128D01*
X138073130Y-89871885D01*
X138073125Y-89871894D01*
X137982221Y-90054455D01*
X137982220Y-90054458D01*
X137926405Y-90250625D01*
X137907587Y-90453708D01*
X135939833Y-90453708D01*
X135990994Y-90378117D01*
X136193307Y-90085019D01*
X136194274Y-90083674D01*
X136466664Y-89719802D01*
X136684614Y-89434578D01*
X136685602Y-89433334D01*
X136973579Y-89084555D01*
X137206442Y-88808550D01*
X137207533Y-88807304D01*
X137510408Y-88474130D01*
X137556907Y-88424133D01*
X137757722Y-88208204D01*
X137758886Y-88206998D01*
X138076088Y-87889796D01*
X138191240Y-87777394D01*
X140213716Y-87777394D01*
X140232880Y-87833851D01*
X140232882Y-87833855D01*
X140232883Y-87833857D01*
X141152631Y-89426907D01*
X141191947Y-89471738D01*
X141191949Y-89471739D01*
X141191948Y-89471739D01*
X141263483Y-89507016D01*
X141263485Y-89507017D01*
X141343079Y-89512234D01*
X141399543Y-89493067D01*
X142992593Y-88573319D01*
X143037424Y-88534003D01*
X143072703Y-88462465D01*
X143077920Y-88382871D01*
X143058753Y-88326407D01*
X142183331Y-86810132D01*
X142740308Y-86810132D01*
X142759126Y-87013215D01*
X142814941Y-87209382D01*
X142905850Y-87391953D01*
X143028759Y-87554711D01*
X143179482Y-87692113D01*
X143352886Y-87799480D01*
X143543067Y-87873156D01*
X143743547Y-87910632D01*
X143947499Y-87910632D01*
X144147979Y-87873156D01*
X144338160Y-87799480D01*
X144511564Y-87692113D01*
X144662287Y-87554711D01*
X144785196Y-87391953D01*
X144876105Y-87209382D01*
X144931920Y-87013215D01*
X144950738Y-86810132D01*
X144931920Y-86607049D01*
X144876105Y-86410882D01*
X144785196Y-86228311D01*
X144662287Y-86065553D01*
X144511564Y-85928151D01*
X144338160Y-85820784D01*
X144147979Y-85747108D01*
X144147978Y-85747107D01*
X144147976Y-85747107D01*
X143947499Y-85709632D01*
X143743547Y-85709632D01*
X143543069Y-85747107D01*
X143473155Y-85774191D01*
X143352886Y-85820784D01*
X143197395Y-85917060D01*
X143179482Y-85928151D01*
X143028760Y-86065552D01*
X142905851Y-86228309D01*
X142905846Y-86228318D01*
X142814942Y-86410879D01*
X142814941Y-86410882D01*
X142759126Y-86607049D01*
X142740308Y-86810132D01*
X142183331Y-86810132D01*
X142139005Y-86733357D01*
X142099689Y-86688526D01*
X142099686Y-86688524D01*
X142099687Y-86688524D01*
X142028152Y-86653247D01*
X142028153Y-86653247D01*
X141948559Y-86648030D01*
X141948555Y-86648030D01*
X141892098Y-86667194D01*
X140299042Y-87586945D01*
X140254210Y-87626263D01*
X140218933Y-87697797D01*
X140213716Y-87777390D01*
X140213716Y-87777394D01*
X138191240Y-87777394D01*
X138337140Y-87634979D01*
X138338281Y-87633903D01*
X138669201Y-87333077D01*
X138943333Y-87090218D01*
X138944533Y-87089191D01*
X139288423Y-86805251D01*
X139574952Y-86575130D01*
X139576141Y-86574207D01*
X139932325Y-86307571D01*
X140230466Y-86090960D01*
X140231749Y-86090059D01*
X140599376Y-85841242D01*
X140908617Y-85638644D01*
X140909739Y-85637935D01*
X141288125Y-85407297D01*
X141607422Y-85219507D01*
X141608703Y-85218780D01*
X141996910Y-85006803D01*
X142175581Y-84913030D01*
X146025711Y-84913030D01*
X146217035Y-86733357D01*
X146217990Y-86742447D01*
X146217991Y-86742453D01*
X146235673Y-86799397D01*
X146286676Y-86860719D01*
X146286677Y-86860721D01*
X146357265Y-86897860D01*
X146357267Y-86897861D01*
X146416646Y-86903317D01*
X148246065Y-86711038D01*
X148303012Y-86693355D01*
X148364337Y-86642350D01*
X148401477Y-86571761D01*
X148406933Y-86512382D01*
X148294979Y-85447204D01*
X148637193Y-85447204D01*
X148656011Y-85650287D01*
X148711826Y-85846454D01*
X148802735Y-86029025D01*
X148925644Y-86191783D01*
X149076367Y-86329185D01*
X149249771Y-86436552D01*
X149439952Y-86510228D01*
X149640432Y-86547704D01*
X149844384Y-86547704D01*
X150044864Y-86510228D01*
X150235045Y-86436552D01*
X150278640Y-86409559D01*
X151930285Y-86409559D01*
X151951937Y-86486328D01*
X151951938Y-86486331D01*
X152001317Y-86548967D01*
X152001318Y-86548968D01*
X152053343Y-86578104D01*
X153802808Y-87146539D01*
X153862024Y-87153548D01*
X153938793Y-87131896D01*
X154001433Y-87082515D01*
X154030569Y-87030490D01*
X154170253Y-86600587D01*
X154578618Y-86600587D01*
X154597436Y-86803670D01*
X154639462Y-86951375D01*
X154653252Y-86999839D01*
X154694419Y-87082515D01*
X154744160Y-87182408D01*
X154867069Y-87345166D01*
X155017792Y-87482568D01*
X155191196Y-87589935D01*
X155381377Y-87663611D01*
X155581857Y-87701087D01*
X155785809Y-87701087D01*
X155986289Y-87663611D01*
X156176470Y-87589935D01*
X156349874Y-87482568D01*
X156500597Y-87345166D01*
X156623506Y-87182408D01*
X156714415Y-86999837D01*
X156770230Y-86803670D01*
X156789048Y-86600587D01*
X156770230Y-86397504D01*
X156714415Y-86201337D01*
X156623506Y-86018766D01*
X156500597Y-85856008D01*
X156349874Y-85718606D01*
X156176470Y-85611239D01*
X155986289Y-85537563D01*
X155986288Y-85537562D01*
X155986286Y-85537562D01*
X155785809Y-85500087D01*
X155581857Y-85500087D01*
X155381379Y-85537562D01*
X155311465Y-85564646D01*
X155191196Y-85611239D01*
X155049278Y-85699111D01*
X155017792Y-85718606D01*
X154867070Y-85856007D01*
X154744161Y-86018764D01*
X154744156Y-86018773D01*
X154677511Y-86152616D01*
X154653251Y-86201337D01*
X154597436Y-86397504D01*
X154578618Y-86600587D01*
X154170253Y-86600587D01*
X154599004Y-85281025D01*
X154606013Y-85221809D01*
X154584361Y-85145040D01*
X154584359Y-85145038D01*
X154584359Y-85145036D01*
X154534980Y-85082400D01*
X154482955Y-85053264D01*
X154466603Y-85047951D01*
X152733490Y-84484829D01*
X152674274Y-84477820D01*
X152674273Y-84477820D01*
X152597504Y-84499472D01*
X152597501Y-84499473D01*
X152534865Y-84548852D01*
X152505729Y-84600877D01*
X152446534Y-84783061D01*
X151937294Y-86350343D01*
X151937294Y-86350346D01*
X151930285Y-86409559D01*
X150278640Y-86409559D01*
X150408449Y-86329185D01*
X150559172Y-86191783D01*
X150682081Y-86029025D01*
X150772990Y-85846454D01*
X150828805Y-85650287D01*
X150847623Y-85447204D01*
X150828805Y-85244121D01*
X150772990Y-85047954D01*
X150682081Y-84865383D01*
X150559172Y-84702625D01*
X150408449Y-84565223D01*
X150235045Y-84457856D01*
X150044864Y-84384180D01*
X150044863Y-84384179D01*
X150044861Y-84384179D01*
X149844384Y-84346704D01*
X149640432Y-84346704D01*
X149439954Y-84384179D01*
X149370040Y-84411263D01*
X149249771Y-84457856D01*
X149122416Y-84536711D01*
X149076367Y-84565223D01*
X148925645Y-84702624D01*
X148802736Y-84865381D01*
X148802731Y-84865390D01*
X148711827Y-85047951D01*
X148711826Y-85047954D01*
X148663014Y-85219507D01*
X148656011Y-85244121D01*
X148640885Y-85407365D01*
X148637193Y-85447204D01*
X148294979Y-85447204D01*
X148214654Y-84682963D01*
X148196971Y-84626016D01*
X148196970Y-84626015D01*
X148196970Y-84626014D01*
X148145967Y-84564692D01*
X148145966Y-84564690D01*
X148075378Y-84527551D01*
X148015999Y-84522095D01*
X148015998Y-84522095D01*
X146186579Y-84714374D01*
X146186577Y-84714374D01*
X146186574Y-84714375D01*
X146129630Y-84732057D01*
X146068308Y-84783060D01*
X146068306Y-84783061D01*
X146031167Y-84853649D01*
X146031166Y-84853651D01*
X146031167Y-84853651D01*
X146025711Y-84913030D01*
X142175581Y-84913030D01*
X142325620Y-84834284D01*
X142326849Y-84833663D01*
X142724166Y-84640658D01*
X143061391Y-84483960D01*
X143062646Y-84483399D01*
X143468145Y-84309754D01*
X143813153Y-84169283D01*
X143814315Y-84168829D01*
X144227278Y-84014802D01*
X144579034Y-83891036D01*
X144580257Y-83890625D01*
X144999639Y-83756563D01*
X145357429Y-83649797D01*
X145358658Y-83649450D01*
X145783207Y-83535692D01*
X145783897Y-83535515D01*
X146146453Y-83446153D01*
X146147626Y-83445881D01*
X146503638Y-83368435D01*
X146576702Y-83352542D01*
X146577713Y-83352333D01*
X146592270Y-83349483D01*
X146944302Y-83280564D01*
X146945399Y-83280364D01*
X147378366Y-83207557D01*
X147379201Y-83207426D01*
X147749124Y-83153409D01*
X147750243Y-83153260D01*
X148186031Y-83101156D01*
X148186967Y-83101055D01*
X148558979Y-83064983D01*
X148560226Y-83064878D01*
X148997777Y-83033584D01*
X148998819Y-83033520D01*
X149372333Y-83015454D01*
X149373364Y-83015416D01*
X149801879Y-83005216D01*
X149811888Y-83004978D01*
X149813066Y-83004964D01*
X150186934Y-83004964D01*
X150188112Y-83004978D01*
G37*
%TD.AperFunction*%
%TD*%
M02*
