%TF.GenerationSoftware,KiCad,Pcbnew,7.0.5+dfsg-2*%
%TF.CreationDate,2024-02-04T12:59:40+01:00*%
%TF.ProjectId,microscope-lamp-pcb,6d696372-6f73-4636-9f70-652d6c616d70,1*%
%TF.SameCoordinates,Original*%
%TF.FileFunction,Copper,L1,Top*%
%TF.FilePolarity,Positive*%
%FSLAX46Y46*%
G04 Gerber Fmt 4.6, Leading zero omitted, Abs format (unit mm)*
G04 Created by KiCad (PCBNEW 7.0.5+dfsg-2) date 2024-02-04 12:59:40*
%MOMM*%
%LPD*%
G01*
G04 APERTURE LIST*
G04 Aperture macros list*
%AMRoundRect*
0 Rectangle with rounded corners*
0 $1 Rounding radius*
0 $2 $3 $4 $5 $6 $7 $8 $9 X,Y pos of 4 corners*
0 Add a 4 corners polygon primitive as box body*
4,1,4,$2,$3,$4,$5,$6,$7,$8,$9,$2,$3,0*
0 Add four circle primitives for the rounded corners*
1,1,$1+$1,$2,$3*
1,1,$1+$1,$4,$5*
1,1,$1+$1,$6,$7*
1,1,$1+$1,$8,$9*
0 Add four rect primitives between the rounded corners*
20,1,$1+$1,$2,$3,$4,$5,0*
20,1,$1+$1,$4,$5,$6,$7,0*
20,1,$1+$1,$6,$7,$8,$9,0*
20,1,$1+$1,$8,$9,$2,$3,0*%
%AMRotRect*
0 Rectangle, with rotation*
0 The origin of the aperture is its center*
0 $1 length*
0 $2 width*
0 $3 Rotation angle, in degrees counterclockwise*
0 Add horizontal line*
21,1,$1,$2,0,0,$3*%
G04 Aperture macros list end*
%TA.AperFunction,SMDPad,CuDef*%
%ADD10RoundRect,0.225000X0.225000X0.250000X-0.225000X0.250000X-0.225000X-0.250000X0.225000X-0.250000X0*%
%TD*%
%TA.AperFunction,SMDPad,CuDef*%
%ADD11RoundRect,0.225000X-0.225000X-0.250000X0.225000X-0.250000X0.225000X0.250000X-0.225000X0.250000X0*%
%TD*%
%TA.AperFunction,ComponentPad*%
%ADD12C,1.800000*%
%TD*%
%TA.AperFunction,ComponentPad*%
%ADD13RotRect,1.800000X1.800000X246.000000*%
%TD*%
%TA.AperFunction,ComponentPad*%
%ADD14RotRect,1.800000X1.800000X222.000000*%
%TD*%
%TA.AperFunction,ComponentPad*%
%ADD15RotRect,1.800000X1.800000X198.000000*%
%TD*%
%TA.AperFunction,ComponentPad*%
%ADD16RotRect,1.800000X1.800000X174.000000*%
%TD*%
%TA.AperFunction,ComponentPad*%
%ADD17RotRect,1.800000X1.800000X150.000000*%
%TD*%
%TA.AperFunction,ComponentPad*%
%ADD18RotRect,1.800000X1.800000X126.000000*%
%TD*%
%TA.AperFunction,ComponentPad*%
%ADD19RotRect,1.800000X1.800000X102.000000*%
%TD*%
%TA.AperFunction,ComponentPad*%
%ADD20RotRect,1.800000X1.800000X78.000000*%
%TD*%
%TA.AperFunction,ComponentPad*%
%ADD21RotRect,1.800000X1.800000X54.000000*%
%TD*%
%TA.AperFunction,ComponentPad*%
%ADD22RotRect,1.800000X1.800000X30.000000*%
%TD*%
%TA.AperFunction,ComponentPad*%
%ADD23RotRect,1.800000X1.800000X6.000000*%
%TD*%
%TA.AperFunction,ComponentPad*%
%ADD24RotRect,1.800000X1.800000X342.000000*%
%TD*%
%TA.AperFunction,ComponentPad*%
%ADD25RotRect,1.800000X1.800000X318.000000*%
%TD*%
%TA.AperFunction,ComponentPad*%
%ADD26RotRect,1.800000X1.800000X294.000000*%
%TD*%
%TA.AperFunction,SMDPad,CuDef*%
%ADD27RoundRect,0.200000X-0.275000X0.200000X-0.275000X-0.200000X0.275000X-0.200000X0.275000X0.200000X0*%
%TD*%
%TA.AperFunction,SMDPad,CuDef*%
%ADD28RoundRect,0.150000X-0.512500X-0.150000X0.512500X-0.150000X0.512500X0.150000X-0.512500X0.150000X0*%
%TD*%
%TA.AperFunction,SMDPad,CuDef*%
%ADD29RoundRect,0.200000X0.275000X-0.200000X0.275000X0.200000X-0.275000X0.200000X-0.275000X-0.200000X0*%
%TD*%
%TA.AperFunction,SMDPad,CuDef*%
%ADD30R,0.800000X2.700000*%
%TD*%
%TA.AperFunction,SMDPad,CuDef*%
%ADD31R,0.700000X1.200000*%
%TD*%
%TA.AperFunction,SMDPad,CuDef*%
%ADD32R,0.760000X1.200000*%
%TD*%
%TA.AperFunction,SMDPad,CuDef*%
%ADD33R,0.800000X1.200000*%
%TD*%
%TA.AperFunction,SMDPad,CuDef*%
%ADD34R,1.800000X1.350000*%
%TD*%
%TA.AperFunction,SMDPad,CuDef*%
%ADD35R,1.800000X1.500000*%
%TD*%
%TA.AperFunction,SMDPad,CuDef*%
%ADD36RoundRect,0.250000X0.300000X-0.300000X0.300000X0.300000X-0.300000X0.300000X-0.300000X-0.300000X0*%
%TD*%
%TA.AperFunction,ComponentPad*%
%ADD37R,1.800000X1.800000*%
%TD*%
%TA.AperFunction,ViaPad*%
%ADD38C,0.800000*%
%TD*%
%TA.AperFunction,Conductor*%
%ADD39C,0.500000*%
%TD*%
G04 APERTURE END LIST*
D10*
%TO.P,C4,1*%
%TO.N,Net-(U1-EN)*%
X144025000Y-125250000D03*
%TO.P,C4,2*%
%TO.N,GND*%
X142475000Y-125250000D03*
%TD*%
%TO.P,C3,1*%
%TO.N,Net-(U1-EN)*%
X144025000Y-126750000D03*
%TO.P,C3,2*%
%TO.N,GND*%
X142475000Y-126750000D03*
%TD*%
D11*
%TO.P,C2,1*%
%TO.N,Net-(D1-K)*%
X146225000Y-123250000D03*
%TO.P,C2,2*%
%TO.N,GND*%
X147775000Y-123250000D03*
%TD*%
%TO.P,C1,1*%
%TO.N,Net-(D1-K)*%
X146225000Y-124750000D03*
%TO.P,C1,2*%
%TO.N,GND*%
X147775000Y-124750000D03*
%TD*%
D12*
%TO.P,D16,2,A*%
%TO.N,Net-(D15-K)*%
X162731887Y-107053316D03*
D13*
%TO.P,D16,1,K*%
%TO.N,Net-(D16-K)*%
X163764998Y-104732911D03*
%TD*%
D12*
%TO.P,D15,2,A*%
%TO.N,Net-(D14-K)*%
X158762315Y-111622050D03*
D14*
%TO.P,D15,1,K*%
%TO.N,Net-(D15-K)*%
X160649903Y-109922458D03*
%TD*%
D12*
%TO.P,D14,2,A*%
%TO.N,Net-(D13-K)*%
X153277659Y-114181226D03*
D15*
%TO.P,D14,1,K*%
%TO.N,Net-(D14-K)*%
X155693343Y-113396323D03*
%TD*%
D12*
%TO.P,D13,2,A*%
%TO.N,Net-(D12-K)*%
X147226267Y-114288339D03*
D16*
%TO.P,D13,1,K*%
%TO.N,Net-(D13-K)*%
X149752353Y-114553841D03*
%TD*%
D12*
%TO.P,D12,2,A*%
%TO.N,Net-(D1-K)*%
X141654477Y-111924868D03*
D17*
%TO.P,D12,1,K*%
%TO.N,Net-(D12-K)*%
X143854182Y-113194868D03*
%TD*%
D12*
%TO.P,D11,2,A*%
%TO.N,Net-(D10-K)*%
X137525705Y-107499480D03*
D18*
%TO.P,D11,1,K*%
%TO.N,Net-(D11-K)*%
X139018680Y-109554383D03*
%TD*%
D12*
%TO.P,D10,2,A*%
%TO.N,Net-(D10-A)*%
X135553851Y-101777363D03*
D19*
%TO.P,D10,1,K*%
%TO.N,Net-(D10-K)*%
X136081947Y-104261858D03*
%TD*%
D12*
%TO.P,D9,2,A*%
%TO.N,Net-(D8-K)*%
X136079868Y-95747924D03*
D20*
%TO.P,D9,1,K*%
%TO.N,Net-(D10-A)*%
X135551772Y-98232419D03*
%TD*%
D12*
%TO.P,D8,2,A*%
%TO.N,Net-(D7-K)*%
X139012802Y-90453708D03*
D21*
%TO.P,D8,1,K*%
%TO.N,Net-(D8-K)*%
X137519827Y-92508611D03*
%TD*%
D12*
%TO.P,D7,2,A*%
%TO.N,Net-(D1-K)*%
X143845523Y-86810132D03*
D22*
%TO.P,D7,1,K*%
%TO.N,Net-(D7-K)*%
X141645818Y-88080132D03*
%TD*%
D12*
%TO.P,D6,2,A*%
%TO.N,Net-(D5-K)*%
X149742408Y-85447204D03*
D23*
%TO.P,D6,1,K*%
%TO.N,Net-(D6-K)*%
X147216322Y-85712706D03*
%TD*%
D12*
%TO.P,D5,2,A*%
%TO.N,Net-(D4-K)*%
X155683833Y-86600587D03*
D24*
%TO.P,D5,1,K*%
%TO.N,Net-(D5-K)*%
X153268149Y-85815684D03*
%TD*%
D12*
%TO.P,D4,2,A*%
%TO.N,Net-(D3-K)*%
X160642472Y-90070851D03*
D25*
%TO.P,D4,1,K*%
%TO.N,Net-(D4-K)*%
X158754884Y-88371259D03*
%TD*%
D12*
%TO.P,D3,2,A*%
%TO.N,Net-(D2-K)*%
X163760931Y-95257953D03*
D26*
%TO.P,D3,1,K*%
%TO.N,Net-(D3-K)*%
X162727820Y-92937548D03*
%TD*%
D27*
%TO.P,R5,2*%
%TO.N,GND*%
X160500000Y-121325000D03*
%TO.P,R5,1*%
%TO.N,Net-(D16-K)*%
X160500000Y-119675000D03*
%TD*%
D28*
%TO.P,U1,1,SW*%
%TO.N,Net-(D1-A)*%
X142112500Y-121800000D03*
%TO.P,U1,2,GND*%
%TO.N,GND*%
X142112500Y-122750000D03*
%TO.P,U1,3,FB*%
%TO.N,Net-(D6-K)*%
X142112500Y-123700000D03*
%TO.P,U1,4,EN*%
%TO.N,Net-(U1-EN)*%
X144387500Y-123700000D03*
%TO.P,U1,5,OVP*%
%TO.N,Net-(D1-K)*%
X144387500Y-122750000D03*
%TO.P,U1,6,VIN*%
%TO.N,Net-(U1-EN)*%
X144387500Y-121800000D03*
%TD*%
D29*
%TO.P,R4,1*%
%TO.N,Net-(J1-CC1)*%
X154500000Y-121575000D03*
%TO.P,R4,2*%
%TO.N,GND*%
X154500000Y-119925000D03*
%TD*%
%TO.P,R3,1*%
%TO.N,Net-(J1-CC2)*%
X156000000Y-121575000D03*
%TO.P,R3,2*%
%TO.N,GND*%
X156000000Y-119925000D03*
%TD*%
D27*
%TO.P,R2,2*%
%TO.N,GND*%
X140250000Y-120825000D03*
%TO.P,R2,1*%
%TO.N,Net-(D11-K)*%
X140250000Y-119175000D03*
%TD*%
D29*
%TO.P,R1,1*%
%TO.N,Net-(D6-K)*%
X140250000Y-123825000D03*
%TO.P,R1,2*%
%TO.N,GND*%
X140250000Y-122175000D03*
%TD*%
D30*
%TO.P,L1,1,1*%
%TO.N,Net-(U1-EN)*%
X144350000Y-119250000D03*
%TO.P,L1,2,2*%
%TO.N,Net-(D1-A)*%
X142150000Y-119250000D03*
%TD*%
D31*
%TO.P,J1,A5,CC1*%
%TO.N,Net-(J1-CC1)*%
X154750000Y-122967500D03*
D32*
%TO.P,J1,A9,VBUS*%
%TO.N,Net-(U1-EN)*%
X156770000Y-122967500D03*
D33*
%TO.P,J1,A12,GND*%
%TO.N,GND*%
X158000000Y-122967500D03*
D31*
%TO.P,J1,B5,CC2*%
%TO.N,Net-(J1-CC2)*%
X155750000Y-122967500D03*
D32*
%TO.P,J1,B9,VBUS*%
%TO.N,Net-(U1-EN)*%
X153730000Y-122967500D03*
D33*
%TO.P,J1,B12,GND*%
%TO.N,GND*%
X152500000Y-122967500D03*
D34*
%TO.P,J1,S1,SHIELD*%
X150125000Y-123022500D03*
D35*
X160375000Y-126602500D03*
X150125000Y-126602500D03*
D34*
X160375000Y-123022500D03*
%TD*%
D36*
%TO.P,D1,1,K*%
%TO.N,Net-(D1-K)*%
X146500000Y-120900000D03*
%TO.P,D1,2,A*%
%TO.N,Net-(D1-A)*%
X146500000Y-118100000D03*
%TD*%
D12*
%TO.P,D2,2,A*%
%TO.N,Net-(D1-K)*%
X164500000Y-101265000D03*
D37*
%TO.P,D2,1,K*%
%TO.N,Net-(D2-K)*%
X164500000Y-98725000D03*
%TD*%
D38*
%TO.N,GND*%
X155000000Y-84500000D03*
X165750000Y-96500000D03*
X164750000Y-119500000D03*
X159250000Y-116000000D03*
X136500000Y-114250000D03*
X140750000Y-117750000D03*
X148250000Y-127000000D03*
X148250000Y-121000000D03*
X146500000Y-119500000D03*
X143250000Y-119750000D03*
X156500000Y-111250000D03*
X143500000Y-111250000D03*
X163250000Y-90500000D03*
X144750000Y-84500000D03*
X165750000Y-127250000D03*
X134000000Y-127000000D03*
X133750000Y-119250000D03*
X135500000Y-106250000D03*
X163250000Y-102500000D03*
X163250000Y-109000000D03*
X162250000Y-122750000D03*
X155250000Y-118250000D03*
X140750000Y-126000000D03*
X139000000Y-121250000D03*
%TD*%
D39*
%TO.N,Net-(U1-EN)*%
X144025000Y-126750000D02*
X144872500Y-125902500D01*
X144872500Y-125902500D02*
X148275000Y-125902500D01*
X148275000Y-125902500D02*
X149768750Y-124408750D01*
X149768750Y-124408750D02*
X153841250Y-124408750D01*
%TO.N,Net-(J1-CC1)*%
X154750000Y-122967500D02*
X154750000Y-121825000D01*
%TO.N,Net-(J1-CC2)*%
X155750000Y-122967500D02*
X155750000Y-121825000D01*
%TO.N,GND*%
X158000000Y-122967500D02*
X158000000Y-121925000D01*
X152500000Y-122967500D02*
X152500000Y-121925000D01*
X140250000Y-122175000D02*
X140250000Y-120825000D01*
%TO.N,Net-(D1-K)*%
X147500000Y-117250000D02*
X145124291Y-114874291D01*
X145124291Y-114874291D02*
X143124291Y-114874291D01*
X143124291Y-114874291D02*
X141654477Y-113404477D01*
%TO.N,Net-(D11-K)*%
X139018680Y-117943680D02*
X139018680Y-109554383D01*
%TO.N,Net-(D6-K)*%
X134034319Y-117609319D02*
X134034319Y-95715681D01*
%TO.N,GND*%
X148047500Y-123522500D02*
X147775000Y-123250000D01*
%TO.N,Net-(U1-EN)*%
X153730000Y-124297500D02*
X153841250Y-124408750D01*
X153841250Y-124408750D02*
X153950000Y-124517500D01*
%TO.N,Net-(D6-K)*%
X146963748Y-85460132D02*
X142070576Y-85460132D01*
X142070576Y-85460132D02*
X135750000Y-91780708D01*
X135750000Y-91780708D02*
X135750000Y-94000000D01*
X135750000Y-94000000D02*
X134034319Y-95715681D01*
X134034319Y-117609319D02*
X140250000Y-123825000D01*
%TO.N,Net-(D1-K)*%
X141654477Y-111924868D02*
X141654477Y-113404477D01*
X147500000Y-117250000D02*
X147500000Y-119900000D01*
X147500000Y-119900000D02*
X146500000Y-120900000D01*
%TO.N,Net-(D11-K)*%
X139018680Y-117943680D02*
X140250000Y-119175000D01*
%TO.N,Net-(D16-K)*%
X163764998Y-104732911D02*
X164446671Y-105414584D01*
X164446671Y-115728329D02*
X160500000Y-119675000D01*
X164446671Y-105414584D02*
X164446671Y-115728329D01*
%TO.N,Net-(D1-K)*%
X162410931Y-96635931D02*
X163150000Y-97375000D01*
X163150000Y-97375000D02*
X163150000Y-99915000D01*
X144187242Y-87151851D02*
X152256018Y-87151851D01*
X161089566Y-93580072D02*
X162410931Y-94901437D01*
X152256018Y-87151851D02*
X152503917Y-87399750D01*
X161089566Y-92797131D02*
X161089566Y-93580072D01*
X152503917Y-87399750D02*
X154573807Y-87399750D01*
X154573807Y-87399750D02*
X155124644Y-87950587D01*
X155124644Y-87950587D02*
X156243022Y-87950587D01*
X156243022Y-87950587D02*
X161089566Y-92797131D01*
X162410931Y-94901437D02*
X162410931Y-96635931D01*
X163150000Y-99915000D02*
X164500000Y-101265000D01*
X143845523Y-86810132D02*
X143845523Y-88082924D01*
X143845523Y-88082924D02*
X138750000Y-93178447D01*
X137429868Y-97839987D02*
X136961556Y-98308299D01*
X138750000Y-93178447D02*
X138750000Y-93993534D01*
X138750000Y-93993534D02*
X137429868Y-95313666D01*
X136961556Y-98308299D02*
X136961556Y-102744405D01*
X141654477Y-109719063D02*
X141654477Y-111924868D01*
X137429868Y-95313666D02*
X137429868Y-97839987D01*
X136961556Y-102744405D02*
X137599400Y-103382249D01*
X137599400Y-103382249D02*
X137599400Y-105663986D01*
X137599400Y-105663986D02*
X141654477Y-109719063D01*
%TO.N,Net-(D1-A)*%
X142150000Y-118800000D02*
X143500000Y-117450000D01*
X145850000Y-117450000D02*
X146500000Y-118100000D01*
X143500000Y-117450000D02*
X145850000Y-117450000D01*
%TO.N,GND*%
X147775000Y-123250000D02*
X147775000Y-124750000D01*
X156000000Y-119925000D02*
X154500000Y-119925000D01*
X152500000Y-121925000D02*
X154500000Y-119925000D01*
X158000000Y-121925000D02*
X156000000Y-119925000D01*
%TO.N,Net-(U1-EN)*%
X153730000Y-123467500D02*
X153730000Y-124297500D01*
X153950000Y-124517500D02*
X156482500Y-124517500D01*
X156482500Y-124517500D02*
X156770000Y-124230000D01*
X156770000Y-124230000D02*
X156770000Y-123467500D01*
%TO.N,Net-(J1-CC1)*%
X154750000Y-121825000D02*
X154500000Y-121575000D01*
%TO.N,Net-(J1-CC2)*%
X155750000Y-121825000D02*
X156000000Y-121575000D01*
%TO.N,Net-(D6-K)*%
X142112500Y-123700000D02*
X140375000Y-123700000D01*
%TO.N,GND*%
X140250000Y-122175000D02*
X140825000Y-122750000D01*
X140825000Y-122750000D02*
X142112500Y-122750000D01*
X142475000Y-126750000D02*
X142475000Y-125250000D01*
%TO.N,Net-(U1-EN)*%
X144387500Y-123700000D02*
X144387500Y-124887500D01*
X144387500Y-124887500D02*
X144025000Y-125250000D01*
X144025000Y-126750000D02*
X144025000Y-125250000D01*
X144387500Y-123700000D02*
X143826472Y-123700000D01*
X143826472Y-123700000D02*
X143275000Y-123148528D01*
X143275000Y-123148528D02*
X143275000Y-122351472D01*
X143275000Y-122351472D02*
X143826472Y-121800000D01*
X143826472Y-121800000D02*
X144387500Y-121800000D01*
%TO.N,Net-(D1-K)*%
X146225000Y-124750000D02*
X146225000Y-123250000D01*
X145725000Y-122750000D02*
X146500000Y-121975000D01*
X146500000Y-121975000D02*
X146500000Y-120900000D01*
X144387500Y-122750000D02*
X145725000Y-122750000D01*
X145725000Y-122750000D02*
X146225000Y-123250000D01*
%TO.N,Net-(D1-A)*%
X142112500Y-121800000D02*
X142112500Y-119287500D01*
%TO.N,Net-(U1-EN)*%
X144387500Y-121800000D02*
X144387500Y-119287500D01*
%TO.N,Net-(D15-K)*%
X160649903Y-109922458D02*
X162731887Y-107053316D01*
%TO.N,Net-(D14-K)*%
X155693343Y-113396323D02*
X158762315Y-111622050D01*
%TO.N,Net-(D13-K)*%
X149752353Y-114553841D02*
X153277659Y-114181226D01*
%TO.N,Net-(D12-K)*%
X143854182Y-113194868D02*
X147226267Y-114288339D01*
%TO.N,Net-(D10-K)*%
X136081947Y-104261858D02*
X137525705Y-107499480D01*
%TO.N,Net-(D10-A)*%
X135551772Y-98232419D02*
X135553851Y-101777363D01*
%TO.N,Net-(D8-K)*%
X137519827Y-92508611D02*
X136079868Y-95747924D01*
%TO.N,Net-(D7-K)*%
X141645818Y-88080132D02*
X139012802Y-90453708D01*
%TO.N,Net-(D5-K)*%
X153268149Y-85815684D02*
X149742408Y-85447204D01*
%TO.N,Net-(D4-K)*%
X158754884Y-88371259D02*
X155683833Y-86600587D01*
%TO.N,Net-(D3-K)*%
X162727820Y-92937548D02*
X160642472Y-90070851D01*
%TO.N,Net-(D2-K)*%
X164500000Y-98725000D02*
X163760931Y-95257953D01*
%TD*%
%TA.AperFunction,Conductor*%
%TO.N,GND*%
G36*
X150188112Y-83004978D02*
G01*
X150198610Y-83005227D01*
X150626630Y-83015416D01*
X150627672Y-83015454D01*
X151001170Y-83033520D01*
X151002221Y-83033584D01*
X151439772Y-83064878D01*
X151441018Y-83064983D01*
X151633117Y-83083610D01*
X151813012Y-83101053D01*
X151813988Y-83101158D01*
X152249734Y-83153258D01*
X152250895Y-83153412D01*
X152620770Y-83207421D01*
X152621656Y-83207561D01*
X153054574Y-83280360D01*
X153055724Y-83280569D01*
X153249645Y-83318534D01*
X153422285Y-83352333D01*
X153423296Y-83352542D01*
X153745272Y-83422583D01*
X153852339Y-83445874D01*
X153853578Y-83446161D01*
X154216052Y-83535503D01*
X154216847Y-83535707D01*
X154604710Y-83639634D01*
X154641307Y-83649441D01*
X154642606Y-83649808D01*
X155000386Y-83756572D01*
X155419697Y-83890611D01*
X155421007Y-83891051D01*
X155772753Y-84014814D01*
X156185635Y-84168811D01*
X156186894Y-84169303D01*
X156531859Y-84309756D01*
X156937303Y-84483378D01*
X156938633Y-84483972D01*
X157275893Y-84640687D01*
X157673096Y-84833637D01*
X157674430Y-84834311D01*
X157878138Y-84941225D01*
X158003115Y-85006818D01*
X158391254Y-85218758D01*
X158392625Y-85219535D01*
X158711926Y-85407329D01*
X159090198Y-85637898D01*
X159091435Y-85638679D01*
X159400636Y-85841251D01*
X159768183Y-86090014D01*
X159769533Y-86090962D01*
X160067704Y-86307594D01*
X160423799Y-86574163D01*
X160425100Y-86575173D01*
X160711631Y-86805297D01*
X160736676Y-86825976D01*
X160963448Y-87013215D01*
X161055397Y-87089134D01*
X161056706Y-87090254D01*
X161330826Y-87333103D01*
X161661660Y-87633851D01*
X161662915Y-87635033D01*
X161923919Y-87889805D01*
X162241083Y-88206969D01*
X162242329Y-88208260D01*
X162489651Y-88474197D01*
X162792407Y-88807239D01*
X162793610Y-88808613D01*
X163026482Y-89084630D01*
X163314342Y-89433268D01*
X163315435Y-89434643D01*
X163432299Y-89587580D01*
X163533361Y-89719838D01*
X163628145Y-89846454D01*
X163805674Y-90083605D01*
X163806741Y-90085089D01*
X163921002Y-90250625D01*
X164009028Y-90378153D01*
X164265240Y-90756707D01*
X164266296Y-90758334D01*
X164452525Y-91058151D01*
X164692027Y-91451078D01*
X164693022Y-91452785D01*
X164862729Y-91757979D01*
X165085064Y-92165155D01*
X165085992Y-92166940D01*
X165238677Y-92475771D01*
X165365876Y-92737619D01*
X165443434Y-92897279D01*
X165444280Y-92899118D01*
X165555315Y-93154014D01*
X165579533Y-93209608D01*
X165766270Y-93645681D01*
X165767050Y-93647614D01*
X165884575Y-93957500D01*
X166052889Y-94408770D01*
X166053587Y-94410772D01*
X166153030Y-94716826D01*
X166302591Y-95184692D01*
X166303202Y-95186760D01*
X166384233Y-95484369D01*
X166514821Y-95971733D01*
X166515342Y-95973864D01*
X166577684Y-96255963D01*
X166577669Y-96255966D01*
X166577755Y-96256282D01*
X166689082Y-96768049D01*
X166689506Y-96770238D01*
X166733127Y-97025633D01*
X166824969Y-97571802D01*
X166825294Y-97574044D01*
X166849900Y-97776681D01*
X166850263Y-97779718D01*
X166850264Y-97779734D01*
X166922174Y-98381172D01*
X166922395Y-98383463D01*
X166927936Y-98459756D01*
X166928058Y-98461464D01*
X166928059Y-98461489D01*
X166980161Y-99189960D01*
X166980273Y-99192313D01*
X166999486Y-99999412D01*
X166999500Y-100000590D01*
X166999500Y-127900500D01*
X166980593Y-127958691D01*
X166931093Y-127994655D01*
X166900500Y-127999500D01*
X161519811Y-127999500D01*
X161461620Y-127980593D01*
X161425656Y-127931093D01*
X161425656Y-127869907D01*
X161461620Y-127820407D01*
X161485214Y-127807742D01*
X161517090Y-127795852D01*
X161632184Y-127709692D01*
X161632192Y-127709684D01*
X161718352Y-127594590D01*
X161718353Y-127594588D01*
X161768596Y-127459881D01*
X161768598Y-127459870D01*
X161775000Y-127400324D01*
X161775000Y-126852501D01*
X161774999Y-126852500D01*
X158975000Y-126852500D01*
X158975000Y-127400324D01*
X158974999Y-127400324D01*
X158981401Y-127459870D01*
X158981403Y-127459881D01*
X159031646Y-127594588D01*
X159031647Y-127594590D01*
X159117807Y-127709684D01*
X159117815Y-127709692D01*
X159232909Y-127795852D01*
X159264786Y-127807742D01*
X159312700Y-127845793D01*
X159329098Y-127904740D01*
X159307716Y-127962067D01*
X159256722Y-127995878D01*
X159230189Y-127999500D01*
X151269811Y-127999500D01*
X151211620Y-127980593D01*
X151175656Y-127931093D01*
X151175656Y-127869907D01*
X151211620Y-127820407D01*
X151235214Y-127807742D01*
X151267090Y-127795852D01*
X151382184Y-127709692D01*
X151382192Y-127709684D01*
X151468352Y-127594590D01*
X151468353Y-127594588D01*
X151518596Y-127459881D01*
X151518598Y-127459870D01*
X151525000Y-127400324D01*
X151525000Y-126852501D01*
X151524999Y-126852500D01*
X148725001Y-126852500D01*
X148725000Y-126852501D01*
X148725000Y-127400324D01*
X148724999Y-127400324D01*
X148731401Y-127459870D01*
X148731403Y-127459881D01*
X148781646Y-127594588D01*
X148781647Y-127594590D01*
X148867807Y-127709684D01*
X148867815Y-127709692D01*
X148982909Y-127795852D01*
X149014786Y-127807742D01*
X149062700Y-127845793D01*
X149079098Y-127904740D01*
X149057716Y-127962067D01*
X149006722Y-127995878D01*
X148980189Y-127999500D01*
X133099500Y-127999500D01*
X133041309Y-127980593D01*
X133005345Y-127931093D01*
X133000500Y-127900500D01*
X133000500Y-127048322D01*
X141525001Y-127048322D01*
X141535142Y-127147597D01*
X141535145Y-127147609D01*
X141588454Y-127308487D01*
X141677425Y-127452729D01*
X141797270Y-127572574D01*
X141941512Y-127661545D01*
X142102396Y-127714856D01*
X142201676Y-127724999D01*
X142225000Y-127724998D01*
X142225000Y-127000001D01*
X142224999Y-127000000D01*
X141525002Y-127000000D01*
X141525001Y-127000001D01*
X141525001Y-127048322D01*
X133000500Y-127048322D01*
X133000500Y-125250003D01*
X134444532Y-125250003D01*
X134464363Y-125476684D01*
X134464364Y-125476691D01*
X134464365Y-125476692D01*
X134470610Y-125500000D01*
X134523262Y-125696500D01*
X134619426Y-125902723D01*
X134619434Y-125902737D01*
X134749946Y-126089130D01*
X134749947Y-126089132D01*
X134749950Y-126089135D01*
X134749953Y-126089139D01*
X134910861Y-126250047D01*
X134910864Y-126250049D01*
X134910867Y-126250052D01*
X134910869Y-126250053D01*
X135023062Y-126328610D01*
X135097266Y-126380568D01*
X135097272Y-126380571D01*
X135097276Y-126380573D01*
X135303500Y-126476737D01*
X135303504Y-126476739D01*
X135523308Y-126535635D01*
X135523312Y-126535635D01*
X135523315Y-126535636D01*
X135693208Y-126550500D01*
X135693216Y-126550500D01*
X135806792Y-126550500D01*
X135976684Y-126535636D01*
X135976685Y-126535635D01*
X135976692Y-126535635D01*
X136109688Y-126499999D01*
X141525000Y-126499999D01*
X141525001Y-126500000D01*
X142224999Y-126500000D01*
X142225000Y-126499998D01*
X142225000Y-125500000D01*
X141525001Y-125500000D01*
X141525001Y-125548322D01*
X141535142Y-125647597D01*
X141535145Y-125647609D01*
X141588454Y-125808487D01*
X141674525Y-125948026D01*
X141688982Y-126007478D01*
X141674525Y-126051972D01*
X141588454Y-126191512D01*
X141535143Y-126352396D01*
X141525000Y-126451676D01*
X141525000Y-126499999D01*
X136109688Y-126499999D01*
X136196496Y-126476739D01*
X136402734Y-126380568D01*
X136589139Y-126250047D01*
X136750047Y-126089139D01*
X136880568Y-125902734D01*
X136976739Y-125696496D01*
X137035635Y-125476692D01*
X137037234Y-125458424D01*
X137055468Y-125250003D01*
X137055468Y-125249996D01*
X137035636Y-125023315D01*
X137035635Y-125023312D01*
X137035635Y-125023308D01*
X136976739Y-124803504D01*
X136938061Y-124720559D01*
X136880573Y-124597276D01*
X136880571Y-124597272D01*
X136880568Y-124597266D01*
X136789014Y-124466512D01*
X136750053Y-124410869D01*
X136750052Y-124410867D01*
X136750049Y-124410864D01*
X136750047Y-124410861D01*
X136589139Y-124249953D01*
X136589135Y-124249950D01*
X136589132Y-124249947D01*
X136589130Y-124249946D01*
X136402737Y-124119434D01*
X136402736Y-124119433D01*
X136402734Y-124119432D01*
X136402731Y-124119430D01*
X136402723Y-124119426D01*
X136196499Y-124023262D01*
X136196500Y-124023262D01*
X136030288Y-123978726D01*
X135976692Y-123964365D01*
X135976691Y-123964364D01*
X135976684Y-123964363D01*
X135806792Y-123949500D01*
X135806784Y-123949500D01*
X135693216Y-123949500D01*
X135693208Y-123949500D01*
X135523315Y-123964363D01*
X135303499Y-124023262D01*
X135097276Y-124119426D01*
X135097262Y-124119434D01*
X134910869Y-124249946D01*
X134910867Y-124249947D01*
X134749947Y-124410867D01*
X134749946Y-124410869D01*
X134619434Y-124597262D01*
X134619426Y-124597276D01*
X134523262Y-124803499D01*
X134464363Y-125023315D01*
X134444532Y-125249996D01*
X134444532Y-125250003D01*
X133000500Y-125250003D01*
X133000500Y-100000589D01*
X133000514Y-99999411D01*
X133004931Y-99813865D01*
X133019727Y-99192274D01*
X133019836Y-99189993D01*
X133072064Y-98459756D01*
X133072074Y-98459756D01*
X133072070Y-98459661D01*
X133077608Y-98383401D01*
X133077824Y-98381172D01*
X133150079Y-97776851D01*
X133150103Y-97776853D01*
X133150100Y-97776681D01*
X133174709Y-97574007D01*
X133175029Y-97571802D01*
X133176749Y-97561577D01*
X133266900Y-97025468D01*
X133272357Y-96993517D01*
X133310495Y-96770220D01*
X133310917Y-96768049D01*
X133323238Y-96711410D01*
X133388082Y-96413324D01*
X133418926Y-96360485D01*
X133474939Y-96335865D01*
X133534727Y-96348871D01*
X133575451Y-96394535D01*
X133583819Y-96434371D01*
X133583819Y-117581232D01*
X133583508Y-117586778D01*
X133579049Y-117626353D01*
X133579049Y-117626357D01*
X133589935Y-117683892D01*
X133590245Y-117685716D01*
X133598971Y-117743606D01*
X133601159Y-117750700D01*
X133600736Y-117750830D01*
X133601428Y-117752932D01*
X133601845Y-117752787D01*
X133604294Y-117759787D01*
X133631657Y-117811561D01*
X133632491Y-117813213D01*
X133657893Y-117865960D01*
X133662072Y-117872089D01*
X133661708Y-117872336D01*
X133662996Y-117874150D01*
X133663349Y-117873890D01*
X133667753Y-117879857D01*
X133709174Y-117921279D01*
X133710458Y-117922612D01*
X133750263Y-117965513D01*
X133756062Y-117970137D01*
X133755786Y-117970482D01*
X133766919Y-117979023D01*
X139545504Y-123757608D01*
X139573281Y-123812125D01*
X139574500Y-123827612D01*
X139574500Y-124056520D01*
X139574501Y-124056523D01*
X139589352Y-124150299D01*
X139589354Y-124150304D01*
X139646950Y-124263342D01*
X139736658Y-124353050D01*
X139849696Y-124410646D01*
X139943481Y-124425500D01*
X140556518Y-124425499D01*
X140556520Y-124425499D01*
X140556521Y-124425498D01*
X140603411Y-124418072D01*
X140650299Y-124410647D01*
X140650299Y-124410646D01*
X140650304Y-124410646D01*
X140763342Y-124353050D01*
X140853050Y-124263342D01*
X140878012Y-124214352D01*
X140883004Y-124204555D01*
X140926268Y-124161290D01*
X140971213Y-124150500D01*
X141393732Y-124150500D01*
X141437212Y-124160559D01*
X141498607Y-124190573D01*
X141566740Y-124200500D01*
X141566743Y-124200500D01*
X141816089Y-124200500D01*
X141874280Y-124219407D01*
X141910244Y-124268907D01*
X141910244Y-124330093D01*
X141874280Y-124379593D01*
X141868062Y-124383760D01*
X141797270Y-124427425D01*
X141677425Y-124547270D01*
X141588454Y-124691512D01*
X141535143Y-124852396D01*
X141525000Y-124951676D01*
X141525000Y-124999998D01*
X141525001Y-125000000D01*
X142626000Y-125000000D01*
X142684191Y-125018907D01*
X142720155Y-125068407D01*
X142725000Y-125099000D01*
X142725000Y-127724997D01*
X142725001Y-127724999D01*
X142748322Y-127724999D01*
X142847597Y-127714857D01*
X142847609Y-127714854D01*
X143008487Y-127661545D01*
X143152729Y-127572574D01*
X143272571Y-127452732D01*
X143351205Y-127325248D01*
X143397847Y-127285647D01*
X143458857Y-127281024D01*
X143505467Y-127307215D01*
X143546780Y-127348528D01*
X143546782Y-127348529D01*
X143666867Y-127409716D01*
X143666869Y-127409716D01*
X143666874Y-127409719D01*
X143742541Y-127421703D01*
X143766510Y-127425500D01*
X143766512Y-127425500D01*
X144283490Y-127425500D01*
X144304885Y-127422111D01*
X144383126Y-127409719D01*
X144503220Y-127348528D01*
X144598528Y-127253220D01*
X144659719Y-127133126D01*
X144675500Y-127033488D01*
X144675500Y-126777610D01*
X144694407Y-126719420D01*
X144704496Y-126707607D01*
X145030107Y-126381996D01*
X145084624Y-126354219D01*
X145100111Y-126353000D01*
X148246913Y-126353000D01*
X148252459Y-126353311D01*
X148292035Y-126357770D01*
X148349584Y-126346880D01*
X148351400Y-126346572D01*
X148409287Y-126337848D01*
X148409290Y-126337846D01*
X148416381Y-126335659D01*
X148416512Y-126336084D01*
X148418613Y-126335392D01*
X148418467Y-126334973D01*
X148425463Y-126332524D01*
X148425472Y-126332523D01*
X148457109Y-126315801D01*
X148477252Y-126305156D01*
X148478906Y-126304321D01*
X148499056Y-126294616D01*
X148531642Y-126278925D01*
X148531646Y-126278921D01*
X148537778Y-126274742D01*
X148538028Y-126275109D01*
X148539832Y-126273829D01*
X148539568Y-126273471D01*
X148545530Y-126269069D01*
X148545538Y-126269066D01*
X148555995Y-126258608D01*
X148610510Y-126230829D01*
X148670942Y-126240399D01*
X148714208Y-126283662D01*
X148725000Y-126328610D01*
X148725000Y-126352499D01*
X148725001Y-126352500D01*
X149874999Y-126352500D01*
X149875000Y-126352498D01*
X149875000Y-125352501D01*
X149874999Y-125352500D01*
X150375000Y-125352500D01*
X150375000Y-126352499D01*
X150375001Y-126352500D01*
X151524999Y-126352500D01*
X151525000Y-126352499D01*
X158975000Y-126352499D01*
X158975001Y-126352500D01*
X160124999Y-126352500D01*
X160125000Y-126352499D01*
X160125000Y-125352501D01*
X160124999Y-125352500D01*
X160625000Y-125352500D01*
X160625000Y-126352499D01*
X160625001Y-126352500D01*
X161774999Y-126352500D01*
X161775000Y-126352499D01*
X161775000Y-125804675D01*
X161768598Y-125745129D01*
X161768596Y-125745118D01*
X161718353Y-125610411D01*
X161718352Y-125610409D01*
X161632192Y-125495315D01*
X161632184Y-125495307D01*
X161517090Y-125409147D01*
X161517088Y-125409146D01*
X161382381Y-125358903D01*
X161382370Y-125358901D01*
X161322824Y-125352500D01*
X160625000Y-125352500D01*
X160124999Y-125352500D01*
X159427176Y-125352500D01*
X159367629Y-125358901D01*
X159367618Y-125358903D01*
X159232911Y-125409146D01*
X159232909Y-125409147D01*
X159117815Y-125495307D01*
X159117807Y-125495315D01*
X159031647Y-125610409D01*
X159031646Y-125610411D01*
X158981403Y-125745118D01*
X158981401Y-125745129D01*
X158975000Y-125804675D01*
X158975000Y-126352499D01*
X151525000Y-126352499D01*
X151525000Y-125804675D01*
X151518598Y-125745129D01*
X151518596Y-125745118D01*
X151468353Y-125610411D01*
X151468352Y-125610409D01*
X151382192Y-125495315D01*
X151382184Y-125495307D01*
X151267090Y-125409147D01*
X151267088Y-125409146D01*
X151132381Y-125358903D01*
X151132370Y-125358901D01*
X151072824Y-125352500D01*
X150375000Y-125352500D01*
X149874999Y-125352500D01*
X149701111Y-125352500D01*
X149642920Y-125333593D01*
X149606956Y-125284093D01*
X149606956Y-125250003D01*
X162944532Y-125250003D01*
X162964363Y-125476684D01*
X162964364Y-125476691D01*
X162964365Y-125476692D01*
X162970610Y-125500000D01*
X163023262Y-125696500D01*
X163119426Y-125902723D01*
X163119434Y-125902737D01*
X163249946Y-126089130D01*
X163249947Y-126089132D01*
X163249950Y-126089135D01*
X163249953Y-126089139D01*
X163410861Y-126250047D01*
X163410864Y-126250049D01*
X163410867Y-126250052D01*
X163410869Y-126250053D01*
X163523062Y-126328610D01*
X163597266Y-126380568D01*
X163597272Y-126380571D01*
X163597276Y-126380573D01*
X163803500Y-126476737D01*
X163803504Y-126476739D01*
X164023308Y-126535635D01*
X164023312Y-126535635D01*
X164023315Y-126535636D01*
X164193208Y-126550500D01*
X164193216Y-126550500D01*
X164306792Y-126550500D01*
X164476684Y-126535636D01*
X164476685Y-126535635D01*
X164476692Y-126535635D01*
X164696496Y-126476739D01*
X164902734Y-126380568D01*
X165089139Y-126250047D01*
X165250047Y-126089139D01*
X165380568Y-125902734D01*
X165476739Y-125696496D01*
X165535635Y-125476692D01*
X165537234Y-125458424D01*
X165555468Y-125250003D01*
X165555468Y-125249996D01*
X165535636Y-125023315D01*
X165535635Y-125023312D01*
X165535635Y-125023308D01*
X165476739Y-124803504D01*
X165438061Y-124720559D01*
X165380573Y-124597276D01*
X165380571Y-124597272D01*
X165380568Y-124597266D01*
X165289014Y-124466512D01*
X165250053Y-124410869D01*
X165250052Y-124410867D01*
X165250049Y-124410864D01*
X165250047Y-124410861D01*
X165089139Y-124249953D01*
X165089135Y-124249950D01*
X165089132Y-124249947D01*
X165089130Y-124249946D01*
X164902737Y-124119434D01*
X164902736Y-124119433D01*
X164902734Y-124119432D01*
X164902731Y-124119430D01*
X164902723Y-124119426D01*
X164696499Y-124023262D01*
X164696500Y-124023262D01*
X164530288Y-123978726D01*
X164476692Y-123964365D01*
X164476691Y-123964364D01*
X164476684Y-123964363D01*
X164306792Y-123949500D01*
X164306784Y-123949500D01*
X164193216Y-123949500D01*
X164193208Y-123949500D01*
X164023315Y-123964363D01*
X163803499Y-124023262D01*
X163597276Y-124119426D01*
X163597262Y-124119434D01*
X163410869Y-124249946D01*
X163410867Y-124249947D01*
X163249947Y-124410867D01*
X163249946Y-124410869D01*
X163119434Y-124597262D01*
X163119426Y-124597276D01*
X163023262Y-124803499D01*
X162964363Y-125023315D01*
X162944532Y-125249996D01*
X162944532Y-125250003D01*
X149606956Y-125250003D01*
X149606956Y-125222907D01*
X149631107Y-125183496D01*
X149926357Y-124888246D01*
X149980874Y-124860469D01*
X149996361Y-124859250D01*
X153620994Y-124859250D01*
X153676764Y-124876453D01*
X153688509Y-124884461D01*
X153690018Y-124885532D01*
X153701391Y-124893925D01*
X153737118Y-124920293D01*
X153737121Y-124920294D01*
X153743677Y-124923759D01*
X153743469Y-124924151D01*
X153745450Y-124925151D01*
X153745643Y-124924753D01*
X153752327Y-124927972D01*
X153808292Y-124945234D01*
X153810043Y-124945810D01*
X153865301Y-124965146D01*
X153865302Y-124965146D01*
X153872593Y-124966526D01*
X153872510Y-124966960D01*
X153874697Y-124967331D01*
X153874763Y-124966894D01*
X153882096Y-124967999D01*
X153882098Y-124968000D01*
X153940626Y-124968000D01*
X153942477Y-124968035D01*
X153965920Y-124968911D01*
X154001010Y-124970225D01*
X154001017Y-124970223D01*
X154008384Y-124969394D01*
X154008433Y-124969832D01*
X154022347Y-124968000D01*
X156454413Y-124968000D01*
X156459959Y-124968311D01*
X156499535Y-124972770D01*
X156557084Y-124961880D01*
X156558900Y-124961572D01*
X156616787Y-124952848D01*
X156616790Y-124952846D01*
X156623881Y-124950659D01*
X156624012Y-124951084D01*
X156626113Y-124950392D01*
X156625967Y-124949973D01*
X156632963Y-124947524D01*
X156632972Y-124947523D01*
X156669963Y-124927972D01*
X156684752Y-124920156D01*
X156686406Y-124919321D01*
X156706556Y-124909616D01*
X156739142Y-124893925D01*
X156739146Y-124893921D01*
X156745278Y-124889742D01*
X156745528Y-124890109D01*
X156747332Y-124888829D01*
X156747068Y-124888471D01*
X156753030Y-124884069D01*
X156753038Y-124884066D01*
X156794497Y-124842605D01*
X156795749Y-124841400D01*
X156838694Y-124801555D01*
X156838696Y-124801551D01*
X156843323Y-124795751D01*
X156843668Y-124796026D01*
X156852204Y-124784898D01*
X157068704Y-124568398D01*
X157072835Y-124564706D01*
X157103970Y-124539879D01*
X157136979Y-124491461D01*
X157138019Y-124489998D01*
X157148719Y-124475500D01*
X157172792Y-124442883D01*
X157172793Y-124442879D01*
X157176258Y-124436324D01*
X157176650Y-124436531D01*
X157177651Y-124434548D01*
X157177253Y-124434356D01*
X157180468Y-124427677D01*
X157180472Y-124427673D01*
X157197735Y-124371703D01*
X157198305Y-124369969D01*
X157217646Y-124314700D01*
X157217646Y-124314697D01*
X157219026Y-124307408D01*
X157219460Y-124307490D01*
X157219831Y-124305307D01*
X157219394Y-124305242D01*
X157220500Y-124297904D01*
X157220500Y-124239357D01*
X157220535Y-124237507D01*
X157222031Y-124197498D01*
X157222724Y-124178990D01*
X157222722Y-124178984D01*
X157221893Y-124171615D01*
X157222331Y-124171565D01*
X157220500Y-124157655D01*
X157220500Y-124102188D01*
X157239407Y-124043997D01*
X157288907Y-124008033D01*
X157350093Y-124008033D01*
X157354097Y-124009430D01*
X157492621Y-124061096D01*
X157492629Y-124061098D01*
X157552176Y-124067500D01*
X157749999Y-124067500D01*
X157750000Y-124067499D01*
X157750000Y-124067498D01*
X158250000Y-124067498D01*
X158250001Y-124067500D01*
X158447824Y-124067500D01*
X158507370Y-124061098D01*
X158507381Y-124061096D01*
X158642088Y-124010853D01*
X158642090Y-124010852D01*
X158757184Y-123924692D01*
X158757192Y-123924684D01*
X158828015Y-123830078D01*
X158878024Y-123794825D01*
X158939203Y-123795699D01*
X158988184Y-123832366D01*
X159000026Y-123854810D01*
X159031647Y-123939590D01*
X159117807Y-124054684D01*
X159117815Y-124054692D01*
X159232909Y-124140852D01*
X159232911Y-124140853D01*
X159367618Y-124191096D01*
X159367629Y-124191098D01*
X159427176Y-124197500D01*
X160124999Y-124197500D01*
X160125000Y-124197499D01*
X160625000Y-124197499D01*
X160625001Y-124197500D01*
X161322824Y-124197500D01*
X161382370Y-124191098D01*
X161382381Y-124191096D01*
X161517088Y-124140853D01*
X161517090Y-124140852D01*
X161632184Y-124054692D01*
X161632192Y-124054684D01*
X161718352Y-123939590D01*
X161718353Y-123939588D01*
X161768596Y-123804881D01*
X161768598Y-123804870D01*
X161775000Y-123745324D01*
X161775000Y-123272501D01*
X161774999Y-123272500D01*
X160625001Y-123272500D01*
X160625000Y-123272501D01*
X160625000Y-124197499D01*
X160125000Y-124197499D01*
X160125000Y-124197498D01*
X160125000Y-123272501D01*
X160124999Y-123272500D01*
X158996007Y-123272500D01*
X158937816Y-123253593D01*
X158926003Y-123243504D01*
X158899999Y-123217500D01*
X158250001Y-123217500D01*
X158250000Y-123217501D01*
X158250000Y-124067498D01*
X157750000Y-124067498D01*
X157750000Y-122717499D01*
X158250000Y-122717499D01*
X158250001Y-122717500D01*
X158878993Y-122717500D01*
X158937184Y-122736407D01*
X158948997Y-122746496D01*
X158975001Y-122772500D01*
X160124999Y-122772500D01*
X160125000Y-122772499D01*
X160625000Y-122772499D01*
X160625001Y-122772500D01*
X161774999Y-122772500D01*
X161775000Y-122772498D01*
X161775000Y-122299675D01*
X161768598Y-122240129D01*
X161768596Y-122240118D01*
X161718353Y-122105411D01*
X161718352Y-122105409D01*
X161632192Y-121990315D01*
X161632184Y-121990307D01*
X161517090Y-121904147D01*
X161517088Y-121904146D01*
X161491078Y-121894445D01*
X161443163Y-121856395D01*
X161426765Y-121797448D01*
X161431157Y-121772234D01*
X161468589Y-121652110D01*
X161468591Y-121652104D01*
X161474999Y-121581581D01*
X161475000Y-121581568D01*
X161475000Y-121575001D01*
X161474999Y-121575000D01*
X160750000Y-121575000D01*
X160750000Y-122166000D01*
X160731093Y-122224191D01*
X160681593Y-122260155D01*
X160651000Y-122265000D01*
X160625001Y-122265000D01*
X160625000Y-122265001D01*
X160625000Y-122772499D01*
X160125000Y-122772499D01*
X160125000Y-121906500D01*
X160143907Y-121848309D01*
X160193407Y-121812345D01*
X160224000Y-121807500D01*
X160249999Y-121807500D01*
X160250000Y-121807499D01*
X160250000Y-121575001D01*
X160249999Y-121575000D01*
X159525001Y-121575000D01*
X159525001Y-121581582D01*
X159531408Y-121652103D01*
X159531410Y-121652109D01*
X159552269Y-121719047D01*
X159551530Y-121780228D01*
X159514971Y-121829290D01*
X159457752Y-121847500D01*
X159427176Y-121847500D01*
X159367629Y-121853901D01*
X159367618Y-121853903D01*
X159232911Y-121904146D01*
X159232909Y-121904147D01*
X159117815Y-121990307D01*
X159117807Y-121990315D01*
X159031647Y-122105408D01*
X159026528Y-122119135D01*
X158988476Y-122167049D01*
X158929529Y-122183446D01*
X158872202Y-122162063D01*
X158849144Y-122130314D01*
X158846746Y-122131624D01*
X158843352Y-122125409D01*
X158757192Y-122010315D01*
X158757184Y-122010307D01*
X158642090Y-121924147D01*
X158642088Y-121924146D01*
X158507381Y-121873903D01*
X158507370Y-121873901D01*
X158447824Y-121867500D01*
X158250001Y-121867500D01*
X158250000Y-121867501D01*
X158250000Y-122717499D01*
X157750000Y-122717499D01*
X157750000Y-121867501D01*
X157749999Y-121867500D01*
X157552176Y-121867500D01*
X157492629Y-121873901D01*
X157492618Y-121873903D01*
X157357911Y-121924146D01*
X157357909Y-121924147D01*
X157242815Y-122010307D01*
X157242807Y-122010315D01*
X157155210Y-122127329D01*
X157105201Y-122162582D01*
X157075957Y-122167000D01*
X156685709Y-122167000D01*
X156627518Y-122148093D01*
X156591554Y-122098593D01*
X156591554Y-122037407D01*
X156600121Y-122020592D01*
X156599513Y-122020283D01*
X156604596Y-122010307D01*
X156660646Y-121900304D01*
X156675500Y-121806519D01*
X156675499Y-121343482D01*
X156668494Y-121299252D01*
X156660647Y-121249700D01*
X156660646Y-121249698D01*
X156660646Y-121249696D01*
X156603050Y-121136658D01*
X156513342Y-121046950D01*
X156510939Y-121045725D01*
X156409677Y-120994129D01*
X156366413Y-120950864D01*
X156356842Y-120890432D01*
X156384620Y-120835916D01*
X156425171Y-120811402D01*
X156564398Y-120768018D01*
X156564400Y-120768017D01*
X156709872Y-120680075D01*
X156830075Y-120559872D01*
X156918017Y-120414400D01*
X156918020Y-120414392D01*
X156968589Y-120252110D01*
X156968591Y-120252104D01*
X156974999Y-120181581D01*
X156975000Y-120181568D01*
X156975000Y-120175001D01*
X156974999Y-120175000D01*
X153525001Y-120175000D01*
X153525001Y-120181582D01*
X153531408Y-120252103D01*
X153531410Y-120252109D01*
X153581979Y-120414392D01*
X153581982Y-120414400D01*
X153669924Y-120559872D01*
X153790127Y-120680075D01*
X153935599Y-120768017D01*
X153935609Y-120768021D01*
X154074828Y-120811403D01*
X154124759Y-120846765D01*
X154144369Y-120904723D01*
X154126166Y-120963138D01*
X154090322Y-120994129D01*
X153986659Y-121046949D01*
X153896949Y-121136659D01*
X153839354Y-121249695D01*
X153824500Y-121343477D01*
X153824500Y-121806520D01*
X153824501Y-121806523D01*
X153839352Y-121900299D01*
X153839354Y-121900304D01*
X153881622Y-121983260D01*
X153900487Y-122020283D01*
X153898171Y-122021462D01*
X153913291Y-122068006D01*
X153894380Y-122126195D01*
X153844878Y-122162156D01*
X153814291Y-122167000D01*
X153424043Y-122167000D01*
X153365852Y-122148093D01*
X153344790Y-122127329D01*
X153257192Y-122010315D01*
X153257184Y-122010307D01*
X153142090Y-121924147D01*
X153142088Y-121924146D01*
X153007381Y-121873903D01*
X153007370Y-121873901D01*
X152947824Y-121867500D01*
X152750000Y-121867500D01*
X152750000Y-123118500D01*
X152731093Y-123176691D01*
X152681593Y-123212655D01*
X152651000Y-123217500D01*
X151600001Y-123217500D01*
X151573997Y-123243504D01*
X151519480Y-123271281D01*
X151503993Y-123272500D01*
X148765001Y-123272500D01*
X148765000Y-123272501D01*
X148765000Y-123401000D01*
X148746093Y-123459191D01*
X148696593Y-123495155D01*
X148666000Y-123500000D01*
X148025001Y-123500000D01*
X148025000Y-123500001D01*
X148025000Y-124901000D01*
X148006093Y-124959191D01*
X147956593Y-124995155D01*
X147926000Y-125000000D01*
X147624000Y-125000000D01*
X147565809Y-124981093D01*
X147529845Y-124931593D01*
X147525000Y-124901000D01*
X147525000Y-122999999D01*
X148025000Y-122999999D01*
X148025001Y-123000000D01*
X148684999Y-123000000D01*
X148685000Y-122999999D01*
X148685000Y-122871500D01*
X148703907Y-122813309D01*
X148753407Y-122777345D01*
X148784000Y-122772500D01*
X149874999Y-122772500D01*
X149875000Y-122772499D01*
X149875000Y-122772498D01*
X150375000Y-122772498D01*
X150375001Y-122772500D01*
X151524999Y-122772500D01*
X151551003Y-122746496D01*
X151605520Y-122718719D01*
X151621007Y-122717500D01*
X152249999Y-122717500D01*
X152250000Y-122717499D01*
X152250000Y-121867501D01*
X152249999Y-121867500D01*
X152052176Y-121867500D01*
X151992629Y-121873901D01*
X151992618Y-121873903D01*
X151857911Y-121924146D01*
X151857909Y-121924147D01*
X151742815Y-122010307D01*
X151742807Y-122010315D01*
X151656647Y-122125409D01*
X151653254Y-122131624D01*
X151650365Y-122130046D01*
X151620765Y-122167162D01*
X151561784Y-122183437D01*
X151504501Y-122161936D01*
X151473470Y-122119131D01*
X151468352Y-122105409D01*
X151382192Y-121990315D01*
X151382184Y-121990307D01*
X151267090Y-121904147D01*
X151267088Y-121904146D01*
X151132381Y-121853903D01*
X151132370Y-121853901D01*
X151072824Y-121847500D01*
X150375001Y-121847500D01*
X150375000Y-121847501D01*
X150375000Y-122772498D01*
X149875000Y-122772498D01*
X149875000Y-121847501D01*
X149874999Y-121847500D01*
X149177176Y-121847500D01*
X149117629Y-121853901D01*
X149117618Y-121853903D01*
X148982911Y-121904146D01*
X148982909Y-121904147D01*
X148867815Y-121990307D01*
X148867807Y-121990315D01*
X148781647Y-122105409D01*
X148781646Y-122105411D01*
X148731403Y-122240118D01*
X148731401Y-122240129D01*
X148725000Y-122299675D01*
X148725000Y-122460688D01*
X148706093Y-122518879D01*
X148656593Y-122554843D01*
X148595407Y-122554843D01*
X148555996Y-122530692D01*
X148452729Y-122427425D01*
X148308487Y-122338454D01*
X148147603Y-122285143D01*
X148048323Y-122275000D01*
X148025001Y-122275000D01*
X148025000Y-122275001D01*
X148025000Y-122999999D01*
X147525000Y-122999999D01*
X147525000Y-122275000D01*
X147524999Y-122274999D01*
X147501689Y-122275000D01*
X147501684Y-122275001D01*
X147402401Y-122285142D01*
X147402390Y-122285145D01*
X147241512Y-122338454D01*
X147097270Y-122427425D01*
X146977425Y-122547270D01*
X146898793Y-122674751D01*
X146852152Y-122714352D01*
X146791141Y-122718975D01*
X146744531Y-122692783D01*
X146703220Y-122651472D01*
X146663923Y-122631449D01*
X146620659Y-122588184D01*
X146611088Y-122527752D01*
X146638864Y-122473238D01*
X146798703Y-122313398D01*
X146802825Y-122309714D01*
X146833970Y-122284879D01*
X146866985Y-122236453D01*
X146868036Y-122234974D01*
X146902793Y-122187882D01*
X146902795Y-122187876D01*
X146906263Y-122181316D01*
X146906655Y-122181523D01*
X146907651Y-122179550D01*
X146907252Y-122179358D01*
X146910472Y-122172672D01*
X146911325Y-122169907D01*
X146927754Y-122116639D01*
X146928292Y-122115005D01*
X146947646Y-122059699D01*
X146947646Y-122059696D01*
X146947647Y-122059694D01*
X146949026Y-122052407D01*
X146949460Y-122052489D01*
X146949831Y-122050307D01*
X146949394Y-122050242D01*
X146950500Y-122042904D01*
X146950500Y-121984374D01*
X146950535Y-121982523D01*
X146951391Y-121959612D01*
X146952725Y-121923990D01*
X146952723Y-121923983D01*
X146951894Y-121916616D01*
X146952331Y-121916566D01*
X146950500Y-121902652D01*
X146950500Y-121694865D01*
X146969407Y-121636674D01*
X147007448Y-121608381D01*
X147006326Y-121606258D01*
X147012879Y-121602793D01*
X147012882Y-121602793D01*
X147122150Y-121522150D01*
X147202793Y-121412882D01*
X147247646Y-121284699D01*
X147250499Y-121254273D01*
X147250500Y-121254272D01*
X147250500Y-120827610D01*
X147269407Y-120769419D01*
X147279490Y-120757612D01*
X147798699Y-120238402D01*
X147802830Y-120234710D01*
X147833970Y-120209879D01*
X147866985Y-120161453D01*
X147868036Y-120159974D01*
X147902793Y-120112882D01*
X147902795Y-120112876D01*
X147906263Y-120106316D01*
X147906655Y-120106523D01*
X147907651Y-120104550D01*
X147907252Y-120104358D01*
X147910472Y-120097672D01*
X147927754Y-120041639D01*
X147928292Y-120040005D01*
X147947646Y-119984699D01*
X147947646Y-119984696D01*
X147947647Y-119984694D01*
X147949026Y-119977407D01*
X147949460Y-119977489D01*
X147949831Y-119975307D01*
X147949394Y-119975242D01*
X147950500Y-119967904D01*
X147950500Y-119909374D01*
X147950535Y-119907523D01*
X147951391Y-119884612D01*
X147952725Y-119848990D01*
X147952723Y-119848983D01*
X147951894Y-119841616D01*
X147952331Y-119841566D01*
X147950500Y-119827652D01*
X147950500Y-119674999D01*
X153525000Y-119674999D01*
X153525001Y-119675000D01*
X154249999Y-119675000D01*
X154250000Y-119674999D01*
X154250000Y-119674998D01*
X154750000Y-119674998D01*
X154750001Y-119675000D01*
X155749999Y-119675000D01*
X155750000Y-119674998D01*
X155750000Y-119025001D01*
X155749999Y-119025000D01*
X156250000Y-119025000D01*
X156250000Y-119674999D01*
X156250001Y-119675000D01*
X156974998Y-119675000D01*
X156974999Y-119674999D01*
X156974999Y-119668433D01*
X156974998Y-119668417D01*
X156968591Y-119597896D01*
X156968589Y-119597890D01*
X156918020Y-119435607D01*
X156918017Y-119435599D01*
X156830075Y-119290127D01*
X156709872Y-119169924D01*
X156564400Y-119081982D01*
X156564392Y-119081979D01*
X156402110Y-119031410D01*
X156402104Y-119031408D01*
X156331581Y-119025000D01*
X156250000Y-119025000D01*
X155749999Y-119025000D01*
X155749998Y-119024999D01*
X155668434Y-119025000D01*
X155668417Y-119025001D01*
X155597896Y-119031408D01*
X155597890Y-119031410D01*
X155435607Y-119081979D01*
X155435595Y-119081984D01*
X155301216Y-119163220D01*
X155241636Y-119177144D01*
X155198784Y-119163220D01*
X155064404Y-119081984D01*
X155064392Y-119081979D01*
X154902110Y-119031410D01*
X154902104Y-119031408D01*
X154831581Y-119025000D01*
X154750000Y-119025000D01*
X154750000Y-119674998D01*
X154250000Y-119674998D01*
X154250000Y-119025001D01*
X154249998Y-119024999D01*
X154168434Y-119025000D01*
X154168417Y-119025001D01*
X154097896Y-119031408D01*
X154097890Y-119031410D01*
X153935607Y-119081979D01*
X153935599Y-119081982D01*
X153790127Y-119169924D01*
X153669924Y-119290127D01*
X153581982Y-119435599D01*
X153581979Y-119435607D01*
X153531410Y-119597889D01*
X153531408Y-119597895D01*
X153525000Y-119668418D01*
X153525000Y-119674999D01*
X147950500Y-119674999D01*
X147950500Y-117278085D01*
X147950811Y-117272538D01*
X147955270Y-117232965D01*
X147944380Y-117175409D01*
X147944072Y-117173593D01*
X147943752Y-117171468D01*
X147935348Y-117115713D01*
X147935345Y-117115707D01*
X147933160Y-117108619D01*
X147933582Y-117108488D01*
X147932892Y-117106390D01*
X147932476Y-117106536D01*
X147930024Y-117099529D01*
X147930024Y-117099528D01*
X147902630Y-117047699D01*
X147901821Y-117046095D01*
X147876425Y-116993358D01*
X147876423Y-116993356D01*
X147872247Y-116987230D01*
X147872610Y-116986982D01*
X147871324Y-116985168D01*
X147870970Y-116985430D01*
X147866567Y-116979465D01*
X147866566Y-116979462D01*
X147866562Y-116979458D01*
X147825144Y-116938039D01*
X147823860Y-116936706D01*
X147784059Y-116893810D01*
X147784057Y-116893809D01*
X147784055Y-116893806D01*
X147784051Y-116893803D01*
X147778259Y-116889185D01*
X147778533Y-116888840D01*
X147767400Y-116880296D01*
X145462693Y-114575589D01*
X145458991Y-114571446D01*
X145434170Y-114540321D01*
X145385785Y-114507332D01*
X145384276Y-114506261D01*
X145337172Y-114471497D01*
X145330613Y-114468031D01*
X145330817Y-114467643D01*
X145328835Y-114466643D01*
X145328646Y-114467037D01*
X145321961Y-114463817D01*
X145266004Y-114446557D01*
X145264246Y-114445979D01*
X145208993Y-114426646D01*
X145208992Y-114426645D01*
X145208990Y-114426645D01*
X145208987Y-114426644D01*
X145201705Y-114425267D01*
X145201786Y-114424835D01*
X145199593Y-114424462D01*
X145199528Y-114424896D01*
X145192194Y-114423791D01*
X145192193Y-114423791D01*
X145133649Y-114423791D01*
X145131799Y-114423756D01*
X145076465Y-114421686D01*
X145073281Y-114421567D01*
X145073280Y-114421567D01*
X145065906Y-114422398D01*
X145065856Y-114421959D01*
X145051947Y-114423791D01*
X144586884Y-114423791D01*
X144528693Y-114404884D01*
X144492729Y-114355384D01*
X144492729Y-114294198D01*
X144501147Y-114275291D01*
X144654169Y-114010249D01*
X144699637Y-113969310D01*
X144760487Y-113962914D01*
X144770428Y-113965574D01*
X146070033Y-114386999D01*
X146119555Y-114422934D01*
X146138073Y-114472034D01*
X146139870Y-114491422D01*
X146195685Y-114687589D01*
X146286594Y-114870160D01*
X146409503Y-115032918D01*
X146560226Y-115170320D01*
X146733630Y-115277687D01*
X146923811Y-115351363D01*
X147124291Y-115388839D01*
X147328243Y-115388839D01*
X147517195Y-115353518D01*
X148561742Y-115353518D01*
X148567198Y-115412897D01*
X148604337Y-115483485D01*
X148604339Y-115483486D01*
X148665661Y-115534489D01*
X148665662Y-115534489D01*
X148665663Y-115534490D01*
X148722610Y-115552173D01*
X150552029Y-115744452D01*
X150611408Y-115738996D01*
X150681997Y-115701856D01*
X150733002Y-115640531D01*
X150750685Y-115583584D01*
X150814823Y-114973346D01*
X150839710Y-114917451D01*
X150892698Y-114886858D01*
X150902867Y-114885244D01*
X152261691Y-114741620D01*
X152321545Y-114754306D01*
X152351098Y-114780410D01*
X152460895Y-114925805D01*
X152611618Y-115063207D01*
X152785022Y-115170574D01*
X152975203Y-115244250D01*
X153175683Y-115281726D01*
X153379635Y-115281726D01*
X153580115Y-115244250D01*
X153770296Y-115170574D01*
X153943700Y-115063207D01*
X154094423Y-114925805D01*
X154217332Y-114763047D01*
X154308241Y-114580476D01*
X154364056Y-114384309D01*
X154382874Y-114181226D01*
X154364056Y-113978143D01*
X154308241Y-113781976D01*
X154217332Y-113599405D01*
X154094423Y-113436647D01*
X153943700Y-113299245D01*
X153770296Y-113191878D01*
X153580115Y-113118202D01*
X153580114Y-113118201D01*
X153580112Y-113118201D01*
X153379635Y-113080726D01*
X153175683Y-113080726D01*
X152975205Y-113118201D01*
X152906439Y-113144841D01*
X152785022Y-113191878D01*
X152632641Y-113286228D01*
X152611618Y-113299245D01*
X152477455Y-113421551D01*
X152460895Y-113436647D01*
X152428874Y-113479050D01*
X152337987Y-113599403D01*
X152337982Y-113599412D01*
X152247071Y-113781986D01*
X152246610Y-113783178D01*
X152246272Y-113783592D01*
X152245037Y-113786073D01*
X152244477Y-113785794D01*
X152207951Y-113830603D01*
X152164708Y-113845851D01*
X151041144Y-113964608D01*
X150981288Y-113951922D01*
X150940321Y-113906476D01*
X150932280Y-113855810D01*
X150942964Y-113754165D01*
X150937508Y-113694786D01*
X150923966Y-113669048D01*
X150900368Y-113624196D01*
X150900366Y-113624195D01*
X150839044Y-113573192D01*
X150782100Y-113555510D01*
X150782098Y-113555509D01*
X150782096Y-113555509D01*
X148952677Y-113363230D01*
X148952675Y-113363230D01*
X148893296Y-113368686D01*
X148822708Y-113405825D01*
X148822707Y-113405827D01*
X148771704Y-113467149D01*
X148754022Y-113524093D01*
X148754021Y-113524096D01*
X148754021Y-113524098D01*
X148564528Y-115327015D01*
X148561742Y-115353518D01*
X147517195Y-115353518D01*
X147528723Y-115351363D01*
X147718904Y-115277687D01*
X147892308Y-115170320D01*
X148043031Y-115032918D01*
X148165940Y-114870160D01*
X148256849Y-114687589D01*
X148312664Y-114491422D01*
X148331482Y-114288339D01*
X148312664Y-114085256D01*
X148256849Y-113889089D01*
X148165940Y-113706518D01*
X148043031Y-113543760D01*
X147892308Y-113406358D01*
X147718904Y-113298991D01*
X147528723Y-113225315D01*
X147528722Y-113225314D01*
X147528720Y-113225314D01*
X147328243Y-113187839D01*
X147124291Y-113187839D01*
X146923813Y-113225314D01*
X146894350Y-113236728D01*
X146733630Y-113298991D01*
X146560226Y-113406358D01*
X146460131Y-113497607D01*
X146447055Y-113509527D01*
X146391313Y-113534757D01*
X146349822Y-113530538D01*
X145271213Y-113180776D01*
X145221691Y-113144841D01*
X145202750Y-113086661D01*
X145216012Y-113037107D01*
X145267117Y-112948593D01*
X145286284Y-112892129D01*
X145281067Y-112812535D01*
X145276093Y-112802448D01*
X154355479Y-112802448D01*
X154362488Y-112861664D01*
X154883059Y-114463819D01*
X154930923Y-114611129D01*
X154960059Y-114663154D01*
X155022695Y-114712533D01*
X155022697Y-114712533D01*
X155022699Y-114712535D01*
X155099468Y-114734187D01*
X155158684Y-114727178D01*
X156908149Y-114158743D01*
X156960174Y-114129607D01*
X157009555Y-114066967D01*
X157031207Y-113990198D01*
X157024198Y-113930982D01*
X156834585Y-113347413D01*
X156834585Y-113286228D01*
X156870549Y-113236728D01*
X156879176Y-113231122D01*
X158064566Y-112545809D01*
X158124405Y-112533053D01*
X158166231Y-112547346D01*
X158269678Y-112611398D01*
X158459859Y-112685074D01*
X158660339Y-112722550D01*
X158864291Y-112722550D01*
X159064771Y-112685074D01*
X159254952Y-112611398D01*
X159428356Y-112504031D01*
X159579079Y-112366629D01*
X159701988Y-112203871D01*
X159792897Y-112021300D01*
X159848712Y-111825133D01*
X159867530Y-111622050D01*
X159848712Y-111418967D01*
X159792897Y-111222800D01*
X159701988Y-111040229D01*
X159579079Y-110877471D01*
X159428356Y-110740069D01*
X159254952Y-110632702D01*
X159064771Y-110559026D01*
X159064770Y-110559025D01*
X159064768Y-110559025D01*
X158864291Y-110521550D01*
X158660339Y-110521550D01*
X158459861Y-110559025D01*
X158406699Y-110579620D01*
X158269678Y-110632702D01*
X158096273Y-110740068D01*
X158096274Y-110740069D01*
X157945552Y-110877470D01*
X157822643Y-111040227D01*
X157822638Y-111040236D01*
X157731734Y-111222797D01*
X157675918Y-111418967D01*
X157657100Y-111622051D01*
X157661681Y-111671496D01*
X157648222Y-111731183D01*
X157612653Y-111766336D01*
X156631050Y-112333833D01*
X156571209Y-112346590D01*
X156515299Y-112321736D01*
X156487345Y-112278718D01*
X156463026Y-112203872D01*
X156455763Y-112181517D01*
X156426627Y-112129492D01*
X156426626Y-112129491D01*
X156363990Y-112080112D01*
X156363987Y-112080111D01*
X156287218Y-112058459D01*
X156228002Y-112065468D01*
X154952707Y-112479836D01*
X154478536Y-112633903D01*
X154426511Y-112663039D01*
X154377132Y-112725675D01*
X154377131Y-112725678D01*
X154372811Y-112740997D01*
X154355479Y-112802448D01*
X145276093Y-112802448D01*
X145245788Y-112740997D01*
X145200957Y-112701681D01*
X143607907Y-111781933D01*
X143607905Y-111781932D01*
X143607901Y-111781930D01*
X143551444Y-111762766D01*
X143551440Y-111762766D01*
X143471847Y-111767983D01*
X143400313Y-111803260D01*
X143360992Y-111848096D01*
X142464395Y-113401047D01*
X142418926Y-113441988D01*
X142358076Y-113448384D01*
X142308655Y-113421551D01*
X142133973Y-113246869D01*
X142106196Y-113192352D01*
X142104977Y-113176865D01*
X142104977Y-112995448D01*
X142123884Y-112937257D01*
X142151858Y-112911278D01*
X142320518Y-112806849D01*
X142471241Y-112669447D01*
X142594150Y-112506689D01*
X142685059Y-112324118D01*
X142740874Y-112127951D01*
X142759692Y-111924868D01*
X142740874Y-111721785D01*
X142685059Y-111525618D01*
X142594150Y-111343047D01*
X142471241Y-111180289D01*
X142320518Y-111042887D01*
X142297043Y-111028352D01*
X142151860Y-110938458D01*
X142112339Y-110891750D01*
X142104977Y-110854287D01*
X142104977Y-109901769D01*
X142123884Y-109843578D01*
X142173384Y-109807614D01*
X142234570Y-109807614D01*
X142263507Y-109822667D01*
X142466361Y-109975330D01*
X142763473Y-110198930D01*
X143346716Y-110588641D01*
X143950893Y-110945036D01*
X143950902Y-110945040D01*
X143950906Y-110945043D01*
X144574100Y-111266992D01*
X145214353Y-111553488D01*
X145214359Y-111553490D01*
X145214383Y-111553501D01*
X145869722Y-111803657D01*
X146538056Y-112016674D01*
X147217282Y-112191882D01*
X147905264Y-112328730D01*
X148599837Y-112426788D01*
X149298816Y-112485746D01*
X149939027Y-112503708D01*
X149999998Y-112505419D01*
X150000000Y-112505419D01*
X150000002Y-112505419D01*
X150058432Y-112503779D01*
X150701184Y-112485746D01*
X151400163Y-112426788D01*
X152094736Y-112328730D01*
X152782718Y-112191882D01*
X153461944Y-112016674D01*
X154130278Y-111803657D01*
X154785617Y-111553501D01*
X155425898Y-111266993D01*
X156049107Y-110945036D01*
X156653284Y-110588641D01*
X157236527Y-110198930D01*
X157706621Y-109845148D01*
X159174707Y-109845148D01*
X159186153Y-109924086D01*
X159216642Y-109975332D01*
X159216644Y-109975334D01*
X159905215Y-110740069D01*
X160447504Y-111342342D01*
X160495281Y-111378020D01*
X160572591Y-111397653D01*
X160572591Y-111397652D01*
X160572592Y-111397653D01*
X160572593Y-111397653D01*
X160592584Y-111394754D01*
X160651530Y-111386208D01*
X160702775Y-111355720D01*
X162069787Y-110124857D01*
X162105465Y-110077080D01*
X162125098Y-109999770D01*
X162113653Y-109920831D01*
X162083165Y-109869586D01*
X162083164Y-109869585D01*
X162083163Y-109869583D01*
X162083161Y-109869581D01*
X161672587Y-109413593D01*
X161647700Y-109357697D01*
X161660421Y-109297849D01*
X161666022Y-109289217D01*
X162469872Y-108181446D01*
X162519350Y-108145455D01*
X162568189Y-108142278D01*
X162629911Y-108153816D01*
X162833863Y-108153816D01*
X163034343Y-108116340D01*
X163224524Y-108042664D01*
X163397928Y-107935297D01*
X163548651Y-107797895D01*
X163671560Y-107635137D01*
X163762469Y-107452566D01*
X163801951Y-107313800D01*
X163836060Y-107263008D01*
X163893513Y-107241964D01*
X163952362Y-107258708D01*
X163990131Y-107306845D01*
X163996171Y-107340896D01*
X163996171Y-115500717D01*
X163977264Y-115558908D01*
X163967175Y-115570721D01*
X160492391Y-119045504D01*
X160437874Y-119073281D01*
X160422387Y-119074500D01*
X160193479Y-119074500D01*
X160193476Y-119074501D01*
X160099700Y-119089352D01*
X160099695Y-119089354D01*
X159986659Y-119146949D01*
X159896949Y-119236659D01*
X159839354Y-119349695D01*
X159824500Y-119443477D01*
X159824500Y-119906520D01*
X159824501Y-119906523D01*
X159839352Y-120000299D01*
X159839354Y-120000304D01*
X159896950Y-120113342D01*
X159986658Y-120203050D01*
X160000061Y-120209879D01*
X160090322Y-120255870D01*
X160133586Y-120299135D01*
X160143157Y-120359567D01*
X160115379Y-120414083D01*
X160074829Y-120438596D01*
X159935607Y-120481979D01*
X159935599Y-120481982D01*
X159790127Y-120569924D01*
X159669924Y-120690127D01*
X159581982Y-120835599D01*
X159581979Y-120835607D01*
X159531410Y-120997889D01*
X159531408Y-120997895D01*
X159525000Y-121068418D01*
X159525000Y-121074999D01*
X159525001Y-121075000D01*
X161474998Y-121075000D01*
X161474999Y-121074999D01*
X161474999Y-121068433D01*
X161474998Y-121068417D01*
X161468591Y-120997896D01*
X161468589Y-120997890D01*
X161418020Y-120835607D01*
X161418017Y-120835599D01*
X161330075Y-120690127D01*
X161209872Y-120569924D01*
X161064400Y-120481982D01*
X161064392Y-120481979D01*
X160925170Y-120438596D01*
X160875239Y-120403233D01*
X160855630Y-120345275D01*
X160873833Y-120286860D01*
X160909676Y-120255870D01*
X161013342Y-120203050D01*
X161103050Y-120113342D01*
X161160646Y-120000304D01*
X161175500Y-119906519D01*
X161175499Y-119677610D01*
X161194406Y-119619421D01*
X161204489Y-119607613D01*
X164745370Y-116066731D01*
X164749501Y-116063039D01*
X164780641Y-116038208D01*
X164813656Y-115989782D01*
X164814707Y-115988303D01*
X164849464Y-115941211D01*
X164849466Y-115941205D01*
X164852934Y-115934645D01*
X164853326Y-115934852D01*
X164854322Y-115932879D01*
X164853923Y-115932687D01*
X164857143Y-115926001D01*
X164874425Y-115869968D01*
X164874963Y-115868334D01*
X164894317Y-115813028D01*
X164894317Y-115813025D01*
X164894318Y-115813023D01*
X164895697Y-115805736D01*
X164896131Y-115805818D01*
X164896502Y-115803636D01*
X164896065Y-115803571D01*
X164897171Y-115796233D01*
X164897171Y-115737703D01*
X164897206Y-115735852D01*
X164898062Y-115712941D01*
X164899396Y-115677319D01*
X164899394Y-115677312D01*
X164898565Y-115669945D01*
X164899002Y-115669895D01*
X164897171Y-115655981D01*
X164897171Y-105442669D01*
X164897482Y-105437122D01*
X164897566Y-105436374D01*
X164901941Y-105397549D01*
X164891052Y-105340001D01*
X164890742Y-105338175D01*
X164882019Y-105280299D01*
X164882019Y-105280297D01*
X164882017Y-105280293D01*
X164879831Y-105273206D01*
X164880253Y-105273075D01*
X164879561Y-105270972D01*
X164879145Y-105271118D01*
X164876694Y-105264112D01*
X164849319Y-105212319D01*
X164848501Y-105210698D01*
X164823096Y-105157942D01*
X164820814Y-105153203D01*
X164812602Y-105092572D01*
X164819568Y-105069988D01*
X165144450Y-104340293D01*
X165157610Y-104282135D01*
X165144101Y-104203523D01*
X165135216Y-104189440D01*
X165101539Y-104136063D01*
X165067086Y-104111715D01*
X165052843Y-104101649D01*
X165052841Y-104101648D01*
X165052840Y-104101647D01*
X163424432Y-103376634D01*
X163372380Y-103353459D01*
X163314222Y-103340299D01*
X163314221Y-103340299D01*
X163235610Y-103353807D01*
X163168150Y-103396369D01*
X163133735Y-103445067D01*
X163133734Y-103445068D01*
X162385547Y-105125526D01*
X162372386Y-105183687D01*
X162385894Y-105262298D01*
X162428456Y-105329758D01*
X162441681Y-105339104D01*
X162477153Y-105364173D01*
X162477154Y-105364173D01*
X162477155Y-105364174D01*
X162688963Y-105458477D01*
X163937438Y-106014333D01*
X163982907Y-106055274D01*
X163996171Y-106104774D01*
X163996171Y-106765735D01*
X163977264Y-106823926D01*
X163927764Y-106859890D01*
X163866578Y-106859890D01*
X163817078Y-106823926D01*
X163801951Y-106792831D01*
X163762469Y-106654066D01*
X163671560Y-106471495D01*
X163548651Y-106308737D01*
X163397928Y-106171335D01*
X163224524Y-106063968D01*
X163034343Y-105990292D01*
X163034342Y-105990291D01*
X163034340Y-105990291D01*
X162833863Y-105952816D01*
X162629911Y-105952816D01*
X162429433Y-105990291D01*
X162367374Y-106014333D01*
X162239250Y-106063968D01*
X162065846Y-106171334D01*
X162065846Y-106171335D01*
X161915124Y-106308736D01*
X161792215Y-106471493D01*
X161792210Y-106471502D01*
X161701306Y-106654063D01*
X161701305Y-106654066D01*
X161645490Y-106850233D01*
X161626672Y-107053316D01*
X161645490Y-107256399D01*
X161701305Y-107452566D01*
X161712455Y-107474958D01*
X161749543Y-107549442D01*
X161758555Y-107609960D01*
X161741048Y-107651713D01*
X161074387Y-108570426D01*
X161024908Y-108606419D01*
X160963723Y-108606455D01*
X160920691Y-108578528D01*
X160852302Y-108502574D01*
X160804525Y-108466896D01*
X160804524Y-108466895D01*
X160727213Y-108447262D01*
X160727212Y-108447262D01*
X160648274Y-108458708D01*
X160597028Y-108489197D01*
X160597026Y-108489199D01*
X159230025Y-109720053D01*
X159230017Y-109720061D01*
X159194340Y-109767836D01*
X159174707Y-109845147D01*
X159174707Y-109845148D01*
X157706621Y-109845148D01*
X157797001Y-109777130D01*
X158332943Y-109324568D01*
X158842667Y-108842667D01*
X159324568Y-108332943D01*
X159777130Y-107797001D01*
X160198930Y-107236527D01*
X160588641Y-106653284D01*
X160945036Y-106049107D01*
X161266993Y-105425898D01*
X161553501Y-104785617D01*
X161803657Y-104130278D01*
X162016674Y-103461944D01*
X162191882Y-102782718D01*
X162328730Y-102094736D01*
X162426788Y-101400163D01*
X162485746Y-100701184D01*
X162504036Y-100049287D01*
X162505419Y-100000002D01*
X162505416Y-99999901D01*
X162505083Y-99988038D01*
X162522349Y-99929341D01*
X162529569Y-99923778D01*
X162520407Y-99917122D01*
X162501539Y-99861708D01*
X162497093Y-99703233D01*
X162485746Y-99298816D01*
X162426788Y-98599837D01*
X162328730Y-97905264D01*
X162215004Y-97333525D01*
X162222196Y-97272767D01*
X162263728Y-97227837D01*
X162323738Y-97215900D01*
X162379303Y-97241516D01*
X162382106Y-97244210D01*
X162670504Y-97532608D01*
X162698281Y-97587125D01*
X162699500Y-97602612D01*
X162699500Y-99858931D01*
X162680593Y-99917122D01*
X162676032Y-99920435D01*
X162682471Y-99924843D01*
X162701318Y-99966856D01*
X162705616Y-99989573D01*
X162705926Y-99991397D01*
X162714652Y-100049287D01*
X162716840Y-100056381D01*
X162716417Y-100056511D01*
X162717109Y-100058613D01*
X162717526Y-100058468D01*
X162719975Y-100065468D01*
X162747338Y-100117242D01*
X162748172Y-100118894D01*
X162773574Y-100171641D01*
X162777753Y-100177770D01*
X162777389Y-100178017D01*
X162778677Y-100179831D01*
X162779030Y-100179571D01*
X162783434Y-100185538D01*
X162824854Y-100226959D01*
X162826138Y-100228292D01*
X162865944Y-100271194D01*
X162871743Y-100275818D01*
X162871467Y-100276163D01*
X162882600Y-100284704D01*
X163427000Y-100829104D01*
X163454777Y-100883621D01*
X163452217Y-100926200D01*
X163413603Y-101061915D01*
X163413602Y-101061917D01*
X163413603Y-101061917D01*
X163394785Y-101265000D01*
X163413603Y-101468083D01*
X163469418Y-101664250D01*
X163560327Y-101846821D01*
X163683236Y-102009579D01*
X163833959Y-102146981D01*
X164007363Y-102254348D01*
X164197544Y-102328024D01*
X164398024Y-102365500D01*
X164601976Y-102365500D01*
X164802456Y-102328024D01*
X164992637Y-102254348D01*
X165166041Y-102146981D01*
X165316764Y-102009579D01*
X165439673Y-101846821D01*
X165530582Y-101664250D01*
X165586397Y-101468083D01*
X165605215Y-101265000D01*
X165586397Y-101061917D01*
X165530582Y-100865750D01*
X165439673Y-100683179D01*
X165316764Y-100520421D01*
X165166041Y-100383019D01*
X164992637Y-100275652D01*
X164802456Y-100201976D01*
X164802455Y-100201975D01*
X164802453Y-100201975D01*
X164601976Y-100164500D01*
X164398024Y-100164500D01*
X164197552Y-100201974D01*
X164197536Y-100201978D01*
X164168702Y-100213148D01*
X164107610Y-100216536D01*
X164062939Y-100190836D01*
X163866607Y-99994504D01*
X163838830Y-99939987D01*
X163848401Y-99879555D01*
X163891666Y-99836290D01*
X163936611Y-99825500D01*
X165419747Y-99825500D01*
X165419748Y-99825500D01*
X165478231Y-99813867D01*
X165544552Y-99769552D01*
X165588867Y-99703231D01*
X165600500Y-99644748D01*
X165600500Y-97805252D01*
X165588867Y-97746769D01*
X165544552Y-97680448D01*
X165544548Y-97680445D01*
X165478233Y-97636134D01*
X165478231Y-97636133D01*
X165478228Y-97636132D01*
X165478227Y-97636132D01*
X165419758Y-97624501D01*
X165419748Y-97624500D01*
X165419747Y-97624500D01*
X164806150Y-97624500D01*
X164747959Y-97605593D01*
X164711995Y-97556093D01*
X164709325Y-97546140D01*
X164699906Y-97501953D01*
X164424236Y-96208760D01*
X164430596Y-96147909D01*
X164454362Y-96114963D01*
X164577695Y-96002532D01*
X164700604Y-95839774D01*
X164791513Y-95657203D01*
X164847328Y-95461036D01*
X164866146Y-95257953D01*
X164847328Y-95054870D01*
X164791513Y-94858703D01*
X164700604Y-94676132D01*
X164577695Y-94513374D01*
X164426972Y-94375972D01*
X164253568Y-94268605D01*
X164063387Y-94194929D01*
X164063386Y-94194928D01*
X164063384Y-94194928D01*
X163862907Y-94157453D01*
X163658955Y-94157453D01*
X163458477Y-94194928D01*
X163449750Y-94198309D01*
X163268294Y-94268605D01*
X163158740Y-94336438D01*
X163094890Y-94375972D01*
X162944167Y-94513374D01*
X162890451Y-94584505D01*
X162840295Y-94619547D01*
X162779120Y-94618416D01*
X162741444Y-94594847D01*
X162736088Y-94589490D01*
X162734803Y-94588156D01*
X162694987Y-94545243D01*
X162689189Y-94540620D01*
X162689463Y-94540276D01*
X162678328Y-94531731D01*
X162525898Y-94379301D01*
X162498121Y-94324784D01*
X162507692Y-94264352D01*
X162550957Y-94221087D01*
X162555635Y-94218856D01*
X162591774Y-94202766D01*
X164015665Y-93568810D01*
X164064361Y-93534395D01*
X164106923Y-93466936D01*
X164120432Y-93388324D01*
X164107272Y-93330166D01*
X163413657Y-91772281D01*
X163359083Y-91649705D01*
X163359082Y-91649704D01*
X163359082Y-91649703D01*
X163341874Y-91625354D01*
X163324667Y-91601006D01*
X163257207Y-91558444D01*
X163178596Y-91544936D01*
X163120438Y-91558096D01*
X163120436Y-91558096D01*
X163120435Y-91558097D01*
X162559887Y-91807667D01*
X162499036Y-91814063D01*
X162446048Y-91783470D01*
X162439561Y-91775464D01*
X161634006Y-90668080D01*
X161615065Y-90609900D01*
X161625444Y-90565714D01*
X161645148Y-90526143D01*
X161673054Y-90470101D01*
X161728869Y-90273934D01*
X161747687Y-90070851D01*
X161728869Y-89867768D01*
X161673054Y-89671601D01*
X161582145Y-89489030D01*
X161459236Y-89326272D01*
X161308513Y-89188870D01*
X161135109Y-89081503D01*
X160944928Y-89007827D01*
X160944927Y-89007826D01*
X160944925Y-89007826D01*
X160744448Y-88970351D01*
X160540496Y-88970351D01*
X160340018Y-89007826D01*
X160270104Y-89034910D01*
X160149835Y-89081503D01*
X160060802Y-89136630D01*
X159976431Y-89188870D01*
X159825709Y-89326271D01*
X159702800Y-89489028D01*
X159702795Y-89489037D01*
X159611891Y-89671598D01*
X159611890Y-89671601D01*
X159598165Y-89719838D01*
X159556075Y-89867768D01*
X159537257Y-90070851D01*
X159556075Y-90273935D01*
X159591978Y-90400119D01*
X159589717Y-90461262D01*
X159551948Y-90509399D01*
X159493099Y-90526143D01*
X159435646Y-90505099D01*
X159426753Y-90497215D01*
X158902715Y-89973177D01*
X158874938Y-89918660D01*
X158884509Y-89858228D01*
X158913480Y-89823852D01*
X158957283Y-89791143D01*
X160188146Y-88424131D01*
X160218634Y-88372886D01*
X160227718Y-88310231D01*
X160230079Y-88293949D01*
X160230079Y-88293948D01*
X160228883Y-88289240D01*
X160210446Y-88216637D01*
X160174768Y-88168860D01*
X159545596Y-87602351D01*
X158807760Y-86938000D01*
X158807758Y-86937998D01*
X158756512Y-86907509D01*
X158677574Y-86896063D01*
X158677573Y-86896063D01*
X158600262Y-86915696D01*
X158552487Y-86951373D01*
X158552479Y-86951381D01*
X158141907Y-87407366D01*
X158088919Y-87437959D01*
X158028069Y-87431563D01*
X158018886Y-87426888D01*
X156833721Y-86743560D01*
X156792754Y-86698114D01*
X156784593Y-86648659D01*
X156789048Y-86600587D01*
X156770230Y-86397504D01*
X156714415Y-86201337D01*
X156623506Y-86018766D01*
X156500597Y-85856008D01*
X156349874Y-85718606D01*
X156176470Y-85611239D01*
X155986289Y-85537563D01*
X155986288Y-85537562D01*
X155986286Y-85537562D01*
X155785809Y-85500087D01*
X155581857Y-85500087D01*
X155381379Y-85537562D01*
X155311465Y-85564646D01*
X155191196Y-85611239D01*
X155049278Y-85699111D01*
X155017792Y-85718606D01*
X154867070Y-85856007D01*
X154744161Y-86018764D01*
X154744156Y-86018773D01*
X154653252Y-86201334D01*
X154597436Y-86397504D01*
X154578618Y-86600587D01*
X154597436Y-86803672D01*
X154601985Y-86819657D01*
X154602662Y-86822037D01*
X154600401Y-86883180D01*
X154562632Y-86931317D01*
X154529529Y-86943470D01*
X154529967Y-86945105D01*
X154527090Y-86945876D01*
X154520679Y-86946720D01*
X154518544Y-86947504D01*
X154515443Y-86947854D01*
X154515393Y-86947415D01*
X154501463Y-86949250D01*
X154193227Y-86949250D01*
X154135036Y-86930343D01*
X154099072Y-86880843D01*
X154099072Y-86819657D01*
X154103738Y-86805297D01*
X154599004Y-85281025D01*
X154606013Y-85221809D01*
X154584361Y-85145040D01*
X154584359Y-85145038D01*
X154584359Y-85145036D01*
X154534980Y-85082400D01*
X154482955Y-85053264D01*
X154395302Y-85024784D01*
X152733490Y-84484829D01*
X152674274Y-84477820D01*
X152674273Y-84477820D01*
X152597504Y-84499472D01*
X152597501Y-84499473D01*
X152534865Y-84548852D01*
X152505729Y-84600878D01*
X152316116Y-85184444D01*
X152280152Y-85233944D01*
X152221961Y-85252851D01*
X152211670Y-85252315D01*
X150854962Y-85110524D01*
X150799052Y-85085670D01*
X150775646Y-85051743D01*
X150775030Y-85052051D01*
X150772990Y-85047954D01*
X150682081Y-84865383D01*
X150559172Y-84702625D01*
X150408449Y-84565223D01*
X150235045Y-84457856D01*
X150044864Y-84384180D01*
X150044863Y-84384179D01*
X150044861Y-84384179D01*
X149844384Y-84346704D01*
X149640432Y-84346704D01*
X149439954Y-84384179D01*
X149370040Y-84411263D01*
X149249771Y-84457856D01*
X149122416Y-84536711D01*
X149076367Y-84565223D01*
X148925645Y-84702624D01*
X148802736Y-84865381D01*
X148802731Y-84865390D01*
X148711827Y-85047951D01*
X148711826Y-85047954D01*
X148663006Y-85219535D01*
X148656011Y-85244121D01*
X148640885Y-85407365D01*
X148637193Y-85447204D01*
X148656011Y-85650287D01*
X148711826Y-85846454D01*
X148802735Y-86029025D01*
X148925644Y-86191783D01*
X149076367Y-86329185D01*
X149249771Y-86436552D01*
X149439457Y-86510036D01*
X149486888Y-86548688D01*
X149502542Y-86607837D01*
X149480439Y-86664890D01*
X149429023Y-86698056D01*
X149403694Y-86701351D01*
X148495667Y-86701351D01*
X148437476Y-86682444D01*
X148401512Y-86632944D01*
X148400839Y-86581494D01*
X148400584Y-86581471D01*
X148400808Y-86579029D01*
X148400745Y-86574230D01*
X148401474Y-86571764D01*
X148401477Y-86571761D01*
X148406933Y-86512382D01*
X148214654Y-84682963D01*
X148196971Y-84626016D01*
X148196970Y-84626015D01*
X148196970Y-84626014D01*
X148145967Y-84564692D01*
X148145966Y-84564690D01*
X148075378Y-84527551D01*
X148015999Y-84522095D01*
X148015998Y-84522095D01*
X146186579Y-84714374D01*
X146186577Y-84714374D01*
X146186574Y-84714375D01*
X146129630Y-84732057D01*
X146068308Y-84783060D01*
X146068306Y-84783061D01*
X146031167Y-84853649D01*
X146025266Y-84917874D01*
X146023242Y-84917688D01*
X146007168Y-84968293D01*
X145957907Y-85004583D01*
X145926693Y-85009632D01*
X142394975Y-85009632D01*
X142336784Y-84990725D01*
X142300820Y-84941225D01*
X142300820Y-84880039D01*
X142336784Y-84830539D01*
X142351710Y-84821586D01*
X142724166Y-84640658D01*
X143061391Y-84483960D01*
X143062646Y-84483399D01*
X143468145Y-84309754D01*
X143813153Y-84169283D01*
X143814315Y-84168829D01*
X144227278Y-84014802D01*
X144579034Y-83891036D01*
X144580257Y-83890625D01*
X144999639Y-83756563D01*
X145357429Y-83649797D01*
X145358658Y-83649450D01*
X145783207Y-83535692D01*
X145783897Y-83535515D01*
X146146453Y-83446153D01*
X146147626Y-83445881D01*
X146503638Y-83368435D01*
X146576702Y-83352542D01*
X146577713Y-83352333D01*
X146592270Y-83349483D01*
X146944302Y-83280564D01*
X146945399Y-83280364D01*
X147378366Y-83207557D01*
X147379201Y-83207426D01*
X147749124Y-83153409D01*
X147750243Y-83153260D01*
X148186031Y-83101156D01*
X148186967Y-83101055D01*
X148558979Y-83064983D01*
X148560226Y-83064878D01*
X148997777Y-83033584D01*
X148998819Y-83033520D01*
X149372333Y-83015454D01*
X149373364Y-83015416D01*
X149801879Y-83005216D01*
X149811888Y-83004978D01*
X149813066Y-83004964D01*
X150186934Y-83004964D01*
X150188112Y-83004978D01*
G37*
%TD.AperFunction*%
%TA.AperFunction,Conductor*%
G36*
X140941688Y-123020999D02*
G01*
X140972011Y-123068270D01*
X140987877Y-123122878D01*
X140985956Y-123184034D01*
X140948456Y-123232380D01*
X140892808Y-123249500D01*
X140722020Y-123249500D01*
X140663829Y-123230593D01*
X140627865Y-123181093D01*
X140627865Y-123119907D01*
X140663829Y-123070407D01*
X140692567Y-123055983D01*
X140814392Y-123018020D01*
X140814399Y-123018017D01*
X140825722Y-123011172D01*
X140885301Y-122997246D01*
X140941688Y-123020999D01*
G37*
%TD.AperFunction*%
%TA.AperFunction,Conductor*%
G36*
X134662820Y-102423597D02*
G01*
X134737087Y-102521942D01*
X134887810Y-102659344D01*
X135061214Y-102766711D01*
X135251395Y-102840387D01*
X135451875Y-102877863D01*
X135655827Y-102877863D01*
X135856307Y-102840387D01*
X136046488Y-102766711D01*
X136219892Y-102659344D01*
X136345362Y-102544963D01*
X136401101Y-102519734D01*
X136461027Y-102532086D01*
X136502247Y-102577303D01*
X136511056Y-102618126D01*
X136511056Y-102716318D01*
X136510745Y-102721864D01*
X136506286Y-102761439D01*
X136506286Y-102761443D01*
X136517172Y-102818978D01*
X136517482Y-102820802D01*
X136526208Y-102878692D01*
X136528396Y-102885786D01*
X136527973Y-102885916D01*
X136528665Y-102888018D01*
X136529082Y-102887873D01*
X136531532Y-102894875D01*
X136539831Y-102910577D01*
X136550306Y-102970859D01*
X136523348Y-103025785D01*
X136472887Y-103053674D01*
X135558839Y-103247962D01*
X134953491Y-103376633D01*
X134953489Y-103376633D01*
X134953488Y-103376634D01*
X134898708Y-103400169D01*
X134898706Y-103400170D01*
X134898705Y-103400171D01*
X134854971Y-103445066D01*
X134843045Y-103457308D01*
X134843044Y-103457309D01*
X134813489Y-103531390D01*
X134813489Y-103531391D01*
X134813489Y-103531392D01*
X134814269Y-103591016D01*
X135196722Y-105390314D01*
X135196723Y-105390316D01*
X135219215Y-105442669D01*
X135220260Y-105445100D01*
X135277396Y-105500759D01*
X135277397Y-105500759D01*
X135277398Y-105500760D01*
X135291480Y-105506378D01*
X135351481Y-105530316D01*
X135411105Y-105529536D01*
X136011297Y-105401960D01*
X136072145Y-105408356D01*
X136117614Y-105449297D01*
X136122291Y-105458471D01*
X136154330Y-105530316D01*
X136679783Y-106708643D01*
X136686215Y-106769489D01*
X136668370Y-106808623D01*
X136586037Y-106917651D01*
X136586028Y-106917666D01*
X136518483Y-107053316D01*
X136495123Y-107100230D01*
X136439308Y-107296397D01*
X136420490Y-107499480D01*
X136439308Y-107702563D01*
X136495123Y-107898730D01*
X136586032Y-108081301D01*
X136708941Y-108244059D01*
X136859664Y-108381461D01*
X137033068Y-108488828D01*
X137223249Y-108562504D01*
X137423729Y-108599980D01*
X137627681Y-108599980D01*
X137828161Y-108562504D01*
X138018342Y-108488828D01*
X138191746Y-108381461D01*
X138342469Y-108244059D01*
X138465378Y-108081301D01*
X138556287Y-107898730D01*
X138612102Y-107702563D01*
X138625613Y-107556751D01*
X138649808Y-107500556D01*
X138702415Y-107469312D01*
X138763339Y-107474958D01*
X138794193Y-107495884D01*
X139228177Y-107929867D01*
X139255955Y-107984384D01*
X139246384Y-108044816D01*
X139203119Y-108088081D01*
X139179100Y-108094353D01*
X139179545Y-108096205D01*
X139170065Y-108098480D01*
X139115918Y-108123442D01*
X137627728Y-109204676D01*
X137587255Y-109248460D01*
X137559647Y-109323292D01*
X137559647Y-109323293D01*
X137562778Y-109402999D01*
X137587739Y-109457144D01*
X137587740Y-109457146D01*
X137587742Y-109457149D01*
X138549273Y-110780582D01*
X138568180Y-110838772D01*
X138568180Y-117915593D01*
X138567869Y-117921139D01*
X138563410Y-117960714D01*
X138563410Y-117960718D01*
X138574296Y-118018253D01*
X138574606Y-118020077D01*
X138583332Y-118077967D01*
X138585520Y-118085061D01*
X138585097Y-118085191D01*
X138585789Y-118087293D01*
X138586206Y-118087148D01*
X138588655Y-118094148D01*
X138616018Y-118145922D01*
X138616852Y-118147574D01*
X138642254Y-118200321D01*
X138646433Y-118206450D01*
X138646069Y-118206697D01*
X138647357Y-118208511D01*
X138647710Y-118208251D01*
X138652114Y-118214218D01*
X138693535Y-118255640D01*
X138694819Y-118256973D01*
X138734624Y-118299874D01*
X138740423Y-118304498D01*
X138740147Y-118304843D01*
X138751280Y-118313384D01*
X139545504Y-119107608D01*
X139573281Y-119162125D01*
X139574500Y-119177612D01*
X139574500Y-119406520D01*
X139574501Y-119406523D01*
X139589352Y-119500299D01*
X139589354Y-119500304D01*
X139646950Y-119613342D01*
X139736658Y-119703050D01*
X139800850Y-119735757D01*
X139840322Y-119755870D01*
X139883586Y-119799135D01*
X139893157Y-119859567D01*
X139865379Y-119914083D01*
X139824829Y-119938596D01*
X139685607Y-119981979D01*
X139685599Y-119981982D01*
X139540127Y-120069924D01*
X139419924Y-120190127D01*
X139331982Y-120335599D01*
X139331979Y-120335607D01*
X139281410Y-120497889D01*
X139281408Y-120497895D01*
X139275000Y-120568418D01*
X139275000Y-120574999D01*
X139275001Y-120575000D01*
X141224998Y-120575000D01*
X141224999Y-120574999D01*
X141224999Y-120568433D01*
X141224998Y-120568417D01*
X141218591Y-120497896D01*
X141218589Y-120497890D01*
X141168020Y-120335607D01*
X141168017Y-120335599D01*
X141080075Y-120190127D01*
X140959872Y-120069924D01*
X140814400Y-119981982D01*
X140814392Y-119981979D01*
X140675170Y-119938596D01*
X140625239Y-119903233D01*
X140605630Y-119845275D01*
X140623833Y-119786860D01*
X140659676Y-119755870D01*
X140763342Y-119703050D01*
X140853050Y-119613342D01*
X140910646Y-119500304D01*
X140925500Y-119406519D01*
X140925499Y-118943482D01*
X140913788Y-118869534D01*
X140910647Y-118849700D01*
X140910646Y-118849698D01*
X140910646Y-118849696D01*
X140853050Y-118736658D01*
X140763342Y-118646950D01*
X140650304Y-118589354D01*
X140650305Y-118589354D01*
X140556522Y-118574500D01*
X140556519Y-118574500D01*
X140327611Y-118574500D01*
X140269420Y-118555593D01*
X140257607Y-118545504D01*
X139498176Y-117786073D01*
X139470399Y-117731556D01*
X139469180Y-117716069D01*
X139469180Y-110637811D01*
X139488087Y-110579620D01*
X139509987Y-110557719D01*
X140409629Y-109904092D01*
X140450105Y-109860305D01*
X140477713Y-109785471D01*
X140474582Y-109705769D01*
X140472857Y-109702028D01*
X140449620Y-109651621D01*
X140449619Y-109651620D01*
X140449618Y-109651617D01*
X139859740Y-108839720D01*
X139840834Y-108781532D01*
X139859741Y-108723341D01*
X139909241Y-108687377D01*
X139970427Y-108687377D01*
X140009838Y-108711528D01*
X141174981Y-109876670D01*
X141202758Y-109931187D01*
X141203977Y-109946674D01*
X141203977Y-110854287D01*
X141185070Y-110912478D01*
X141157094Y-110938458D01*
X140988440Y-111042884D01*
X140988438Y-111042885D01*
X140988436Y-111042887D01*
X140837713Y-111180289D01*
X140805610Y-111222800D01*
X140714805Y-111343045D01*
X140714800Y-111343054D01*
X140623896Y-111525615D01*
X140623895Y-111525618D01*
X140568080Y-111721785D01*
X140549262Y-111924868D01*
X140568080Y-112127951D01*
X140623895Y-112324118D01*
X140714804Y-112506689D01*
X140837713Y-112669447D01*
X140988436Y-112806849D01*
X141157094Y-112911277D01*
X141196615Y-112957985D01*
X141203977Y-112995448D01*
X141203977Y-113376390D01*
X141203666Y-113381936D01*
X141199207Y-113421511D01*
X141199207Y-113421515D01*
X141210093Y-113479050D01*
X141210403Y-113480874D01*
X141219129Y-113538764D01*
X141221317Y-113545858D01*
X141220894Y-113545988D01*
X141221586Y-113548090D01*
X141222003Y-113547945D01*
X141224452Y-113554945D01*
X141224453Y-113554948D01*
X141224454Y-113554949D01*
X141231468Y-113568220D01*
X141251815Y-113606719D01*
X141252649Y-113608371D01*
X141278051Y-113661118D01*
X141282230Y-113667247D01*
X141281866Y-113667494D01*
X141283154Y-113669308D01*
X141283507Y-113669048D01*
X141287911Y-113675015D01*
X141329331Y-113716436D01*
X141330615Y-113717769D01*
X141370421Y-113760671D01*
X141376220Y-113765295D01*
X141375944Y-113765640D01*
X141387077Y-113774181D01*
X142785883Y-115172987D01*
X142789585Y-115177129D01*
X142814412Y-115208261D01*
X142862800Y-115241252D01*
X142864309Y-115242323D01*
X142881284Y-115254851D01*
X142911409Y-115277084D01*
X142911412Y-115277085D01*
X142917968Y-115280550D01*
X142917760Y-115280942D01*
X142919741Y-115281942D01*
X142919934Y-115281544D01*
X142926618Y-115284763D01*
X142982583Y-115302025D01*
X142984334Y-115302601D01*
X143039591Y-115321936D01*
X143039592Y-115321937D01*
X143046884Y-115323317D01*
X143046801Y-115323751D01*
X143048984Y-115324121D01*
X143049050Y-115323685D01*
X143056389Y-115324791D01*
X143114933Y-115324791D01*
X143116783Y-115324826D01*
X143139833Y-115325687D01*
X143175301Y-115327015D01*
X143175307Y-115327013D01*
X143182676Y-115326184D01*
X143182725Y-115326622D01*
X143196635Y-115324791D01*
X144896679Y-115324791D01*
X144954870Y-115343698D01*
X144966683Y-115353787D01*
X146793393Y-117180496D01*
X146821170Y-117235013D01*
X146811599Y-117295445D01*
X146768334Y-117338710D01*
X146723389Y-117349500D01*
X146427611Y-117349500D01*
X146369420Y-117330593D01*
X146357607Y-117320504D01*
X146188402Y-117151298D01*
X146184700Y-117147155D01*
X146167909Y-117126100D01*
X146159879Y-117116030D01*
X146111494Y-117083041D01*
X146109985Y-117081970D01*
X146062881Y-117047206D01*
X146056322Y-117043740D01*
X146056526Y-117043352D01*
X146054544Y-117042352D01*
X146054355Y-117042746D01*
X146047670Y-117039526D01*
X145991713Y-117022266D01*
X145989955Y-117021688D01*
X145934702Y-117002355D01*
X145934701Y-117002354D01*
X145934699Y-117002354D01*
X145934696Y-117002353D01*
X145927414Y-117000976D01*
X145927495Y-117000544D01*
X145925302Y-117000171D01*
X145925237Y-117000605D01*
X145917903Y-116999500D01*
X145917902Y-116999500D01*
X145859358Y-116999500D01*
X145857508Y-116999465D01*
X145802174Y-116997395D01*
X145798990Y-116997276D01*
X145798989Y-116997276D01*
X145791615Y-116998107D01*
X145791565Y-116997668D01*
X145777656Y-116999500D01*
X143528087Y-116999500D01*
X143522541Y-116999189D01*
X143482965Y-116994730D01*
X143425428Y-117005615D01*
X143423605Y-117005925D01*
X143365713Y-117014651D01*
X143358628Y-117016837D01*
X143358498Y-117016418D01*
X143356381Y-117017115D01*
X143356526Y-117017529D01*
X143349523Y-117019978D01*
X143307193Y-117042352D01*
X143298560Y-117046915D01*
X143297765Y-117047335D01*
X143296113Y-117048169D01*
X143243360Y-117073573D01*
X143237229Y-117077754D01*
X143236982Y-117077392D01*
X143235169Y-117078678D01*
X143235430Y-117079031D01*
X143229458Y-117083438D01*
X143188078Y-117124817D01*
X143186746Y-117126100D01*
X143143803Y-117165947D01*
X143139181Y-117171743D01*
X143138837Y-117171468D01*
X143130295Y-117182599D01*
X142642392Y-117670503D01*
X142587875Y-117698281D01*
X142572388Y-117699500D01*
X142569748Y-117699500D01*
X141730252Y-117699500D01*
X141730251Y-117699500D01*
X141730241Y-117699501D01*
X141671772Y-117711132D01*
X141671766Y-117711134D01*
X141605451Y-117755445D01*
X141605445Y-117755451D01*
X141561134Y-117821766D01*
X141561132Y-117821772D01*
X141549501Y-117880241D01*
X141549500Y-117880253D01*
X141549500Y-120619746D01*
X141549501Y-120619758D01*
X141561132Y-120678227D01*
X141561134Y-120678233D01*
X141605445Y-120744548D01*
X141605448Y-120744552D01*
X141618002Y-120752940D01*
X141655881Y-120800989D01*
X141662000Y-120835255D01*
X141662000Y-121200511D01*
X141643093Y-121258702D01*
X141593593Y-121294666D01*
X141570163Y-121299252D01*
X141566742Y-121299500D01*
X141566740Y-121299500D01*
X141539486Y-121303470D01*
X141498604Y-121309427D01*
X141393518Y-121360801D01*
X141393515Y-121360803D01*
X141327491Y-121426827D01*
X141272974Y-121454604D01*
X141212542Y-121445032D01*
X141169278Y-121401767D01*
X141159707Y-121341335D01*
X141167216Y-121316179D01*
X141168020Y-121314391D01*
X141218589Y-121152110D01*
X141218591Y-121152104D01*
X141224999Y-121081581D01*
X141225000Y-121081568D01*
X141225000Y-121075001D01*
X141224999Y-121075000D01*
X140500001Y-121075000D01*
X140500000Y-121075001D01*
X140500000Y-122326000D01*
X140481093Y-122384191D01*
X140431593Y-122420155D01*
X140401000Y-122425000D01*
X140099000Y-122425000D01*
X140040809Y-122406093D01*
X140004845Y-122356593D01*
X140000000Y-122326000D01*
X140000000Y-121075001D01*
X139999999Y-121075000D01*
X139275001Y-121075000D01*
X139275001Y-121081582D01*
X139281408Y-121152103D01*
X139281410Y-121152109D01*
X139331979Y-121314392D01*
X139331984Y-121314404D01*
X139413220Y-121448784D01*
X139427144Y-121508364D01*
X139413220Y-121551216D01*
X139331984Y-121685595D01*
X139331979Y-121685607D01*
X139281410Y-121847889D01*
X139281408Y-121847895D01*
X139275000Y-121918418D01*
X139275000Y-121973889D01*
X139256093Y-122032080D01*
X139206593Y-122068044D01*
X139145407Y-122068044D01*
X139105996Y-122043893D01*
X134513815Y-117451711D01*
X134486038Y-117397194D01*
X134484819Y-117381707D01*
X134484819Y-102483260D01*
X134503726Y-102425069D01*
X134553226Y-102389105D01*
X134614412Y-102389105D01*
X134662820Y-102423597D01*
G37*
%TD.AperFunction*%
%TA.AperFunction,Conductor*%
G36*
X145680580Y-117919407D02*
G01*
X145692391Y-117929495D01*
X145720502Y-117957605D01*
X145748281Y-118012121D01*
X145749500Y-118027610D01*
X145749500Y-118454274D01*
X145752353Y-118484694D01*
X145752355Y-118484703D01*
X145797207Y-118612883D01*
X145877845Y-118722144D01*
X145877847Y-118722146D01*
X145877850Y-118722150D01*
X145877853Y-118722152D01*
X145877855Y-118722154D01*
X145987116Y-118802792D01*
X145987117Y-118802792D01*
X145987118Y-118802793D01*
X146115301Y-118847646D01*
X146145725Y-118850499D01*
X146145727Y-118850500D01*
X146145734Y-118850500D01*
X146854273Y-118850500D01*
X146854273Y-118850499D01*
X146884699Y-118847646D01*
X146909644Y-118838917D01*
X146917802Y-118836063D01*
X146978972Y-118834690D01*
X147029267Y-118869534D01*
X147049475Y-118927285D01*
X147049500Y-118929507D01*
X147049500Y-119672389D01*
X147030593Y-119730580D01*
X147020504Y-119742393D01*
X146642393Y-120120504D01*
X146587876Y-120148281D01*
X146572389Y-120149500D01*
X146145725Y-120149500D01*
X146115305Y-120152353D01*
X146115296Y-120152355D01*
X145987116Y-120197207D01*
X145877855Y-120277845D01*
X145877845Y-120277855D01*
X145797207Y-120387116D01*
X145752355Y-120515296D01*
X145752353Y-120515305D01*
X145749500Y-120545725D01*
X145749500Y-121254274D01*
X145752353Y-121284694D01*
X145752355Y-121284703D01*
X145797207Y-121412883D01*
X145877845Y-121522144D01*
X145877847Y-121522146D01*
X145877850Y-121522150D01*
X145877853Y-121522152D01*
X145877855Y-121522154D01*
X145987116Y-121602792D01*
X145993674Y-121606258D01*
X145992490Y-121608498D01*
X146031871Y-121638476D01*
X146049500Y-121694865D01*
X146049500Y-121747389D01*
X146030593Y-121805580D01*
X146020504Y-121817393D01*
X145567393Y-122270504D01*
X145512876Y-122298281D01*
X145497389Y-122299500D01*
X145277876Y-122299500D01*
X145219685Y-122280593D01*
X145183721Y-122231093D01*
X145183721Y-122169907D01*
X145188935Y-122157019D01*
X145189196Y-122156484D01*
X145189198Y-122156483D01*
X145240573Y-122051393D01*
X145250500Y-121983260D01*
X145250500Y-121616740D01*
X145240573Y-121548607D01*
X145228244Y-121523388D01*
X145204825Y-121475483D01*
X145189198Y-121443517D01*
X145106483Y-121360802D01*
X145106481Y-121360801D01*
X145001395Y-121309427D01*
X144969478Y-121304777D01*
X144933260Y-121299500D01*
X144933257Y-121299500D01*
X144929837Y-121299252D01*
X144873167Y-121276184D01*
X144840879Y-121224211D01*
X144838000Y-121200511D01*
X144838000Y-120835255D01*
X144856907Y-120777064D01*
X144881996Y-120752941D01*
X144894552Y-120744552D01*
X144938867Y-120678231D01*
X144950500Y-120619748D01*
X144950500Y-117999499D01*
X144969407Y-117941309D01*
X145018907Y-117905345D01*
X145049500Y-117900500D01*
X145622389Y-117900500D01*
X145680580Y-117919407D01*
G37*
%TD.AperFunction*%
%TA.AperFunction,Conductor*%
G36*
X143695445Y-117988401D02*
G01*
X143738710Y-118031666D01*
X143749500Y-118076611D01*
X143749500Y-120619746D01*
X143749501Y-120619758D01*
X143761132Y-120678227D01*
X143761134Y-120678233D01*
X143805445Y-120744548D01*
X143805448Y-120744552D01*
X143871769Y-120788867D01*
X143871772Y-120788867D01*
X143875880Y-120790569D01*
X143922408Y-120830302D01*
X143937000Y-120882035D01*
X143937000Y-121200511D01*
X143918093Y-121258702D01*
X143868593Y-121294666D01*
X143845163Y-121299252D01*
X143841742Y-121299500D01*
X143841740Y-121299500D01*
X143814486Y-121303470D01*
X143773604Y-121309427D01*
X143668516Y-121360802D01*
X143651218Y-121378100D01*
X143627464Y-121395628D01*
X143624215Y-121397345D01*
X143622569Y-121398176D01*
X143569832Y-121423573D01*
X143563701Y-121427754D01*
X143563454Y-121427392D01*
X143561641Y-121428678D01*
X143561902Y-121429031D01*
X143555930Y-121433438D01*
X143514550Y-121474817D01*
X143513218Y-121476100D01*
X143470275Y-121515947D01*
X143465653Y-121521743D01*
X143465309Y-121521469D01*
X143456767Y-121532600D01*
X143144504Y-121844863D01*
X143089987Y-121872640D01*
X143029555Y-121863069D01*
X142986290Y-121819804D01*
X142975500Y-121774859D01*
X142975500Y-121616743D01*
X142974282Y-121608381D01*
X142965573Y-121548607D01*
X142953244Y-121523388D01*
X142929825Y-121475483D01*
X142914198Y-121443517D01*
X142831483Y-121360802D01*
X142831481Y-121360801D01*
X142726395Y-121309427D01*
X142694478Y-121304777D01*
X142658260Y-121299500D01*
X142658257Y-121299500D01*
X142654837Y-121299252D01*
X142598167Y-121276184D01*
X142565879Y-121224211D01*
X142563000Y-121200511D01*
X142563000Y-120882035D01*
X142581907Y-120823844D01*
X142624120Y-120790569D01*
X142628225Y-120788868D01*
X142628231Y-120788867D01*
X142694552Y-120744552D01*
X142738867Y-120678231D01*
X142750500Y-120619748D01*
X142750500Y-118877610D01*
X142769407Y-118819419D01*
X142779490Y-118807612D01*
X143580495Y-118006607D01*
X143635013Y-117978830D01*
X143695445Y-117988401D01*
G37*
%TD.AperFunction*%
%TD*%
M02*
