%TF.GenerationSoftware,KiCad,Pcbnew,7.0.5+dfsg-2*%
%TF.CreationDate,2024-02-04T12:59:49+01:00*%
%TF.ProjectId,microscope-lamp-pcb,6d696372-6f73-4636-9f70-652d6c616d70,1*%
%TF.SameCoordinates,Original*%
%TF.FileFunction,Plated,1,2,PTH,Drill*%
%TF.FilePolarity,Positive*%
%FSLAX46Y46*%
G04 Gerber Fmt 4.6, Leading zero omitted, Abs format (unit mm)*
G04 Created by KiCad (PCBNEW 7.0.5+dfsg-2) date 2024-02-04 12:59:49*
%MOMM*%
%LPD*%
G01*
G04 APERTURE LIST*
%TA.AperFunction,ViaDrill*%
%ADD10C,0.400000*%
%TD*%
%TA.AperFunction,ComponentDrill*%
%ADD11C,0.900000*%
%TD*%
G04 APERTURE END LIST*
D10*
X133750000Y-119250000D03*
X134000000Y-127000000D03*
X135500000Y-106250000D03*
X136500000Y-114250000D03*
X139000000Y-121250000D03*
X140750000Y-117750000D03*
X140750000Y-126000000D03*
X143250000Y-119750000D03*
X143500000Y-111250000D03*
X144750000Y-84500000D03*
X146500000Y-119500000D03*
X148250000Y-121000000D03*
X148250000Y-127000000D03*
X155000000Y-84500000D03*
X155250000Y-118250000D03*
X156500000Y-111250000D03*
X159250000Y-116000000D03*
X162250000Y-122750000D03*
X163250000Y-90500000D03*
X163250000Y-102500000D03*
X163250000Y-109000000D03*
X164750000Y-119500000D03*
X165750000Y-96500000D03*
X165750000Y-127250000D03*
D11*
%TO.C,D9*%
X135551772Y-98232419D03*
%TO.C,D10*%
X135553851Y-101777363D03*
%TO.C,D9*%
X136079868Y-95747924D03*
%TO.C,D10*%
X136081947Y-104261858D03*
%TO.C,D8*%
X137519827Y-92508611D03*
%TO.C,D11*%
X137525705Y-107499480D03*
%TO.C,D8*%
X139012802Y-90453708D03*
%TO.C,D11*%
X139018680Y-109554383D03*
%TO.C,D7*%
X141645818Y-88080132D03*
%TO.C,D12*%
X141654477Y-111924868D03*
%TO.C,D7*%
X143845523Y-86810132D03*
%TO.C,D12*%
X143854182Y-113194868D03*
%TO.C,D6*%
X147216322Y-85712706D03*
%TO.C,D13*%
X147226267Y-114288339D03*
%TO.C,D6*%
X149742408Y-85447204D03*
%TO.C,D13*%
X149752353Y-114553841D03*
%TO.C,D5*%
X153268149Y-85815684D03*
%TO.C,D14*%
X153277659Y-114181226D03*
%TO.C,D5*%
X155683833Y-86600587D03*
%TO.C,D14*%
X155693343Y-113396323D03*
%TO.C,D4*%
X158754884Y-88371259D03*
%TO.C,D15*%
X158762315Y-111622050D03*
%TO.C,D4*%
X160642472Y-90070851D03*
%TO.C,D15*%
X160649903Y-109922458D03*
%TO.C,D3*%
X162727820Y-92937548D03*
%TO.C,D16*%
X162731887Y-107053316D03*
%TO.C,D3*%
X163760931Y-95257953D03*
%TO.C,D16*%
X163764998Y-104732911D03*
%TO.C,D2*%
X164500000Y-98725000D03*
X164500000Y-101265000D03*
M02*
