%TF.GenerationSoftware,KiCad,Pcbnew,7.0.5+dfsg-2*%
%TF.CreationDate,2024-02-04T12:59:40+01:00*%
%TF.ProjectId,microscope-lamp-pcb,6d696372-6f73-4636-9f70-652d6c616d70,1*%
%TF.SameCoordinates,Original*%
%TF.FileFunction,Soldermask,Top*%
%TF.FilePolarity,Negative*%
%FSLAX46Y46*%
G04 Gerber Fmt 4.6, Leading zero omitted, Abs format (unit mm)*
G04 Created by KiCad (PCBNEW 7.0.5+dfsg-2) date 2024-02-04 12:59:40*
%MOMM*%
%LPD*%
G01*
G04 APERTURE LIST*
G04 Aperture macros list*
%AMRoundRect*
0 Rectangle with rounded corners*
0 $1 Rounding radius*
0 $2 $3 $4 $5 $6 $7 $8 $9 X,Y pos of 4 corners*
0 Add a 4 corners polygon primitive as box body*
4,1,4,$2,$3,$4,$5,$6,$7,$8,$9,$2,$3,0*
0 Add four circle primitives for the rounded corners*
1,1,$1+$1,$2,$3*
1,1,$1+$1,$4,$5*
1,1,$1+$1,$6,$7*
1,1,$1+$1,$8,$9*
0 Add four rect primitives between the rounded corners*
20,1,$1+$1,$2,$3,$4,$5,0*
20,1,$1+$1,$4,$5,$6,$7,0*
20,1,$1+$1,$6,$7,$8,$9,0*
20,1,$1+$1,$8,$9,$2,$3,0*%
%AMRotRect*
0 Rectangle, with rotation*
0 The origin of the aperture is its center*
0 $1 length*
0 $2 width*
0 $3 Rotation angle, in degrees counterclockwise*
0 Add horizontal line*
21,1,$1,$2,0,0,$3*%
G04 Aperture macros list end*
%ADD10C,2.100000*%
%ADD11RoundRect,0.225000X0.225000X0.250000X-0.225000X0.250000X-0.225000X-0.250000X0.225000X-0.250000X0*%
%ADD12RoundRect,0.225000X-0.225000X-0.250000X0.225000X-0.250000X0.225000X0.250000X-0.225000X0.250000X0*%
%ADD13C,1.800000*%
%ADD14RotRect,1.800000X1.800000X246.000000*%
%ADD15RotRect,1.800000X1.800000X222.000000*%
%ADD16RotRect,1.800000X1.800000X198.000000*%
%ADD17RotRect,1.800000X1.800000X174.000000*%
%ADD18RotRect,1.800000X1.800000X150.000000*%
%ADD19RotRect,1.800000X1.800000X126.000000*%
%ADD20RotRect,1.800000X1.800000X102.000000*%
%ADD21RotRect,1.800000X1.800000X78.000000*%
%ADD22RotRect,1.800000X1.800000X54.000000*%
%ADD23RotRect,1.800000X1.800000X30.000000*%
%ADD24RotRect,1.800000X1.800000X6.000000*%
%ADD25RotRect,1.800000X1.800000X342.000000*%
%ADD26RotRect,1.800000X1.800000X318.000000*%
%ADD27RotRect,1.800000X1.800000X294.000000*%
%ADD28RoundRect,0.200000X-0.275000X0.200000X-0.275000X-0.200000X0.275000X-0.200000X0.275000X0.200000X0*%
%ADD29RoundRect,0.150000X-0.512500X-0.150000X0.512500X-0.150000X0.512500X0.150000X-0.512500X0.150000X0*%
%ADD30RoundRect,0.200000X0.275000X-0.200000X0.275000X0.200000X-0.275000X0.200000X-0.275000X-0.200000X0*%
%ADD31R,0.800000X2.700000*%
%ADD32R,0.700000X1.200000*%
%ADD33R,0.760000X1.200000*%
%ADD34R,0.800000X1.200000*%
%ADD35R,1.800000X1.350000*%
%ADD36R,1.800000X1.500000*%
%ADD37RoundRect,0.250000X0.300000X-0.300000X0.300000X0.300000X-0.300000X0.300000X-0.300000X-0.300000X0*%
%ADD38R,1.800000X1.800000*%
G04 APERTURE END LIST*
D10*
%TO.C,H2*%
X164250000Y-125250000D03*
%TD*%
%TO.C,H1*%
X135750000Y-125250000D03*
%TD*%
D11*
%TO.C,C4*%
X144025000Y-125250000D03*
X142475000Y-125250000D03*
%TD*%
%TO.C,C3*%
X144025000Y-126750000D03*
X142475000Y-126750000D03*
%TD*%
D12*
%TO.C,C2*%
X146225000Y-123250000D03*
X147775000Y-123250000D03*
%TD*%
%TO.C,C1*%
X146225000Y-124750000D03*
X147775000Y-124750000D03*
%TD*%
D13*
%TO.C,D16*%
X162731887Y-107053316D03*
D14*
X163764998Y-104732911D03*
%TD*%
D13*
%TO.C,D15*%
X158762315Y-111622050D03*
D15*
X160649903Y-109922458D03*
%TD*%
D13*
%TO.C,D14*%
X153277659Y-114181226D03*
D16*
X155693343Y-113396323D03*
%TD*%
D13*
%TO.C,D13*%
X147226267Y-114288339D03*
D17*
X149752353Y-114553841D03*
%TD*%
D13*
%TO.C,D12*%
X141654477Y-111924868D03*
D18*
X143854182Y-113194868D03*
%TD*%
D13*
%TO.C,D11*%
X137525705Y-107499480D03*
D19*
X139018680Y-109554383D03*
%TD*%
D13*
%TO.C,D10*%
X135553851Y-101777363D03*
D20*
X136081947Y-104261858D03*
%TD*%
D13*
%TO.C,D9*%
X136079868Y-95747924D03*
D21*
X135551772Y-98232419D03*
%TD*%
D13*
%TO.C,D8*%
X139012802Y-90453708D03*
D22*
X137519827Y-92508611D03*
%TD*%
D13*
%TO.C,D7*%
X143845523Y-86810132D03*
D23*
X141645818Y-88080132D03*
%TD*%
D13*
%TO.C,D6*%
X149742408Y-85447204D03*
D24*
X147216322Y-85712706D03*
%TD*%
D13*
%TO.C,D5*%
X155683833Y-86600587D03*
D25*
X153268149Y-85815684D03*
%TD*%
D13*
%TO.C,D4*%
X160642472Y-90070851D03*
D26*
X158754884Y-88371259D03*
%TD*%
D13*
%TO.C,D3*%
X163760931Y-95257953D03*
D27*
X162727820Y-92937548D03*
%TD*%
D28*
%TO.C,R5*%
X160500000Y-121325000D03*
X160500000Y-119675000D03*
%TD*%
D29*
%TO.C,U1*%
X142112500Y-121800000D03*
X142112500Y-122750000D03*
X142112500Y-123700000D03*
X144387500Y-123700000D03*
X144387500Y-122750000D03*
X144387500Y-121800000D03*
%TD*%
D30*
%TO.C,R4*%
X154500000Y-121575000D03*
X154500000Y-119925000D03*
%TD*%
%TO.C,R3*%
X156000000Y-121575000D03*
X156000000Y-119925000D03*
%TD*%
D28*
%TO.C,R2*%
X140250000Y-120825000D03*
X140250000Y-119175000D03*
%TD*%
D30*
%TO.C,R1*%
X140250000Y-123825000D03*
X140250000Y-122175000D03*
%TD*%
D31*
%TO.C,L1*%
X144350000Y-119250000D03*
X142150000Y-119250000D03*
%TD*%
D32*
%TO.C,J1*%
X154750000Y-122967500D03*
D33*
X156770000Y-122967500D03*
D34*
X158000000Y-122967500D03*
D32*
X155750000Y-122967500D03*
D33*
X153730000Y-122967500D03*
D34*
X152500000Y-122967500D03*
D35*
X150125000Y-123022500D03*
D36*
X160375000Y-126602500D03*
X150125000Y-126602500D03*
D35*
X160375000Y-123022500D03*
%TD*%
D37*
%TO.C,D1*%
X146500000Y-120900000D03*
X146500000Y-118100000D03*
%TD*%
D13*
%TO.C,D2*%
X164500000Y-101265000D03*
D38*
X164500000Y-98725000D03*
%TD*%
M02*
