%TF.GenerationSoftware,KiCad,Pcbnew,7.0.5+dfsg-2*%
%TF.CreationDate,2024-02-04T12:59:40+01:00*%
%TF.ProjectId,microscope-lamp-pcb,6d696372-6f73-4636-9f70-652d6c616d70,1*%
%TF.SameCoordinates,Original*%
%TF.FileFunction,Legend,Top*%
%TF.FilePolarity,Positive*%
%FSLAX46Y46*%
G04 Gerber Fmt 4.6, Leading zero omitted, Abs format (unit mm)*
G04 Created by KiCad (PCBNEW 7.0.5+dfsg-2) date 2024-02-04 12:59:40*
%MOMM*%
%LPD*%
G01*
G04 APERTURE LIST*
%ADD10C,0.150000*%
%ADD11C,0.120000*%
G04 APERTURE END LIST*
D10*
%TO.C,C4*%
X140583333Y-125609580D02*
X140535714Y-125657200D01*
X140535714Y-125657200D02*
X140392857Y-125704819D01*
X140392857Y-125704819D02*
X140297619Y-125704819D01*
X140297619Y-125704819D02*
X140154762Y-125657200D01*
X140154762Y-125657200D02*
X140059524Y-125561961D01*
X140059524Y-125561961D02*
X140011905Y-125466723D01*
X140011905Y-125466723D02*
X139964286Y-125276247D01*
X139964286Y-125276247D02*
X139964286Y-125133390D01*
X139964286Y-125133390D02*
X140011905Y-124942914D01*
X140011905Y-124942914D02*
X140059524Y-124847676D01*
X140059524Y-124847676D02*
X140154762Y-124752438D01*
X140154762Y-124752438D02*
X140297619Y-124704819D01*
X140297619Y-124704819D02*
X140392857Y-124704819D01*
X140392857Y-124704819D02*
X140535714Y-124752438D01*
X140535714Y-124752438D02*
X140583333Y-124800057D01*
X141440476Y-125038152D02*
X141440476Y-125704819D01*
X141202381Y-124657200D02*
X140964286Y-125371485D01*
X140964286Y-125371485D02*
X141583333Y-125371485D01*
%TO.C,C3*%
X140583333Y-127109580D02*
X140535714Y-127157200D01*
X140535714Y-127157200D02*
X140392857Y-127204819D01*
X140392857Y-127204819D02*
X140297619Y-127204819D01*
X140297619Y-127204819D02*
X140154762Y-127157200D01*
X140154762Y-127157200D02*
X140059524Y-127061961D01*
X140059524Y-127061961D02*
X140011905Y-126966723D01*
X140011905Y-126966723D02*
X139964286Y-126776247D01*
X139964286Y-126776247D02*
X139964286Y-126633390D01*
X139964286Y-126633390D02*
X140011905Y-126442914D01*
X140011905Y-126442914D02*
X140059524Y-126347676D01*
X140059524Y-126347676D02*
X140154762Y-126252438D01*
X140154762Y-126252438D02*
X140297619Y-126204819D01*
X140297619Y-126204819D02*
X140392857Y-126204819D01*
X140392857Y-126204819D02*
X140535714Y-126252438D01*
X140535714Y-126252438D02*
X140583333Y-126300057D01*
X140916667Y-126204819D02*
X141535714Y-126204819D01*
X141535714Y-126204819D02*
X141202381Y-126585771D01*
X141202381Y-126585771D02*
X141345238Y-126585771D01*
X141345238Y-126585771D02*
X141440476Y-126633390D01*
X141440476Y-126633390D02*
X141488095Y-126681009D01*
X141488095Y-126681009D02*
X141535714Y-126776247D01*
X141535714Y-126776247D02*
X141535714Y-127014342D01*
X141535714Y-127014342D02*
X141488095Y-127109580D01*
X141488095Y-127109580D02*
X141440476Y-127157200D01*
X141440476Y-127157200D02*
X141345238Y-127204819D01*
X141345238Y-127204819D02*
X141059524Y-127204819D01*
X141059524Y-127204819D02*
X140964286Y-127157200D01*
X140964286Y-127157200D02*
X140916667Y-127109580D01*
%TO.C,C2*%
X148207691Y-122509740D02*
X148160072Y-122557360D01*
X148160072Y-122557360D02*
X148017215Y-122604979D01*
X148017215Y-122604979D02*
X147921977Y-122604979D01*
X147921977Y-122604979D02*
X147779120Y-122557360D01*
X147779120Y-122557360D02*
X147683882Y-122462121D01*
X147683882Y-122462121D02*
X147636263Y-122366883D01*
X147636263Y-122366883D02*
X147588644Y-122176407D01*
X147588644Y-122176407D02*
X147588644Y-122033550D01*
X147588644Y-122033550D02*
X147636263Y-121843074D01*
X147636263Y-121843074D02*
X147683882Y-121747836D01*
X147683882Y-121747836D02*
X147779120Y-121652598D01*
X147779120Y-121652598D02*
X147921977Y-121604979D01*
X147921977Y-121604979D02*
X148017215Y-121604979D01*
X148017215Y-121604979D02*
X148160072Y-121652598D01*
X148160072Y-121652598D02*
X148207691Y-121700217D01*
X148588644Y-121700217D02*
X148636263Y-121652598D01*
X148636263Y-121652598D02*
X148731501Y-121604979D01*
X148731501Y-121604979D02*
X148969596Y-121604979D01*
X148969596Y-121604979D02*
X149064834Y-121652598D01*
X149064834Y-121652598D02*
X149112453Y-121700217D01*
X149112453Y-121700217D02*
X149160072Y-121795455D01*
X149160072Y-121795455D02*
X149160072Y-121890693D01*
X149160072Y-121890693D02*
X149112453Y-122033550D01*
X149112453Y-122033550D02*
X148541025Y-122604979D01*
X148541025Y-122604979D02*
X149160072Y-122604979D01*
%TO.C,C1*%
X146833333Y-126609580D02*
X146785714Y-126657200D01*
X146785714Y-126657200D02*
X146642857Y-126704819D01*
X146642857Y-126704819D02*
X146547619Y-126704819D01*
X146547619Y-126704819D02*
X146404762Y-126657200D01*
X146404762Y-126657200D02*
X146309524Y-126561961D01*
X146309524Y-126561961D02*
X146261905Y-126466723D01*
X146261905Y-126466723D02*
X146214286Y-126276247D01*
X146214286Y-126276247D02*
X146214286Y-126133390D01*
X146214286Y-126133390D02*
X146261905Y-125942914D01*
X146261905Y-125942914D02*
X146309524Y-125847676D01*
X146309524Y-125847676D02*
X146404762Y-125752438D01*
X146404762Y-125752438D02*
X146547619Y-125704819D01*
X146547619Y-125704819D02*
X146642857Y-125704819D01*
X146642857Y-125704819D02*
X146785714Y-125752438D01*
X146785714Y-125752438D02*
X146833333Y-125800057D01*
X147785714Y-126704819D02*
X147214286Y-126704819D01*
X147500000Y-126704819D02*
X147500000Y-125704819D01*
X147500000Y-125704819D02*
X147404762Y-125847676D01*
X147404762Y-125847676D02*
X147309524Y-125942914D01*
X147309524Y-125942914D02*
X147214286Y-125990533D01*
%TO.C,R5*%
X162384819Y-120666666D02*
X161908628Y-120999999D01*
X162384819Y-121238094D02*
X161384819Y-121238094D01*
X161384819Y-121238094D02*
X161384819Y-120857142D01*
X161384819Y-120857142D02*
X161432438Y-120761904D01*
X161432438Y-120761904D02*
X161480057Y-120714285D01*
X161480057Y-120714285D02*
X161575295Y-120666666D01*
X161575295Y-120666666D02*
X161718152Y-120666666D01*
X161718152Y-120666666D02*
X161813390Y-120714285D01*
X161813390Y-120714285D02*
X161861009Y-120761904D01*
X161861009Y-120761904D02*
X161908628Y-120857142D01*
X161908628Y-120857142D02*
X161908628Y-121238094D01*
X161384819Y-119761904D02*
X161384819Y-120238094D01*
X161384819Y-120238094D02*
X161861009Y-120285713D01*
X161861009Y-120285713D02*
X161813390Y-120238094D01*
X161813390Y-120238094D02*
X161765771Y-120142856D01*
X161765771Y-120142856D02*
X161765771Y-119904761D01*
X161765771Y-119904761D02*
X161813390Y-119809523D01*
X161813390Y-119809523D02*
X161861009Y-119761904D01*
X161861009Y-119761904D02*
X161956247Y-119714285D01*
X161956247Y-119714285D02*
X162194342Y-119714285D01*
X162194342Y-119714285D02*
X162289580Y-119761904D01*
X162289580Y-119761904D02*
X162337200Y-119809523D01*
X162337200Y-119809523D02*
X162384819Y-119904761D01*
X162384819Y-119904761D02*
X162384819Y-120142856D01*
X162384819Y-120142856D02*
X162337200Y-120238094D01*
X162337200Y-120238094D02*
X162289580Y-120285713D01*
%TO.C,U1*%
X144594547Y-125984396D02*
X145404070Y-125984396D01*
X145404070Y-125984396D02*
X145499308Y-125936777D01*
X145499308Y-125936777D02*
X145546928Y-125889158D01*
X145546928Y-125889158D02*
X145594547Y-125793920D01*
X145594547Y-125793920D02*
X145594547Y-125603444D01*
X145594547Y-125603444D02*
X145546928Y-125508206D01*
X145546928Y-125508206D02*
X145499308Y-125460587D01*
X145499308Y-125460587D02*
X145404070Y-125412968D01*
X145404070Y-125412968D02*
X144594547Y-125412968D01*
X145594547Y-124412968D02*
X145594547Y-124984396D01*
X145594547Y-124698682D02*
X144594547Y-124698682D01*
X144594547Y-124698682D02*
X144737404Y-124793920D01*
X144737404Y-124793920D02*
X144832642Y-124889158D01*
X144832642Y-124889158D02*
X144880261Y-124984396D01*
%TO.C,R4*%
X153454819Y-120916666D02*
X152978628Y-121249999D01*
X153454819Y-121488094D02*
X152454819Y-121488094D01*
X152454819Y-121488094D02*
X152454819Y-121107142D01*
X152454819Y-121107142D02*
X152502438Y-121011904D01*
X152502438Y-121011904D02*
X152550057Y-120964285D01*
X152550057Y-120964285D02*
X152645295Y-120916666D01*
X152645295Y-120916666D02*
X152788152Y-120916666D01*
X152788152Y-120916666D02*
X152883390Y-120964285D01*
X152883390Y-120964285D02*
X152931009Y-121011904D01*
X152931009Y-121011904D02*
X152978628Y-121107142D01*
X152978628Y-121107142D02*
X152978628Y-121488094D01*
X152788152Y-120059523D02*
X153454819Y-120059523D01*
X152407200Y-120297618D02*
X153121485Y-120535713D01*
X153121485Y-120535713D02*
X153121485Y-119916666D01*
%TO.C,R3*%
X157954819Y-120916666D02*
X157478628Y-121249999D01*
X157954819Y-121488094D02*
X156954819Y-121488094D01*
X156954819Y-121488094D02*
X156954819Y-121107142D01*
X156954819Y-121107142D02*
X157002438Y-121011904D01*
X157002438Y-121011904D02*
X157050057Y-120964285D01*
X157050057Y-120964285D02*
X157145295Y-120916666D01*
X157145295Y-120916666D02*
X157288152Y-120916666D01*
X157288152Y-120916666D02*
X157383390Y-120964285D01*
X157383390Y-120964285D02*
X157431009Y-121011904D01*
X157431009Y-121011904D02*
X157478628Y-121107142D01*
X157478628Y-121107142D02*
X157478628Y-121488094D01*
X156954819Y-120583332D02*
X156954819Y-119964285D01*
X156954819Y-119964285D02*
X157335771Y-120297618D01*
X157335771Y-120297618D02*
X157335771Y-120154761D01*
X157335771Y-120154761D02*
X157383390Y-120059523D01*
X157383390Y-120059523D02*
X157431009Y-120011904D01*
X157431009Y-120011904D02*
X157526247Y-119964285D01*
X157526247Y-119964285D02*
X157764342Y-119964285D01*
X157764342Y-119964285D02*
X157859580Y-120011904D01*
X157859580Y-120011904D02*
X157907200Y-120059523D01*
X157907200Y-120059523D02*
X157954819Y-120154761D01*
X157954819Y-120154761D02*
X157954819Y-120440475D01*
X157954819Y-120440475D02*
X157907200Y-120535713D01*
X157907200Y-120535713D02*
X157859580Y-120583332D01*
%TO.C,R2*%
X139204819Y-120166666D02*
X138728628Y-120499999D01*
X139204819Y-120738094D02*
X138204819Y-120738094D01*
X138204819Y-120738094D02*
X138204819Y-120357142D01*
X138204819Y-120357142D02*
X138252438Y-120261904D01*
X138252438Y-120261904D02*
X138300057Y-120214285D01*
X138300057Y-120214285D02*
X138395295Y-120166666D01*
X138395295Y-120166666D02*
X138538152Y-120166666D01*
X138538152Y-120166666D02*
X138633390Y-120214285D01*
X138633390Y-120214285D02*
X138681009Y-120261904D01*
X138681009Y-120261904D02*
X138728628Y-120357142D01*
X138728628Y-120357142D02*
X138728628Y-120738094D01*
X138300057Y-119785713D02*
X138252438Y-119738094D01*
X138252438Y-119738094D02*
X138204819Y-119642856D01*
X138204819Y-119642856D02*
X138204819Y-119404761D01*
X138204819Y-119404761D02*
X138252438Y-119309523D01*
X138252438Y-119309523D02*
X138300057Y-119261904D01*
X138300057Y-119261904D02*
X138395295Y-119214285D01*
X138395295Y-119214285D02*
X138490533Y-119214285D01*
X138490533Y-119214285D02*
X138633390Y-119261904D01*
X138633390Y-119261904D02*
X139204819Y-119833332D01*
X139204819Y-119833332D02*
X139204819Y-119214285D01*
%TO.C,R1*%
X139274819Y-123166666D02*
X138798628Y-123499999D01*
X139274819Y-123738094D02*
X138274819Y-123738094D01*
X138274819Y-123738094D02*
X138274819Y-123357142D01*
X138274819Y-123357142D02*
X138322438Y-123261904D01*
X138322438Y-123261904D02*
X138370057Y-123214285D01*
X138370057Y-123214285D02*
X138465295Y-123166666D01*
X138465295Y-123166666D02*
X138608152Y-123166666D01*
X138608152Y-123166666D02*
X138703390Y-123214285D01*
X138703390Y-123214285D02*
X138751009Y-123261904D01*
X138751009Y-123261904D02*
X138798628Y-123357142D01*
X138798628Y-123357142D02*
X138798628Y-123738094D01*
X139274819Y-122214285D02*
X139274819Y-122785713D01*
X139274819Y-122499999D02*
X138274819Y-122499999D01*
X138274819Y-122499999D02*
X138417676Y-122595237D01*
X138417676Y-122595237D02*
X138512914Y-122690475D01*
X138512914Y-122690475D02*
X138560533Y-122785713D01*
%TO.C,L1*%
X143083333Y-117204819D02*
X142607143Y-117204819D01*
X142607143Y-117204819D02*
X142607143Y-116204819D01*
X143940476Y-117204819D02*
X143369048Y-117204819D01*
X143654762Y-117204819D02*
X143654762Y-116204819D01*
X143654762Y-116204819D02*
X143559524Y-116347676D01*
X143559524Y-116347676D02*
X143464286Y-116442914D01*
X143464286Y-116442914D02*
X143369048Y-116490533D01*
%TO.C,J1*%
X150916666Y-120454819D02*
X150916666Y-121169104D01*
X150916666Y-121169104D02*
X150869047Y-121311961D01*
X150869047Y-121311961D02*
X150773809Y-121407200D01*
X150773809Y-121407200D02*
X150630952Y-121454819D01*
X150630952Y-121454819D02*
X150535714Y-121454819D01*
X151916666Y-121454819D02*
X151345238Y-121454819D01*
X151630952Y-121454819D02*
X151630952Y-120454819D01*
X151630952Y-120454819D02*
X151535714Y-120597676D01*
X151535714Y-120597676D02*
X151440476Y-120692914D01*
X151440476Y-120692914D02*
X151345238Y-120740533D01*
%TO.C,D1*%
X148954819Y-120238094D02*
X147954819Y-120238094D01*
X147954819Y-120238094D02*
X147954819Y-119999999D01*
X147954819Y-119999999D02*
X148002438Y-119857142D01*
X148002438Y-119857142D02*
X148097676Y-119761904D01*
X148097676Y-119761904D02*
X148192914Y-119714285D01*
X148192914Y-119714285D02*
X148383390Y-119666666D01*
X148383390Y-119666666D02*
X148526247Y-119666666D01*
X148526247Y-119666666D02*
X148716723Y-119714285D01*
X148716723Y-119714285D02*
X148811961Y-119761904D01*
X148811961Y-119761904D02*
X148907200Y-119857142D01*
X148907200Y-119857142D02*
X148954819Y-119999999D01*
X148954819Y-119999999D02*
X148954819Y-120238094D01*
X148954819Y-118714285D02*
X148954819Y-119285713D01*
X148954819Y-118999999D02*
X147954819Y-118999999D01*
X147954819Y-118999999D02*
X148097676Y-119095237D01*
X148097676Y-119095237D02*
X148192914Y-119190475D01*
X148192914Y-119190475D02*
X148240533Y-119285713D01*
D11*
%TO.C,C4*%
X143390580Y-124740000D02*
X143109420Y-124740000D01*
X143390580Y-125760000D02*
X143109420Y-125760000D01*
%TO.C,C3*%
X143390580Y-126240000D02*
X143109420Y-126240000D01*
X143390580Y-127260000D02*
X143109420Y-127260000D01*
%TO.C,C2*%
X146859420Y-123760000D02*
X147140580Y-123760000D01*
X146859420Y-122740000D02*
X147140580Y-122740000D01*
%TO.C,C1*%
X146859420Y-125260000D02*
X147140580Y-125260000D01*
X146859420Y-124240000D02*
X147140580Y-124240000D01*
%TO.C,D16*%
X163553600Y-107859577D02*
G75*
G03*
X165011651Y-104970512I-305158J1966463D01*
G01*
X162685211Y-104502875D02*
G75*
G03*
X161838498Y-106405024I563231J-1390239D01*
G01*
X162754252Y-103965454D02*
G75*
G03*
X161582885Y-106982158I494190J-1927660D01*
G01*
X163811457Y-107283443D02*
G75*
G03*
X164658468Y-105381424I-563015J1390329D01*
G01*
X162896323Y-104028707D02*
X162753809Y-103965256D01*
X165012094Y-104970709D02*
X164869581Y-104907258D01*
%TO.C,D15*%
X159185052Y-112692827D02*
G75*
G03*
X161692137Y-110646577I521057J1920573D01*
G01*
X159757033Y-109273120D02*
G75*
G03*
X158209847Y-110666431I-50924J-1499134D01*
G01*
X160038693Y-108810243D02*
G75*
G03*
X157741592Y-111089702I-332584J-1962011D01*
G01*
X159654951Y-112271381D02*
G75*
G03*
X161202355Y-110878311I51158J1499127D01*
G01*
X160142754Y-108925814D02*
X160038370Y-108809883D01*
X161692460Y-110646937D02*
X161588076Y-110531007D01*
%TO.C,D14*%
X153228324Y-115331372D02*
G75*
G03*
X156350945Y-114481754I1257177J1542597D01*
G01*
X155141775Y-112439960D02*
G75*
G03*
X153161641Y-113083515I-656274J-1348815D01*
G01*
X155587353Y-112131664D02*
G75*
G03*
X152561709Y-113279737I-1101852J-1657111D01*
G01*
X153829016Y-115137487D02*
G75*
G03*
X155809251Y-114494241I656485J1348712D01*
G01*
X155635411Y-112279567D02*
X155587204Y-112131202D01*
X156351094Y-114482214D02*
X156302888Y-114333849D01*
%TO.C,D13*%
X146713391Y-115318983D02*
G75*
G03*
X149911618Y-115812902I1775919J897893D01*
G01*
X149637458Y-113455817D02*
G75*
G03*
X147566757Y-113238342I-1148148J-965273D01*
G01*
X150169910Y-113355408D02*
G75*
G03*
X146938882Y-113173584I-1680600J-1065682D01*
G01*
X147341010Y-115386184D02*
G75*
G03*
X149411678Y-115603984I1148300J965094D01*
G01*
X150153655Y-113510071D02*
X150169962Y-113354925D01*
X149911567Y-115813383D02*
X149927874Y-115658238D01*
%TO.C,D12*%
X140766742Y-112657802D02*
G75*
G03*
X143487571Y-114409856I1987588J97934D01*
G01*
X144195828Y-112145041D02*
G75*
G03*
X142392603Y-111104138I-1441498J-414827D01*
G01*
X144723087Y-112269880D02*
G75*
G03*
X141845349Y-110789600I-1968757J-289988D01*
G01*
X141312767Y-112974469D02*
G75*
G03*
X143115828Y-114015655I1441563J414601D01*
G01*
X144645329Y-112404561D02*
X144723329Y-112269461D01*
X143487329Y-114410275D02*
X143565329Y-114275175D01*
%TO.C,D11*%
X136416607Y-107807974D02*
G75*
G03*
X138189584Y-110515216I1855586J-718957D01*
G01*
X139757792Y-108734278D02*
G75*
G03*
X138533838Y-107049928I-1485599J207347D01*
G01*
X140188690Y-109062780D02*
G75*
G03*
X138161831Y-106539995I-1916497J535849D01*
G01*
X136786625Y-108319352D02*
G75*
G03*
X138010316Y-110003894I1485568J-207579D01*
G01*
X140062876Y-109154190D02*
X140189083Y-109062495D01*
X138189193Y-110515501D02*
X138315399Y-110423806D01*
%TO.C,D10*%
X134415164Y-101608076D02*
G75*
G03*
X134933724Y-104802398I1402735J-1411535D01*
G01*
X137090727Y-103813279D02*
G75*
G03*
X136657676Y-101776721I-1272828J793668D01*
G01*
X137350758Y-104288643D02*
G75*
G03*
X136525239Y-101159565I-1532859J1269032D01*
G01*
X134545197Y-102225743D02*
G75*
G03*
X134977928Y-104262369I1272702J-793868D01*
G01*
X137198641Y-104320976D02*
X137351232Y-104288542D01*
X134933251Y-104802500D02*
X135085842Y-104770065D01*
%TO.C,D9*%
X135108480Y-95130127D02*
G75*
G03*
X134282962Y-98259204I707340J-1860045D01*
G01*
X136655791Y-98232930D02*
G75*
G03*
X137088523Y-96196303I-839971J1242758D01*
G01*
X136699995Y-98772960D02*
G75*
G03*
X137218556Y-95578636I-884175J1782788D01*
G01*
X134976043Y-95747282D02*
G75*
G03*
X134542992Y-97783840I839777J-1242890D01*
G01*
X136547877Y-98740626D02*
X136700468Y-98773061D01*
X134282487Y-98259103D02*
X134435078Y-98291537D01*
%TO.C,D8*%
X138376676Y-89494223D02*
G75*
G03*
X136349817Y-92017008I-110362J-1986936D01*
G01*
X138528191Y-92958122D02*
G75*
G03*
X139751882Y-91273580I-261877J1476963D01*
G01*
X138348923Y-93469443D02*
G75*
G03*
X140121899Y-90762202I-82609J1988284D01*
G01*
X138004669Y-90004155D02*
G75*
G03*
X136780714Y-91688506I261645J-1477004D01*
G01*
X138223108Y-93378034D02*
X138349314Y-93469729D01*
X136349424Y-92016723D02*
X136475631Y-92108418D01*
%TO.C,D7*%
X143654651Y-85674864D02*
G75*
G03*
X140776913Y-87155144I-908981J-1770268D01*
G01*
X142384172Y-88900920D02*
G75*
G03*
X144187234Y-87859733I361498J1455788D01*
G01*
X142012429Y-89295120D02*
G75*
G03*
X144733259Y-87543066I733241J1849988D01*
G01*
X143107397Y-85989402D02*
G75*
G03*
X141304172Y-87030305I-361727J-1455730D01*
G01*
X141934671Y-89160439D02*
X142012671Y-89295539D01*
X140776671Y-87154725D02*
X140854671Y-87289825D01*
%TO.C,D6*%
X150029793Y-84332449D02*
G75*
G03*
X146798765Y-84514273I-1550428J-1247506D01*
G01*
X147556998Y-86762848D02*
G75*
G03*
X149627664Y-86545049I922367J1182893D01*
G01*
X147057057Y-86971767D02*
G75*
G03*
X150255284Y-86477848I1422308J1391812D01*
G01*
X149401918Y-84397206D02*
G75*
G03*
X147331216Y-84614681I-922553J-1182749D01*
G01*
X147040801Y-86817103D02*
X147057108Y-86972248D01*
X146798713Y-84513790D02*
X146815020Y-84668936D01*
%TO.C,D5*%
X156399784Y-85699098D02*
G75*
G03*
X153374138Y-84551024I-1923793J-509038D01*
G01*
X153152241Y-86913601D02*
G75*
G03*
X155132476Y-87556847I1323750J705465D01*
G01*
X152610548Y-86901115D02*
G75*
G03*
X155733167Y-87750732I1865443J692979D01*
G01*
X155799852Y-85502876D02*
G75*
G03*
X153819716Y-84859320I-1323861J-705260D01*
G01*
X152658604Y-86753210D02*
X152610398Y-86901575D01*
X153374288Y-84550563D02*
X153326081Y-84698928D01*
%TO.C,D4*%
X161663194Y-89538503D02*
G75*
G03*
X159366094Y-87259045I-1964516J317448D01*
G01*
X158202433Y-89327112D02*
G75*
G03*
X159749836Y-90720181I1496245J106057D01*
G01*
X157712651Y-89095378D02*
G75*
G03*
X160219735Y-91141627I1986027J-125677D01*
G01*
X161194940Y-89115232D02*
G75*
G03*
X159647754Y-87721921I-1496262J-105823D01*
G01*
X157816711Y-88979808D02*
X157712327Y-89095738D01*
X159366417Y-87258684D02*
X159262033Y-87374615D01*
%TO.C,D3*%
X164909934Y-95186795D02*
G75*
G03*
X163738566Y-92170090I-1665558J1089044D01*
G01*
X161834350Y-93586061D02*
G75*
G03*
X162681361Y-95488080I1410026J-511690D01*
G01*
X161481168Y-93175150D02*
G75*
G03*
X162939218Y-96064213I1763208J-922601D01*
G01*
X164654322Y-94609661D02*
G75*
G03*
X163807608Y-92707510I-1409946J511910D01*
G01*
X161623237Y-93111895D02*
X161480724Y-93175346D01*
X163739009Y-92169893D02*
X163596495Y-92233344D01*
%TO.C,R5*%
X161022500Y-120262742D02*
X161022500Y-120737258D01*
X159977500Y-120262742D02*
X159977500Y-120737258D01*
%TO.C,U1*%
X143250000Y-121190000D02*
X144050000Y-121190000D01*
X143250000Y-124310000D02*
X144050000Y-124310000D01*
X143250000Y-124310000D02*
X142450000Y-124310000D01*
X143250000Y-121190000D02*
X141450000Y-121190000D01*
%TO.C,R4*%
X155022500Y-120987258D02*
X155022500Y-120512742D01*
X153977500Y-120987258D02*
X153977500Y-120512742D01*
%TO.C,R3*%
X156522500Y-120987258D02*
X156522500Y-120512742D01*
X155477500Y-120987258D02*
X155477500Y-120512742D01*
%TO.C,R2*%
X140772500Y-119762742D02*
X140772500Y-120237258D01*
X139727500Y-119762742D02*
X139727500Y-120237258D01*
%TO.C,R1*%
X140772500Y-123237258D02*
X140772500Y-122762742D01*
X139727500Y-123237258D02*
X139727500Y-122762742D01*
%TO.C,L1*%
X144750000Y-120850000D02*
X141750000Y-120850000D01*
X144750000Y-117650000D02*
X141750000Y-117650000D01*
%TO.C,J1*%
X159850000Y-123897500D02*
X159850000Y-125652500D01*
X150650000Y-127600000D02*
X150650000Y-129000000D01*
X159850000Y-127600000D02*
X159850000Y-129000000D01*
X150650000Y-123897500D02*
X150650000Y-125652500D01*
%TO.C,D1*%
X147500000Y-121710000D02*
X147500000Y-117850000D01*
X145500000Y-121710000D02*
X147500000Y-121710000D01*
X145500000Y-121710000D02*
X145500000Y-117850000D01*
%TO.C,D2*%
X165578608Y-101667334D02*
G75*
G03*
X165735515Y-98435001I-1078608J1672334D01*
G01*
X163420001Y-98954040D02*
G75*
G03*
X163420164Y-101036129I1079999J-1040960D01*
G01*
X163264485Y-98435001D02*
G75*
G03*
X163421392Y-101667334I1235515J-1559999D01*
G01*
X165579836Y-101036129D02*
G75*
G03*
X165579999Y-98954040I-1079836J1041129D01*
G01*
X163420000Y-98435000D02*
X163264000Y-98435000D01*
X165736000Y-98435000D02*
X165580000Y-98435000D01*
%TD*%
M02*
