%TF.GenerationSoftware,KiCad,Pcbnew,7.0.5+dfsg-2*%
%TF.CreationDate,2024-03-17T17:57:46+01:00*%
%TF.ProjectId,microscope-lamp-pcb,6d696372-6f73-4636-9f70-652d6c616d70,1*%
%TF.SameCoordinates,Original*%
%TF.FileFunction,Drillmap*%
%TF.FilePolarity,Positive*%
%FSLAX45Y45*%
G04 Gerber Fmt 4.5, Leading zero omitted, Abs format (unit mm)*
G04 Created by KiCad (PCBNEW 7.0.5+dfsg-2) date 2024-03-17 17:57:46*
%MOMM*%
%LPD*%
G01*
G04 APERTURE LIST*
%ADD10C,0.100000*%
%ADD11C,0.200000*%
%ADD12C,0.210000*%
G04 APERTURE END LIST*
D10*
X16250000Y-10000000D02*
G75*
G03*
X16250000Y-10000000I-1250000J0D01*
G01*
X16700000Y-12800000D02*
X16700000Y-10000000D01*
X13300000Y-12800000D02*
X16700000Y-12800000D01*
X16700000Y-10000000D02*
G75*
G03*
X13300000Y-10000000I-1700000J0D01*
G01*
X13300000Y-10000000D02*
X13300000Y-12800000D01*
D11*
D12*
X13470000Y-12420000D02*
X13680000Y-12630000D01*
X13680000Y-12420000D02*
X13470000Y-12630000D01*
X16320000Y-12420000D02*
X16530000Y-12630000D01*
X16530000Y-12420000D02*
X16320000Y-12630000D01*
D11*
X13555777Y-13116484D02*
X13555777Y-12916484D01*
X13555777Y-12916484D02*
X13603396Y-12916484D01*
X13603396Y-12916484D02*
X13631967Y-12926008D01*
X13631967Y-12926008D02*
X13651015Y-12945055D01*
X13651015Y-12945055D02*
X13660539Y-12964103D01*
X13660539Y-12964103D02*
X13670062Y-13002198D01*
X13670062Y-13002198D02*
X13670062Y-13030769D01*
X13670062Y-13030769D02*
X13660539Y-13068865D01*
X13660539Y-13068865D02*
X13651015Y-13087912D01*
X13651015Y-13087912D02*
X13631967Y-13106960D01*
X13631967Y-13106960D02*
X13603396Y-13116484D01*
X13603396Y-13116484D02*
X13555777Y-13116484D01*
X13755777Y-13116484D02*
X13755777Y-12983150D01*
X13755777Y-13021246D02*
X13765301Y-13002198D01*
X13765301Y-13002198D02*
X13774824Y-12992674D01*
X13774824Y-12992674D02*
X13793872Y-12983150D01*
X13793872Y-12983150D02*
X13812920Y-12983150D01*
X13879586Y-13116484D02*
X13879586Y-12983150D01*
X13879586Y-12916484D02*
X13870062Y-12926008D01*
X13870062Y-12926008D02*
X13879586Y-12935531D01*
X13879586Y-12935531D02*
X13889110Y-12926008D01*
X13889110Y-12926008D02*
X13879586Y-12916484D01*
X13879586Y-12916484D02*
X13879586Y-12935531D01*
X14003396Y-13116484D02*
X13984348Y-13106960D01*
X13984348Y-13106960D02*
X13974824Y-13087912D01*
X13974824Y-13087912D02*
X13974824Y-12916484D01*
X14108158Y-13116484D02*
X14089110Y-13106960D01*
X14089110Y-13106960D02*
X14079586Y-13087912D01*
X14079586Y-13087912D02*
X14079586Y-12916484D01*
X14336729Y-13116484D02*
X14336729Y-12916484D01*
X14336729Y-12916484D02*
X14403396Y-13059341D01*
X14403396Y-13059341D02*
X14470062Y-12916484D01*
X14470062Y-12916484D02*
X14470062Y-13116484D01*
X14651015Y-13116484D02*
X14651015Y-13011722D01*
X14651015Y-13011722D02*
X14641491Y-12992674D01*
X14641491Y-12992674D02*
X14622443Y-12983150D01*
X14622443Y-12983150D02*
X14584348Y-12983150D01*
X14584348Y-12983150D02*
X14565301Y-12992674D01*
X14651015Y-13106960D02*
X14631967Y-13116484D01*
X14631967Y-13116484D02*
X14584348Y-13116484D01*
X14584348Y-13116484D02*
X14565301Y-13106960D01*
X14565301Y-13106960D02*
X14555777Y-13087912D01*
X14555777Y-13087912D02*
X14555777Y-13068865D01*
X14555777Y-13068865D02*
X14565301Y-13049817D01*
X14565301Y-13049817D02*
X14584348Y-13040293D01*
X14584348Y-13040293D02*
X14631967Y-13040293D01*
X14631967Y-13040293D02*
X14651015Y-13030769D01*
X14746253Y-12983150D02*
X14746253Y-13183150D01*
X14746253Y-12992674D02*
X14765301Y-12983150D01*
X14765301Y-12983150D02*
X14803396Y-12983150D01*
X14803396Y-12983150D02*
X14822443Y-12992674D01*
X14822443Y-12992674D02*
X14831967Y-13002198D01*
X14831967Y-13002198D02*
X14841491Y-13021246D01*
X14841491Y-13021246D02*
X14841491Y-13078388D01*
X14841491Y-13078388D02*
X14831967Y-13097436D01*
X14831967Y-13097436D02*
X14822443Y-13106960D01*
X14822443Y-13106960D02*
X14803396Y-13116484D01*
X14803396Y-13116484D02*
X14765301Y-13116484D01*
X14765301Y-13116484D02*
X14746253Y-13106960D01*
X14927205Y-13097436D02*
X14936729Y-13106960D01*
X14936729Y-13106960D02*
X14927205Y-13116484D01*
X14927205Y-13116484D02*
X14917682Y-13106960D01*
X14917682Y-13106960D02*
X14927205Y-13097436D01*
X14927205Y-13097436D02*
X14927205Y-13116484D01*
X14927205Y-12992674D02*
X14936729Y-13002198D01*
X14936729Y-13002198D02*
X14927205Y-13011722D01*
X14927205Y-13011722D02*
X14917682Y-13002198D01*
X14917682Y-13002198D02*
X14927205Y-12992674D01*
X14927205Y-12992674D02*
X14927205Y-13011722D01*
X13095000Y-13345000D02*
X13295000Y-13545000D01*
X13295000Y-13345000D02*
X13095000Y-13545000D01*
X13546253Y-13355531D02*
X13555777Y-13346008D01*
X13555777Y-13346008D02*
X13574824Y-13336484D01*
X13574824Y-13336484D02*
X13622443Y-13336484D01*
X13622443Y-13336484D02*
X13641491Y-13346008D01*
X13641491Y-13346008D02*
X13651015Y-13355531D01*
X13651015Y-13355531D02*
X13660539Y-13374579D01*
X13660539Y-13374579D02*
X13660539Y-13393627D01*
X13660539Y-13393627D02*
X13651015Y-13422198D01*
X13651015Y-13422198D02*
X13536729Y-13536484D01*
X13536729Y-13536484D02*
X13660539Y-13536484D01*
X13746253Y-13517436D02*
X13755777Y-13526960D01*
X13755777Y-13526960D02*
X13746253Y-13536484D01*
X13746253Y-13536484D02*
X13736729Y-13526960D01*
X13736729Y-13526960D02*
X13746253Y-13517436D01*
X13746253Y-13517436D02*
X13746253Y-13536484D01*
X13946253Y-13536484D02*
X13831967Y-13536484D01*
X13889110Y-13536484D02*
X13889110Y-13336484D01*
X13889110Y-13336484D02*
X13870062Y-13365055D01*
X13870062Y-13365055D02*
X13851015Y-13384103D01*
X13851015Y-13384103D02*
X13831967Y-13393627D01*
X14070062Y-13336484D02*
X14089110Y-13336484D01*
X14089110Y-13336484D02*
X14108158Y-13346008D01*
X14108158Y-13346008D02*
X14117682Y-13355531D01*
X14117682Y-13355531D02*
X14127205Y-13374579D01*
X14127205Y-13374579D02*
X14136729Y-13412674D01*
X14136729Y-13412674D02*
X14136729Y-13460293D01*
X14136729Y-13460293D02*
X14127205Y-13498388D01*
X14127205Y-13498388D02*
X14117682Y-13517436D01*
X14117682Y-13517436D02*
X14108158Y-13526960D01*
X14108158Y-13526960D02*
X14089110Y-13536484D01*
X14089110Y-13536484D02*
X14070062Y-13536484D01*
X14070062Y-13536484D02*
X14051015Y-13526960D01*
X14051015Y-13526960D02*
X14041491Y-13517436D01*
X14041491Y-13517436D02*
X14031967Y-13498388D01*
X14031967Y-13498388D02*
X14022443Y-13460293D01*
X14022443Y-13460293D02*
X14022443Y-13412674D01*
X14022443Y-13412674D02*
X14031967Y-13374579D01*
X14031967Y-13374579D02*
X14041491Y-13355531D01*
X14041491Y-13355531D02*
X14051015Y-13346008D01*
X14051015Y-13346008D02*
X14070062Y-13336484D01*
X14260539Y-13336484D02*
X14279586Y-13336484D01*
X14279586Y-13336484D02*
X14298634Y-13346008D01*
X14298634Y-13346008D02*
X14308158Y-13355531D01*
X14308158Y-13355531D02*
X14317682Y-13374579D01*
X14317682Y-13374579D02*
X14327205Y-13412674D01*
X14327205Y-13412674D02*
X14327205Y-13460293D01*
X14327205Y-13460293D02*
X14317682Y-13498388D01*
X14317682Y-13498388D02*
X14308158Y-13517436D01*
X14308158Y-13517436D02*
X14298634Y-13526960D01*
X14298634Y-13526960D02*
X14279586Y-13536484D01*
X14279586Y-13536484D02*
X14260539Y-13536484D01*
X14260539Y-13536484D02*
X14241491Y-13526960D01*
X14241491Y-13526960D02*
X14231967Y-13517436D01*
X14231967Y-13517436D02*
X14222443Y-13498388D01*
X14222443Y-13498388D02*
X14212920Y-13460293D01*
X14212920Y-13460293D02*
X14212920Y-13412674D01*
X14212920Y-13412674D02*
X14222443Y-13374579D01*
X14222443Y-13374579D02*
X14231967Y-13355531D01*
X14231967Y-13355531D02*
X14241491Y-13346008D01*
X14241491Y-13346008D02*
X14260539Y-13336484D01*
X14412920Y-13536484D02*
X14412920Y-13403150D01*
X14412920Y-13422198D02*
X14422443Y-13412674D01*
X14422443Y-13412674D02*
X14441491Y-13403150D01*
X14441491Y-13403150D02*
X14470063Y-13403150D01*
X14470063Y-13403150D02*
X14489110Y-13412674D01*
X14489110Y-13412674D02*
X14498634Y-13431722D01*
X14498634Y-13431722D02*
X14498634Y-13536484D01*
X14498634Y-13431722D02*
X14508158Y-13412674D01*
X14508158Y-13412674D02*
X14527205Y-13403150D01*
X14527205Y-13403150D02*
X14555777Y-13403150D01*
X14555777Y-13403150D02*
X14574824Y-13412674D01*
X14574824Y-13412674D02*
X14584348Y-13431722D01*
X14584348Y-13431722D02*
X14584348Y-13536484D01*
X14679586Y-13536484D02*
X14679586Y-13403150D01*
X14679586Y-13422198D02*
X14689110Y-13412674D01*
X14689110Y-13412674D02*
X14708158Y-13403150D01*
X14708158Y-13403150D02*
X14736729Y-13403150D01*
X14736729Y-13403150D02*
X14755777Y-13412674D01*
X14755777Y-13412674D02*
X14765301Y-13431722D01*
X14765301Y-13431722D02*
X14765301Y-13536484D01*
X14765301Y-13431722D02*
X14774824Y-13412674D01*
X14774824Y-13412674D02*
X14793872Y-13403150D01*
X14793872Y-13403150D02*
X14822443Y-13403150D01*
X14822443Y-13403150D02*
X14841491Y-13412674D01*
X14841491Y-13412674D02*
X14851015Y-13431722D01*
X14851015Y-13431722D02*
X14851015Y-13536484D01*
X15241491Y-13326960D02*
X15070063Y-13584103D01*
X15498634Y-13336484D02*
X15517682Y-13336484D01*
X15517682Y-13336484D02*
X15536729Y-13346008D01*
X15536729Y-13346008D02*
X15546253Y-13355531D01*
X15546253Y-13355531D02*
X15555777Y-13374579D01*
X15555777Y-13374579D02*
X15565301Y-13412674D01*
X15565301Y-13412674D02*
X15565301Y-13460293D01*
X15565301Y-13460293D02*
X15555777Y-13498388D01*
X15555777Y-13498388D02*
X15546253Y-13517436D01*
X15546253Y-13517436D02*
X15536729Y-13526960D01*
X15536729Y-13526960D02*
X15517682Y-13536484D01*
X15517682Y-13536484D02*
X15498634Y-13536484D01*
X15498634Y-13536484D02*
X15479586Y-13526960D01*
X15479586Y-13526960D02*
X15470063Y-13517436D01*
X15470063Y-13517436D02*
X15460539Y-13498388D01*
X15460539Y-13498388D02*
X15451015Y-13460293D01*
X15451015Y-13460293D02*
X15451015Y-13412674D01*
X15451015Y-13412674D02*
X15460539Y-13374579D01*
X15460539Y-13374579D02*
X15470063Y-13355531D01*
X15470063Y-13355531D02*
X15479586Y-13346008D01*
X15479586Y-13346008D02*
X15498634Y-13336484D01*
X15651015Y-13517436D02*
X15660539Y-13526960D01*
X15660539Y-13526960D02*
X15651015Y-13536484D01*
X15651015Y-13536484D02*
X15641491Y-13526960D01*
X15641491Y-13526960D02*
X15651015Y-13517436D01*
X15651015Y-13517436D02*
X15651015Y-13536484D01*
X15784348Y-13336484D02*
X15803396Y-13336484D01*
X15803396Y-13336484D02*
X15822444Y-13346008D01*
X15822444Y-13346008D02*
X15831967Y-13355531D01*
X15831967Y-13355531D02*
X15841491Y-13374579D01*
X15841491Y-13374579D02*
X15851015Y-13412674D01*
X15851015Y-13412674D02*
X15851015Y-13460293D01*
X15851015Y-13460293D02*
X15841491Y-13498388D01*
X15841491Y-13498388D02*
X15831967Y-13517436D01*
X15831967Y-13517436D02*
X15822444Y-13526960D01*
X15822444Y-13526960D02*
X15803396Y-13536484D01*
X15803396Y-13536484D02*
X15784348Y-13536484D01*
X15784348Y-13536484D02*
X15765301Y-13526960D01*
X15765301Y-13526960D02*
X15755777Y-13517436D01*
X15755777Y-13517436D02*
X15746253Y-13498388D01*
X15746253Y-13498388D02*
X15736729Y-13460293D01*
X15736729Y-13460293D02*
X15736729Y-13412674D01*
X15736729Y-13412674D02*
X15746253Y-13374579D01*
X15746253Y-13374579D02*
X15755777Y-13355531D01*
X15755777Y-13355531D02*
X15765301Y-13346008D01*
X15765301Y-13346008D02*
X15784348Y-13336484D01*
X15965301Y-13422198D02*
X15946253Y-13412674D01*
X15946253Y-13412674D02*
X15936729Y-13403150D01*
X15936729Y-13403150D02*
X15927206Y-13384103D01*
X15927206Y-13384103D02*
X15927206Y-13374579D01*
X15927206Y-13374579D02*
X15936729Y-13355531D01*
X15936729Y-13355531D02*
X15946253Y-13346008D01*
X15946253Y-13346008D02*
X15965301Y-13336484D01*
X15965301Y-13336484D02*
X16003396Y-13336484D01*
X16003396Y-13336484D02*
X16022444Y-13346008D01*
X16022444Y-13346008D02*
X16031967Y-13355531D01*
X16031967Y-13355531D02*
X16041491Y-13374579D01*
X16041491Y-13374579D02*
X16041491Y-13384103D01*
X16041491Y-13384103D02*
X16031967Y-13403150D01*
X16031967Y-13403150D02*
X16022444Y-13412674D01*
X16022444Y-13412674D02*
X16003396Y-13422198D01*
X16003396Y-13422198D02*
X15965301Y-13422198D01*
X15965301Y-13422198D02*
X15946253Y-13431722D01*
X15946253Y-13431722D02*
X15936729Y-13441246D01*
X15936729Y-13441246D02*
X15927206Y-13460293D01*
X15927206Y-13460293D02*
X15927206Y-13498388D01*
X15927206Y-13498388D02*
X15936729Y-13517436D01*
X15936729Y-13517436D02*
X15946253Y-13526960D01*
X15946253Y-13526960D02*
X15965301Y-13536484D01*
X15965301Y-13536484D02*
X16003396Y-13536484D01*
X16003396Y-13536484D02*
X16022444Y-13526960D01*
X16022444Y-13526960D02*
X16031967Y-13517436D01*
X16031967Y-13517436D02*
X16041491Y-13498388D01*
X16041491Y-13498388D02*
X16041491Y-13460293D01*
X16041491Y-13460293D02*
X16031967Y-13441246D01*
X16031967Y-13441246D02*
X16022444Y-13431722D01*
X16022444Y-13431722D02*
X16003396Y-13422198D01*
X16117682Y-13355531D02*
X16127206Y-13346008D01*
X16127206Y-13346008D02*
X16146253Y-13336484D01*
X16146253Y-13336484D02*
X16193872Y-13336484D01*
X16193872Y-13336484D02*
X16212920Y-13346008D01*
X16212920Y-13346008D02*
X16222444Y-13355531D01*
X16222444Y-13355531D02*
X16231967Y-13374579D01*
X16231967Y-13374579D02*
X16231967Y-13393627D01*
X16231967Y-13393627D02*
X16222444Y-13422198D01*
X16222444Y-13422198D02*
X16108158Y-13536484D01*
X16108158Y-13536484D02*
X16231967Y-13536484D01*
X16298634Y-13336484D02*
X16431967Y-13336484D01*
X16431967Y-13336484D02*
X16346253Y-13536484D01*
X16498634Y-13336484D02*
X16498634Y-13374579D01*
X16574825Y-13336484D02*
X16574825Y-13374579D01*
X16870063Y-13612674D02*
X16860539Y-13603150D01*
X16860539Y-13603150D02*
X16841491Y-13574579D01*
X16841491Y-13574579D02*
X16831968Y-13555531D01*
X16831968Y-13555531D02*
X16822444Y-13526960D01*
X16822444Y-13526960D02*
X16812920Y-13479341D01*
X16812920Y-13479341D02*
X16812920Y-13441246D01*
X16812920Y-13441246D02*
X16822444Y-13393627D01*
X16822444Y-13393627D02*
X16831968Y-13365055D01*
X16831968Y-13365055D02*
X16841491Y-13346008D01*
X16841491Y-13346008D02*
X16860539Y-13317436D01*
X16860539Y-13317436D02*
X16870063Y-13307912D01*
X16936730Y-13355531D02*
X16946253Y-13346008D01*
X16946253Y-13346008D02*
X16965301Y-13336484D01*
X16965301Y-13336484D02*
X17012920Y-13336484D01*
X17012920Y-13336484D02*
X17031968Y-13346008D01*
X17031968Y-13346008D02*
X17041491Y-13355531D01*
X17041491Y-13355531D02*
X17051015Y-13374579D01*
X17051015Y-13374579D02*
X17051015Y-13393627D01*
X17051015Y-13393627D02*
X17041491Y-13422198D01*
X17041491Y-13422198D02*
X16927206Y-13536484D01*
X16927206Y-13536484D02*
X17051015Y-13536484D01*
X17289111Y-13536484D02*
X17289111Y-13336484D01*
X17374825Y-13536484D02*
X17374825Y-13431722D01*
X17374825Y-13431722D02*
X17365301Y-13412674D01*
X17365301Y-13412674D02*
X17346253Y-13403150D01*
X17346253Y-13403150D02*
X17317682Y-13403150D01*
X17317682Y-13403150D02*
X17298634Y-13412674D01*
X17298634Y-13412674D02*
X17289111Y-13422198D01*
X17498634Y-13536484D02*
X17479587Y-13526960D01*
X17479587Y-13526960D02*
X17470063Y-13517436D01*
X17470063Y-13517436D02*
X17460539Y-13498388D01*
X17460539Y-13498388D02*
X17460539Y-13441246D01*
X17460539Y-13441246D02*
X17470063Y-13422198D01*
X17470063Y-13422198D02*
X17479587Y-13412674D01*
X17479587Y-13412674D02*
X17498634Y-13403150D01*
X17498634Y-13403150D02*
X17527206Y-13403150D01*
X17527206Y-13403150D02*
X17546253Y-13412674D01*
X17546253Y-13412674D02*
X17555777Y-13422198D01*
X17555777Y-13422198D02*
X17565301Y-13441246D01*
X17565301Y-13441246D02*
X17565301Y-13498388D01*
X17565301Y-13498388D02*
X17555777Y-13517436D01*
X17555777Y-13517436D02*
X17546253Y-13526960D01*
X17546253Y-13526960D02*
X17527206Y-13536484D01*
X17527206Y-13536484D02*
X17498634Y-13536484D01*
X17679587Y-13536484D02*
X17660539Y-13526960D01*
X17660539Y-13526960D02*
X17651015Y-13507912D01*
X17651015Y-13507912D02*
X17651015Y-13336484D01*
X17831968Y-13526960D02*
X17812920Y-13536484D01*
X17812920Y-13536484D02*
X17774825Y-13536484D01*
X17774825Y-13536484D02*
X17755777Y-13526960D01*
X17755777Y-13526960D02*
X17746253Y-13507912D01*
X17746253Y-13507912D02*
X17746253Y-13431722D01*
X17746253Y-13431722D02*
X17755777Y-13412674D01*
X17755777Y-13412674D02*
X17774825Y-13403150D01*
X17774825Y-13403150D02*
X17812920Y-13403150D01*
X17812920Y-13403150D02*
X17831968Y-13412674D01*
X17831968Y-13412674D02*
X17841492Y-13431722D01*
X17841492Y-13431722D02*
X17841492Y-13450769D01*
X17841492Y-13450769D02*
X17746253Y-13469817D01*
X17917682Y-13526960D02*
X17936730Y-13536484D01*
X17936730Y-13536484D02*
X17974825Y-13536484D01*
X17974825Y-13536484D02*
X17993873Y-13526960D01*
X17993873Y-13526960D02*
X18003396Y-13507912D01*
X18003396Y-13507912D02*
X18003396Y-13498388D01*
X18003396Y-13498388D02*
X17993873Y-13479341D01*
X17993873Y-13479341D02*
X17974825Y-13469817D01*
X17974825Y-13469817D02*
X17946253Y-13469817D01*
X17946253Y-13469817D02*
X17927206Y-13460293D01*
X17927206Y-13460293D02*
X17917682Y-13441246D01*
X17917682Y-13441246D02*
X17917682Y-13431722D01*
X17917682Y-13431722D02*
X17927206Y-13412674D01*
X17927206Y-13412674D02*
X17946253Y-13403150D01*
X17946253Y-13403150D02*
X17974825Y-13403150D01*
X17974825Y-13403150D02*
X17993873Y-13412674D01*
X18070063Y-13612674D02*
X18079587Y-13603150D01*
X18079587Y-13603150D02*
X18098634Y-13574579D01*
X18098634Y-13574579D02*
X18108158Y-13555531D01*
X18108158Y-13555531D02*
X18117682Y-13526960D01*
X18117682Y-13526960D02*
X18127206Y-13479341D01*
X18127206Y-13479341D02*
X18127206Y-13441246D01*
X18127206Y-13441246D02*
X18117682Y-13393627D01*
X18117682Y-13393627D02*
X18108158Y-13365055D01*
X18108158Y-13365055D02*
X18098634Y-13346008D01*
X18098634Y-13346008D02*
X18079587Y-13317436D01*
X18079587Y-13317436D02*
X18070063Y-13307912D01*
X18431968Y-13612674D02*
X18422444Y-13603150D01*
X18422444Y-13603150D02*
X18403396Y-13574579D01*
X18403396Y-13574579D02*
X18393873Y-13555531D01*
X18393873Y-13555531D02*
X18384349Y-13526960D01*
X18384349Y-13526960D02*
X18374825Y-13479341D01*
X18374825Y-13479341D02*
X18374825Y-13441246D01*
X18374825Y-13441246D02*
X18384349Y-13393627D01*
X18384349Y-13393627D02*
X18393873Y-13365055D01*
X18393873Y-13365055D02*
X18403396Y-13346008D01*
X18403396Y-13346008D02*
X18422444Y-13317436D01*
X18422444Y-13317436D02*
X18431968Y-13307912D01*
X18508158Y-13403150D02*
X18508158Y-13536484D01*
X18508158Y-13422198D02*
X18517682Y-13412674D01*
X18517682Y-13412674D02*
X18536730Y-13403150D01*
X18536730Y-13403150D02*
X18565301Y-13403150D01*
X18565301Y-13403150D02*
X18584349Y-13412674D01*
X18584349Y-13412674D02*
X18593873Y-13431722D01*
X18593873Y-13431722D02*
X18593873Y-13536484D01*
X18717682Y-13536484D02*
X18698634Y-13526960D01*
X18698634Y-13526960D02*
X18689111Y-13517436D01*
X18689111Y-13517436D02*
X18679587Y-13498388D01*
X18679587Y-13498388D02*
X18679587Y-13441246D01*
X18679587Y-13441246D02*
X18689111Y-13422198D01*
X18689111Y-13422198D02*
X18698634Y-13412674D01*
X18698634Y-13412674D02*
X18717682Y-13403150D01*
X18717682Y-13403150D02*
X18746254Y-13403150D01*
X18746254Y-13403150D02*
X18765301Y-13412674D01*
X18765301Y-13412674D02*
X18774825Y-13422198D01*
X18774825Y-13422198D02*
X18784349Y-13441246D01*
X18784349Y-13441246D02*
X18784349Y-13498388D01*
X18784349Y-13498388D02*
X18774825Y-13517436D01*
X18774825Y-13517436D02*
X18765301Y-13526960D01*
X18765301Y-13526960D02*
X18746254Y-13536484D01*
X18746254Y-13536484D02*
X18717682Y-13536484D01*
X18841492Y-13403150D02*
X18917682Y-13403150D01*
X18870063Y-13336484D02*
X18870063Y-13507912D01*
X18870063Y-13507912D02*
X18879587Y-13526960D01*
X18879587Y-13526960D02*
X18898634Y-13536484D01*
X18898634Y-13536484D02*
X18917682Y-13536484D01*
X19136730Y-13403150D02*
X19136730Y-13603150D01*
X19136730Y-13412674D02*
X19155777Y-13403150D01*
X19155777Y-13403150D02*
X19193873Y-13403150D01*
X19193873Y-13403150D02*
X19212920Y-13412674D01*
X19212920Y-13412674D02*
X19222444Y-13422198D01*
X19222444Y-13422198D02*
X19231968Y-13441246D01*
X19231968Y-13441246D02*
X19231968Y-13498388D01*
X19231968Y-13498388D02*
X19222444Y-13517436D01*
X19222444Y-13517436D02*
X19212920Y-13526960D01*
X19212920Y-13526960D02*
X19193873Y-13536484D01*
X19193873Y-13536484D02*
X19155777Y-13536484D01*
X19155777Y-13536484D02*
X19136730Y-13526960D01*
X19346254Y-13536484D02*
X19327206Y-13526960D01*
X19327206Y-13526960D02*
X19317682Y-13507912D01*
X19317682Y-13507912D02*
X19317682Y-13336484D01*
X19508158Y-13536484D02*
X19508158Y-13431722D01*
X19508158Y-13431722D02*
X19498635Y-13412674D01*
X19498635Y-13412674D02*
X19479587Y-13403150D01*
X19479587Y-13403150D02*
X19441492Y-13403150D01*
X19441492Y-13403150D02*
X19422444Y-13412674D01*
X19508158Y-13526960D02*
X19489111Y-13536484D01*
X19489111Y-13536484D02*
X19441492Y-13536484D01*
X19441492Y-13536484D02*
X19422444Y-13526960D01*
X19422444Y-13526960D02*
X19412920Y-13507912D01*
X19412920Y-13507912D02*
X19412920Y-13488865D01*
X19412920Y-13488865D02*
X19422444Y-13469817D01*
X19422444Y-13469817D02*
X19441492Y-13460293D01*
X19441492Y-13460293D02*
X19489111Y-13460293D01*
X19489111Y-13460293D02*
X19508158Y-13450769D01*
X19574825Y-13403150D02*
X19651015Y-13403150D01*
X19603396Y-13336484D02*
X19603396Y-13507912D01*
X19603396Y-13507912D02*
X19612920Y-13526960D01*
X19612920Y-13526960D02*
X19631968Y-13536484D01*
X19631968Y-13536484D02*
X19651015Y-13536484D01*
X19793873Y-13526960D02*
X19774825Y-13536484D01*
X19774825Y-13536484D02*
X19736730Y-13536484D01*
X19736730Y-13536484D02*
X19717682Y-13526960D01*
X19717682Y-13526960D02*
X19708158Y-13507912D01*
X19708158Y-13507912D02*
X19708158Y-13431722D01*
X19708158Y-13431722D02*
X19717682Y-13412674D01*
X19717682Y-13412674D02*
X19736730Y-13403150D01*
X19736730Y-13403150D02*
X19774825Y-13403150D01*
X19774825Y-13403150D02*
X19793873Y-13412674D01*
X19793873Y-13412674D02*
X19803396Y-13431722D01*
X19803396Y-13431722D02*
X19803396Y-13450769D01*
X19803396Y-13450769D02*
X19708158Y-13469817D01*
X19974825Y-13536484D02*
X19974825Y-13336484D01*
X19974825Y-13526960D02*
X19955777Y-13536484D01*
X19955777Y-13536484D02*
X19917682Y-13536484D01*
X19917682Y-13536484D02*
X19898635Y-13526960D01*
X19898635Y-13526960D02*
X19889111Y-13517436D01*
X19889111Y-13517436D02*
X19879587Y-13498388D01*
X19879587Y-13498388D02*
X19879587Y-13441246D01*
X19879587Y-13441246D02*
X19889111Y-13422198D01*
X19889111Y-13422198D02*
X19898635Y-13412674D01*
X19898635Y-13412674D02*
X19917682Y-13403150D01*
X19917682Y-13403150D02*
X19955777Y-13403150D01*
X19955777Y-13403150D02*
X19974825Y-13412674D01*
X20051016Y-13612674D02*
X20060539Y-13603150D01*
X20060539Y-13603150D02*
X20079587Y-13574579D01*
X20079587Y-13574579D02*
X20089111Y-13555531D01*
X20089111Y-13555531D02*
X20098635Y-13526960D01*
X20098635Y-13526960D02*
X20108158Y-13479341D01*
X20108158Y-13479341D02*
X20108158Y-13441246D01*
X20108158Y-13441246D02*
X20098635Y-13393627D01*
X20098635Y-13393627D02*
X20089111Y-13365055D01*
X20089111Y-13365055D02*
X20079587Y-13346008D01*
X20079587Y-13346008D02*
X20060539Y-13317436D01*
X20060539Y-13317436D02*
X20051016Y-13307912D01*
M02*
